<?xml version="1.0" standalone="no"?>
<!DOCTYPE svg PUBLIC "-//W3C//DTD SVG 1.1//EN" "http://www.w3.org/Graphics/SVG/1.1/DTD/svg11.dtd" >
<svg>
<metadata>
Created by FontForge 20110222 at Thu Jan 22 20:34:49 2015
 By deploy user
Copyright (c) 2011 by Daniel hernndez. All rights reserved.
</metadata>
<defs>
<font id="Sanchez-RegularItalic" horiz-adv-x="613" >
  <font-face 
    font-family="Sanchez Regular"
    font-weight="400"
    font-style="italic"
    font-stretch="normal"
    units-per-em="1000"
    panose-1="0 0 0 0 0 0 0 0 0 0"
    ascent="750"
    descent="-250"
    x-height="492"
    cap-height="718"
    bbox="-21.2632 -274 1153.08 1003.76"
    underline-thickness="50"
    underline-position="-50"
    unicode-range="U+0020-FB02"
  />
<missing-glyph horiz-adv-x="313" 
 />
    <glyph glyph-name="ff" unicode="ff" horiz-adv-x="753" 
d="M645 0h-226q-13 0 -11 12l7 43q1 12 13 12h56l51 358h-283l-51 -358h88q13 0 11 -12l-7 -43q-1 -12 -14 -12h-226q-13 0 -11 12l7 43q1 12 13 12h56l51 358h-58q-13 0 -11 12l6 43q2 12 14 12h58l9 62q11 83 59.5 126.5t124.5 43.5q61 0 96 -40q9 -8 0 -17l-29 -31
q-9 -9 -17 -2q-24 19 -52 19q-40 0 -66.5 -25.5t-33.5 -74.5l-8 -61h283l9 62q11 83 59.5 126.5t124.5 43.5q61 0 96 -40q9 -8 0 -17l-29 -31q-9 -9 -17 -2q-24 19 -52 19q-40 0 -66.5 -25.5t-33.5 -74.5l-8 -61h128q11 0 10 -12l-6 -43q-1 -12 -14 -12h-127l-51 -358h88
q13 0 11 -12l-7 -43q-1 -12 -14 -12z" />
    <glyph glyph-name="fi" unicode="fi" horiz-adv-x="665" 
d="M614 0h-191q-13 0 -11 12l7 43q1 12 13 12h56l51 358h-287l-51 -358h88q13 0 11 -12l-7 -43q-1 -12 -14 -12h-226q-13 0 -11 12l7 43q1 12 13 12h56l51 358h-58q-13 0 -11 12l6 43q2 12 14 12h58l9 62q11 83 59.5 126.5t124.5 43.5q61 0 96 -40q9 -8 0 -17l-29 -31
q-9 -9 -17 -2q-24 19 -52 19q-40 0 -66.5 -25.5t-33.5 -74.5l-8 -61h357q12 0 11 -12l-58 -413h53q12 0 11 -12l-6 -43q-1 -12 -15 -12zM660 607q0 -25 -20 -43.5t-45 -18.5q-21 0 -34.5 14t-13.5 35q0 25 19 44t45 19q21 0 35 -14.5t14 -35.5z" />
    <glyph glyph-name="fl" unicode="fl" horiz-adv-x="680" 
d="M279 0h-226q-13 0 -11 12l7 43q1 12 13 12h56l51 358h-58q-13 0 -11 12l6 43q2 12 14 12h58l9 62q11 83 59.5 126.5t124.5 43.5q61 0 96 -40q9 -8 0 -17l-29 -31q-9 -9 -17 -2q-24 19 -52 19q-40 0 -66.5 -25.5t-33.5 -74.5l-8 -61h128q11 0 10 -12l-6 -43
q-1 -12 -14 -12h-127l-51 -358h88q13 0 11 -12l-7 -43q-1 -12 -14 -12zM629 0h-191q-12 0 -11 12l7 43q2 12 13 12h56l83 584h-56q-14 0 -11 12l6 43q1 12 14 12h111q28 0 24 -25l-88 -626h53q13 0 11 -12l-6 -43q-2 -12 -15 -12z" />
    <glyph glyph-name=".notdef" horiz-adv-x="313" 
 />
    <glyph glyph-name=".null" horiz-adv-x="0" 
 />
    <glyph glyph-name="nonmarkingreturn" horiz-adv-x="333" 
 />
    <glyph glyph-name="space" unicode=" " horiz-adv-x="313" 
 />
    <glyph glyph-name="exclam" unicode="!" horiz-adv-x="182" 
d="M142 148h-60q-12 0 -11 12l83 588q2 12 14 12h60q12 0 10 -12l-83 -588q-1 -12 -13 -12zM146 10q0 -24 -19 -41.5t-43 -17.5q-20 0 -33 13.5t-13 33.5q0 24 18.5 41.5t42.5 17.5q20 0 33.5 -13.5t13.5 -33.5z" />
    <glyph glyph-name="quotedbl" unicode="&#x22;" horiz-adv-x="278" 
d="M169 561h-34q-13 0 -11 13l18 163q2 13 15 13h44q13 0 11 -13l-28 -163q-2 -13 -15 -13zM300 561h-33q-14 0 -12 13l19 163q2 13 15 13h43q14 0 11 -13l-27 -163q-3 -13 -16 -13z" />
    <glyph glyph-name="numbersign" unicode="#" horiz-adv-x="612" 
d="M523 112h-98l-46 -107q-5 -12 -17 -12h-49q-13 0 -7 12l45 107h-130l-46 -107q-5 -12 -18 -12h-49q-12 0 -7 12l46 107h-81q-12 0 -10 12l5 37q1 12 14 12h97l55 126h-80q-13 0 -11 13l6 36q2 13 14 13h98l47 109q5 13 17 13h50q12 0 7 -13l-48 -109h131l47 109
q7 13 18 13h49q12 0 7 -13l-47 -109h80q13 0 11 -13l-5 -36q-2 -13 -15 -13h-98l-55 -126h81q13 0 11 -12l-5 -37q-1 -12 -14 -12zM377 173l54 126h-130l-55 -126h131z" />
    <glyph glyph-name="dollar" unicode="$" horiz-adv-x="646" 
d="M349 -86h-54q-11 0 -10 12l10 75q-65 9 -104 40.5t-56 68.5h-2l-8 -67q0 -12 -14 -12h-56q-13 0 -11 12l27 188q1 12 14 12h63q12 0 11 -12l-1 -6q0 -7 4 -22.5t17.5 -38t33.5 -42.5t56 -34t81 -14q84 0 133.5 35.5t49.5 97.5q0 42 -41.5 68t-100.5 41t-117.5 33
t-100 57.5t-41.5 100.5q0 89 69.5 151t182.5 66l10 69q2 12 14 12h54q12 0 11 -12l-11 -79q84 -12 120 -69l4 39q2 12 15 12h56q11 0 10 -12l-25 -181q-2 -12 -14 -12h-63q-11 0 -11 12l2 13q1 13 -6 32t-23.5 41t-51.5 37.5t-82 15.5q-71 0 -117.5 -35.5t-46.5 -88.5
q0 -33 22.5 -57t58.5 -38t79.5 -25.5t87 -25.5t79.5 -32t58.5 -49.5t22.5 -74.5q0 -90 -67 -154t-197 -68l-10 -68q-1 -12 -14 -12z" />
    <glyph glyph-name="percent" unicode="%" horiz-adv-x="753" 
d="M233 359q-58 0 -90 40.5t-32 109.5q0 93 48.5 154t124.5 61q58 0 90 -40.5t32 -107.5q0 -94 -47 -155.5t-126 -61.5zM241 414q48 0 76.5 43.5t28.5 115.5q0 96 -69 96q-49 0 -77.5 -42.5t-28.5 -113.5q0 -47 18 -73t52 -26zM570 -7q-58 0 -90 40.5t-32 109.5q0 93 48 154
t125 61q57 0 89.5 -40.5t32.5 -107.5q0 -93 -47.5 -155t-125.5 -62zM577 48q48 0 76.5 43.5t28.5 115.5q0 96 -69 96q-49 0 -77.5 -42.5t-28.5 -113.5q0 -47 18 -73t52 -26zM265 -74h-60q-11 0 -7 12l356 810q6 12 19 12h59q12 0 6 -12l-356 -810q-4 -12 -17 -12z" />
    <glyph glyph-name="ampersand" unicode="&#x26;" horiz-adv-x="674" 
d="M603 0h-81q-23 0 -43 37l-17 30q-81 -74 -190 -74q-103 0 -156 53.5t-53 126.5q0 42 14.5 77.5t34.5 58.5t51 44t52 31t50 22q-49 68 -49 136q0 82 56 132t136 50q61 0 103 -34t42 -100q0 -42 -15.5 -76t-45.5 -59t-55.5 -40.5t-64.5 -33.5l107 -189q33 50 47 150
q2 12 14 12h132q12 0 11 -12l-5 -37q-3 -12 -14 -12h-74q-18 -93 -72 -168l32 -56h63q13 0 11 -12l-7 -45q-1 -12 -14 -12zM428 126l-127 221q-26 -11 -45 -21t-46 -30t-42 -49.5t-15 -65.5q0 -53 37 -84t93 -31q87 0 145 60zM340 435q33 14 50.5 22.5t40.5 25.5t34 40
t11 53q0 32 -19 54t-55 22q-46 0 -75.5 -29t-29.5 -76t43 -112z" />
    <glyph glyph-name="quotesingle" unicode="'" horiz-adv-x="147" 
d="M169 561h-34q-13 0 -11 13l18 163q2 13 15 13h44q13 0 11 -13l-28 -163q-2 -13 -15 -13z" />
    <glyph glyph-name="parenleft" unicode="(" horiz-adv-x="412" 
d="M373 -2l-7 -51q-2 -13 -15 -13q-110 0 -190 89.5t-80 254.5q0 119 36.5 216t94.5 154t124 87t132 30q13 0 11 -13l-7 -51q-2 -13 -15 -13q-47 0 -96.5 -25.5t-94 -72.5t-73 -127t-28.5 -178q0 -133 60 -203.5t137 -70.5q14 0 11 -13z" />
    <glyph glyph-name="parenright" unicode=")" horiz-adv-x="412" 
d="M31 -53l7 50q2 14 15 14q46 0 95.5 24t94.5 69.5t74 125.5t29 180q0 132 -60 204.5t-137 72.5q-14 0 -12 13l7 51q2 13 16 13q51 0 98 -21t86 -61t62 -107t23 -151q0 -120 -36.5 -217t-94.5 -155t-124 -88.5t-132 -30.5q-13 0 -11 14z" />
    <glyph glyph-name="asterisk" unicode="*" horiz-adv-x="413" 
d="M282 420h-34q-15 0 -11 13l27 113l-80 -89q-11 -11 -20 -1l-20 24q-10 12 3 20l100 69l-116 -12q-6 -1 -9.5 3t-2.5 10l4 34q1 6 6 10t11 3l111 -14l-81 72q-9 9 3 19l28 24q12 10 19 0l58 -89l2 113q0 13 15 13h35q14 0 11 -13l-27 -114l81 90q11 11 20 0l20 -23
q9 -11 -4 -20l-99 -73l116 16q6 1 9 -3t2 -10l-4 -34q-2 -14 -16 -14l-109 11l77 -68q10 -8 -3 -19l-26 -24q-13 -11 -20 0l-58 87l-2 -111q-2 -13 -16 -13z" />
    <glyph glyph-name="plus" unicode="+" horiz-adv-x="401" 
d="M244 96h-57q-13 0 -11 13l16 107h-110q-14 0 -12 13l8 51q2 13 14 13h110l15 110q1 12 15 12h57q11 0 10 -12l-15 -110h106q14 0 11 -13l-7 -51q-2 -13 -15 -13h-105l-16 -107q-2 -13 -14 -13z" />
    <glyph glyph-name="comma" unicode="," horiz-adv-x="159" 
d="M32 -90l3 17q1 6 7 6q18 0 33.5 15.5t15.5 42.5l-1 7q-6 -5 -19 -5q-16 0 -26.5 11t-10.5 29q0 22 16 37.5t38 15.5q46 0 46 -58q0 -60 -27.5 -91.5t-67.5 -31.5q-7 0 -7 5z" />
    <glyph glyph-name="hyphen" unicode="-" horiz-adv-x="414" 
d="M393 222h-311q-13 0 -11 13l7 51q2 13 15 13h311q14 0 12 -13l-7 -51q-2 -13 -16 -13z" />
    <glyph glyph-name="period" unicode="." horiz-adv-x="151" 
d="M129 46q0 -22 -16.5 -37.5t-37.5 -15.5q-19 0 -30.5 11.5t-11.5 29.5q0 22 16 37.5t38 15.5q18 0 30 -12t12 -29z" />
    <glyph glyph-name="slash" unicode="/" horiz-adv-x="405" 
d="M97 -74h-60q-11 0 -7 12l356 810q4 12 19 12h59q12 0 6 -12l-356 -810q-4 -12 -17 -12z" />
    <glyph glyph-name="zero" unicode="0" horiz-adv-x="654" 
d="M326 -7q-116 0 -179.5 81t-63.5 218q0 186 96 309t250 123q115 0 179.5 -81t64.5 -215q0 -188 -94.5 -311.5t-252.5 -123.5zM338 74q104 0 173 96.5t69 252.5q0 104 -43 163t-119 59q-104 0 -173.5 -97.5t-69.5 -251.5q0 -106 42.5 -164t120.5 -58z" />
    <glyph glyph-name="one" unicode="1" horiz-adv-x="508" 
d="M458 0h-395q-13 0 -11 12l7 51q1 12 14 12h163l77 549l-152 -99q-11 -6 -16 3l-23 41q-7 8 5 17l192 125q11 7 19 7h63q13 0 11 -12l-89 -631h145q12 0 11 -12l-7 -51q-2 -12 -14 -12z" />
    <glyph glyph-name="two" unicode="2" horiz-adv-x="602" 
d="M551 0h-500q-13 0 -11 12l5 31q10 64 42.5 113.5t76.5 80t94.5 56t99 46.5t88 44.5t64 57.5t24.5 79q0 53 -38 88.5t-101 35.5q-83 0 -132 -41t-58 -104q-1 -12 -14 -12h-65q-11 0 -11 10q0 37 18 75.5t51.5 73t91.5 56.5t130 22q105 0 163 -54.5t58 -134.5
q0 -58 -24 -104t-63.5 -76t-87.5 -55.5t-98 -47.5t-92.5 -45.5t-74 -57t-40.5 -74.5h339l11 72q1 12 14 12h63q13 0 10 -12l-18 -135q-2 -12 -15 -12z" />
    <glyph glyph-name="three" unicode="3" horiz-adv-x="590" 
d="M460 378v-1q13 0 31 -7.5t39.5 -23t36 -47.5t14.5 -73q0 -104 -82.5 -168.5t-213.5 -64.5q-30 0 -57 4.5t-46.5 11.5t-38 17.5t-30 19.5t-22.5 20.5t-16 18.5t-11 16l-6 9q-9 9 3 17l48 40q11 8 18 0q1 -1 13.5 -17t18 -21.5t21.5 -18.5t30 -19t37 -11.5t49 -5.5
q88 0 142 42.5t54 111.5q0 109 -156 109h-39q-13 0 -11 13l6 45q2 13 14 13h32q25 0 52 6t56.5 19.5t48 41t18.5 65.5q0 46 -32.5 75t-99.5 29q-66 0 -105.5 -35.5t-45.5 -80.5q-2 -12 -15 -12h-60q-11 0 -11 10q0 83 69.5 140.5t178.5 57.5q108 0 160.5 -51.5t52.5 -120.5
q0 -42 -18.5 -77.5t-44.5 -55t-48 -30.5t-34 -11z" />
    <glyph glyph-name="four" unicode="4" horiz-adv-x="608" 
d="M557 0h-288q-13 0 -11 12l7 51q1 12 15 12h114l21 150h-333q-12 0 -10 13l5 40q3 14 19 32l365 385q23 23 41 23h57q13 0 11 -12l-58 -411h79q13 0 11 -13l-6 -44q-2 -13 -15 -13h-79l-21 -150h87q12 0 10 -12l-7 -51q-1 -12 -14 -12zM425 295l44 313l-298 -313h254z" />
    <glyph glyph-name="five" unicode="5" horiz-adv-x="590" 
d="M285 -7q-26 0 -50 3.5t-43 10t-35.5 13.5t-29.5 17t-23 18t-18.5 18t-13 16t-9.5 13t-5 8q-9 9 3 17l48 40q11 8 18 0q2 -2 13.5 -16.5t17.5 -21t21 -19.5t29.5 -19t37.5 -11.5t50 -5.5q93 0 147 48.5t54 133.5q0 63 -41.5 100.5t-114.5 37.5q-34 0 -68 -6t-70.5 -16.5
t-40.5 -11.5h-12t-10 6t-2 18l45 324q1 12 15 12h400q12 0 10 -12l-18 -130q-2 -12 -14 -12h-63q-13 0 -11 12l10 67h-249l-29 -203l14 4q15 4 30 7t40.5 6t50.5 3q106 0 162 -53.5t56 -143.5q0 -122 -84 -197t-218 -75z" />
    <glyph glyph-name="six" unicode="6" 
d="M609 523h-61q-10 0 -10 23q0 38 -30 68.5t-91 30.5q-86 0 -144.5 -61t-82.5 -173q88 51 204 51q105 0 160.5 -53.5t55.5 -143.5q0 -117 -83 -194.5t-214 -77.5q-110 0 -170.5 78.5t-60.5 210.5q0 120 38.5 218.5t119 161t189.5 62.5q90 0 143 -45.5t53 -119.5
q0 -36 -16 -36zM176 339q-16 -126 24.5 -195.5t122.5 -69.5q88 0 142 52t54 131q0 62 -40.5 99.5t-112.5 37.5q-98 0 -190 -55z" />
    <glyph glyph-name="seven" unicode="7" horiz-adv-x="598" 
d="M301 0h-63q-11 0 -11 10q0 88 15.5 157t40.5 113t56 79.5t64 64.5t62 58.5t52.5 72t32.5 94.5h-333l-10 -72q-1 -12 -14 -12h-63q-12 0 -11 12l19 135q2 12 14 12h497q11 0 10 -12l-5 -33q-10 -63 -34 -115t-54.5 -88t-65 -69t-67 -69t-59 -78t-42.5 -105t-16 -142
q0 -13 -15 -13z" />
    <glyph glyph-name="eight" unicode="8" horiz-adv-x="608" 
d="M485 387l-1 -1q13 0 30.5 -8t38 -24t34.5 -48t14 -73q0 -105 -84 -172.5t-213 -67.5q-110 0 -174.5 52t-64.5 136q0 55 21 98t50.5 64.5t54.5 32t41 10.5l1 1q-27 0 -62 34.5t-35 94.5q0 36 15.5 71t46.5 66.5t85 51t123 19.5q111 0 164 -50t53 -118q0 -42 -17.5 -77
t-42.5 -53.5t-46 -28.5t-32 -10zM365 345h-25q-86 0 -134.5 -40.5t-48.5 -109.5q0 -55 42 -88t115 -33q87 0 141.5 42.5t54.5 112.5q0 55 -37.5 85.5t-107.5 30.5zM531 540q0 45 -34.5 74.5t-101.5 29.5q-80 0 -125.5 -39t-45.5 -95q0 -30 13.5 -51t35 -31t43 -14.5
t43.5 -4.5q28 0 55.5 6t55 19.5t44.5 41t17 64.5z" />
    <glyph glyph-name="nine" unicode="9" horiz-adv-x="612" 
d="M104 194h61q10 0 10 -23q0 -38 30 -68.5t91 -30.5q86 0 144 61t83 173q-88 -51 -203 -51q-106 0 -161.5 53.5t-55.5 143.5q0 117 83 194.5t214 77.5q110 0 170.5 -78.5t60.5 -210.5q0 -120 -38.5 -218.5t-119 -161t-189.5 -62.5q-91 0 -143.5 45.5t-52.5 119.5
q0 36 16 36zM537 378q15 126 -24.5 195.5t-122.5 69.5q-88 0 -142 -52t-54 -131q0 -62 40.5 -99.5t112.5 -37.5q98 0 190 55z" />
    <glyph glyph-name="colon" unicode=":" horiz-adv-x="171" 
d="M139 46q0 -22 -16.5 -37.5t-38.5 -15.5q-18 0 -29.5 12t-11.5 29q0 22 16 37.5t38 15.5q18 0 30 -12t12 -29zM195 446q0 -21 -16.5 -37t-37.5 -16q-18 0 -30 12t-12 30q0 22 16 37.5t38 15.5q18 0 30 -12t12 -30z" />
    <glyph glyph-name="semicolon" unicode=";" horiz-adv-x="179" 
d="M197 446q0 -21 -17 -37t-39 -16q-18 0 -29 12t-11 30q0 22 16 37.5t38 15.5q18 0 30 -12t12 -30zM42 -90l3 17q1 6 7 6q18 0 33.5 15.5t15.5 42.5l-1 7q-6 -5 -20 -5q-15 0 -25.5 11t-10.5 29q0 22 16 37.5t38 15.5q46 0 46 -58q0 -60 -27.5 -91.5t-68.5 -31.5q-6 0 -6 5
z" />
    <glyph glyph-name="less" unicode="&#x3c;" horiz-adv-x="438" 
d="M396 66l-313 160q-12 7 -11 19l3 18q1 12 16 19l358 161q6 2 9.5 0t2.5 -8l-6 -43q-2 -13 -16 -20l-263 -118l230 -118q12 -5 10 -19l-6 -43q-2 -13 -14 -8z" />
    <glyph glyph-name="equal" unicode="=" horiz-adv-x="423" 
d="M419 335h-320q-14 0 -12 14l7 50q2 14 16 14h320q13 0 11 -14l-7 -50q-2 -14 -15 -14zM385 100h-320q-13 0 -11 13l7 51q2 13 15 13h320q14 0 12 -13l-7 -51q-2 -13 -16 -13z" />
    <glyph glyph-name="greater" unicode="&#x3e;" horiz-adv-x="438" 
d="M437 263l-2 -18q-2 -13 -16 -19l-357 -160q-7 -2 -10.5 0t-2.5 8l6 43q2 14 16 19l263 118l-230 118q-12 7 -10 20l6 43q2 13 14 8l313 -161q12 -7 10 -19z" />
    <glyph glyph-name="question" unicode="?" horiz-adv-x="582" 
d="M320 127h-69q-10 0 -10 10q0 65 29.5 114.5t71.5 80t83.5 57.5t71 62t29.5 78q0 52 -39 83.5t-108 31.5q-81 0 -127 -40t-56 -105q-2 -12 -14 -12h-63q-11 0 -11 10q0 37 16 75t48 73t88.5 57t129.5 22q109 0 169 -51t60 -130q0 -62 -28.5 -109.5t-69.5 -78.5
t-82.5 -59.5t-71.5 -68t-32 -88.5q-1 -12 -15 -12zM323 10q0 -24 -18.5 -41.5t-42.5 -17.5q-20 0 -33 13.5t-13 33.5q0 24 18.5 41.5t42.5 17.5q20 0 33 -13.5t13 -33.5z" />
    <glyph glyph-name="at" unicode="@" horiz-adv-x="783" 
d="M605 -27l10 -35q6 -13 -7 -15q-10 -5 -29.5 -13.5t-80.5 -22t-124 -13.5q-136 0 -222 87.5t-86 223.5q0 115 64 217.5t167 162.5t216 60q134 0 208.5 -68.5t74.5 -172.5q0 -73 -25 -133.5t-64.5 -97t-84 -56t-87.5 -19.5h-20q-23 0 -31.5 8.5t-2.5 29.5l6 25
q0 -2 -13.5 -17t-41.5 -32t-58 -17q-52 0 -87.5 34t-35.5 104q0 106 69 173.5t158 67.5q67 0 84 -46l7 25q3 11 15 11h30q11 0 8 -12l-79 -295h22q61 0 114 66.5t53 172.5q0 82 -61 132t-167 50q-148 0 -258 -112t-110 -254q0 -111 70 -180.5t178 -69.5q60 0 111.5 9
t72.5 19l21 9q13 7 16 -6zM513 231l28 103q0 12 -4 25t-21 27.5t-44 14.5q-59 0 -109 -49t-50 -125q0 -47 23.5 -70t59.5 -23t72.5 33t44.5 64z" />
    <glyph glyph-name="A" unicode="A" horiz-adv-x="841" 
d="M768 0h-226q-12 0 -10 12l7 51q1 12 14 12h69l-40 173h-279l-89 -173h70q13 0 10 -12l-7 -51q-1 -12 -14 -12h-225q-12 0 -10 12l7 51q1 12 14 12h67l295 568h-55q-12 0 -10 12l7 51q1 12 14 12h136q24 0 35.5 -10t17.5 -33l145 -600h67q12 0 11 -12l-7 -51
q-2 -12 -14 -12zM566 317l-70 297h-4l-152 -297h226z" />
    <glyph glyph-name="B" unicode="B" horiz-adv-x="681" 
d="M384 0h-323q-13 0 -11 12l7 51q1 12 14 12h77l80 568h-77q-11 0 -10 12l7 51q2 12 14 12h322q90 0 138.5 -45t48.5 -119q0 -120 -112 -179q106 -33 106 -142q0 -106 -69.5 -169.5t-211.5 -63.5zM235 75h152q83 0 136.5 39t53.5 116q0 107 -146 107h-159zM281 403h152
q58 0 103 34t45 102q0 56 -35.5 80t-88.5 24h-142z" />
    <glyph glyph-name="C" unicode="C" horiz-adv-x="752" 
d="M388 -7q-130 0 -212 86.5t-82 229.5q0 125 57.5 221.5t146 145t188.5 48.5q154 0 209 -107l11 89q2 12 15 12h56q13 0 11 -12l-31 -218q-2 -13 -14 -13h-63q-13 0 -11 13l1 9q5 46 -49.5 95.5t-141.5 49.5q-51 0 -102 -20.5t-94 -59.5t-69.5 -103t-26.5 -143
q0 -113 63 -176t152 -63q168 0 263 126q10 15 19 6l39 -28q7 -7 -1 -20q-9 -14 -22 -30t-43 -42t-65 -46t-89.5 -35t-114.5 -15z" />
    <glyph glyph-name="D" unicode="D" horiz-adv-x="740" 
d="M342 0h-287q-11 0 -10 12l7 51q2 12 14 12h77l79 568h-76q-12 0 -11 12l8 51q1 12 13 12h270q148 0 232.5 -80t84.5 -222q0 -188 -110 -302t-291 -114zM230 75h99q156 0 239 86t83 246q0 112 -62 174t-183 62h-97z" />
    <glyph glyph-name="E" unicode="E" horiz-adv-x="653" 
d="M592 0h-531q-13 0 -11 12l7 51q1 12 14 12h77l80 568h-77q-11 0 -10 12l7 51q2 12 14 12h531q14 0 11 -12l-23 -161q-2 -13 -13 -13h-54q-14 0 -11 13l13 98h-301l-35 -248h253q13 0 11 -12l-7 -51q-1 -12 -14 -12h-254l-34 -245h301l14 98q2 12 14 12h55q11 0 10 -12
l-22 -161q-1 -12 -15 -12z" />
    <glyph glyph-name="F" unicode="F" horiz-adv-x="635" 
d="M337 0h-276q-13 0 -11 12l7 51q1 12 14 12h77l80 568h-77q-11 0 -10 12l7 51q2 12 14 12h513q14 0 11 -12l-22 -161q-3 -13 -14 -13h-54q-14 0 -11 13l13 98h-283l-35 -248h235q13 0 11 -12l-7 -51q-1 -12 -14 -12h-236l-34 -245h113q13 0 10 -12l-7 -51q-1 -12 -14 -12z
" />
    <glyph glyph-name="G" unicode="G" horiz-adv-x="750" 
d="M690 0h-53q-14 0 -11 12l10 69q-99 -88 -245 -88q-132 0 -214.5 86t-82.5 230q0 96 34.5 176.5t91.5 131.5t127.5 79t143.5 28q154 0 206 -95l9 77q2 12 15 12h56q13 0 11 -12l-29 -206q-1 -12 -15 -12h-63q-11 0 -10 12l1 12q4 45 -49 87.5t-140 42.5q-54 0 -106.5 -23
t-95 -63.5t-68.5 -103t-26 -134.5q0 -112 64 -176.5t154 -64.5q156 0 237 101l11 78h-186q-13 0 -11 13l6 46q3 12 15 12h259q12 0 10 -12l-43 -303q-1 -12 -13 -12z" />
    <glyph glyph-name="H" unicode="H" horiz-adv-x="820" 
d="M760 0h-241q-11 0 -10 12l7 51q2 12 14 12h76l35 245h-372l-34 -245h77q12 0 11 -12l-7 -51q-2 -12 -15 -12h-240q-13 0 -11 12l7 51q1 12 14 12h77l80 568h-77q-11 0 -10 12l7 51q2 12 14 12h240q12 0 11 -12l-7 -51q-2 -12 -14 -12h-77l-35 -250h371l35 250h-76
q-12 0 -11 12l7 51q2 12 14 12h241q13 0 11 -12l-7 -51q-1 -12 -14 -12h-78l-79 -568h77q13 0 10 -12l-7 -51q-2 -12 -14 -12z" />
    <glyph glyph-name="I" unicode="I" horiz-adv-x="362" 
d="M301 0h-240q-13 0 -11 12l7 51q1 12 14 12h77l80 568h-77q-11 0 -10 12l7 51q2 12 14 12h240q14 0 11 -12l-7 -51q-2 -12 -14 -12h-77l-80 -568h77q12 0 11 -12l-7 -51q-2 -12 -15 -12z" />
    <glyph glyph-name="J" unicode="J" horiz-adv-x="484" 
d="M296 262l54 381h-77q-11 0 -10 12l7 51q2 12 14 12h240q14 0 11 -12l-7 -51q-2 -12 -14 -12h-77l-52 -372q-20 -146 -98.5 -208.5t-225.5 -62.5q-13 0 -11 12l8 51q2 12 13 12q111 0 161.5 45.5t63.5 141.5z" />
    <glyph glyph-name="K" unicode="K" horiz-adv-x="763" 
d="M702 0h-87q-36 0 -52 48l-68 191q-5 16 -10.5 25t-25.5 18t-53 9h-141l-30 -216h92q13 0 11 -12l-7 -51q-1 -12 -15 -12h-255q-13 0 -11 12l7 51q1 12 14 12h77l80 568h-77q-11 0 -10 12l7 51q2 12 14 12h224q12 0 11 -12l-7 -51q-2 -12 -15 -12h-60l-40 -281h105
q106 0 166.5 62.5t82.5 218.5h-69q-12 0 -10 12l7 51q1 12 14 12h223q12 0 11 -12l-7 -51q-2 -12 -15 -12h-68q-34 -241 -181 -315q16 -8 27 -21.5t15 -23.5t13 -35l63 -173h61q13 0 10 -12l-7 -51q-2 -12 -14 -12z" />
    <glyph glyph-name="L" unicode="L" horiz-adv-x="670" 
d="M608 0h-547q-13 0 -11 12l7 51q1 12 14 12h77l80 568h-77q-11 0 -10 12l7 51q2 12 14 12h239q14 0 12 -13l-7 -49q-2 -13 -15 -13h-76l-80 -568h318l14 98q1 12 14 12h55q12 0 10 -12l-22 -160q-2 -13 -16 -13z" />
    <glyph glyph-name="M" unicode="M" horiz-adv-x="919" 
d="M859 0h-231q-12 0 -10 12l7 51q1 12 14 12h67l70 498h-1l-256 -472q-17 -30 -49 -30t-39 30l-124 472h-2l-70 -498h67q12 0 11 -12l-7 -51q-2 -12 -15 -12h-230q-13 0 -11 12l7 51q1 12 14 12h77l80 568h-77q-11 0 -10 12l7 51q2 12 14 12h154q33 0 43 -34l98 -360
l30 -126h3q39 78 64 124l200 362q18 34 53 34h153q12 0 11 -12l-7 -51q-2 -12 -15 -12h-76l-80 -568h77q13 0 10 -12l-7 -51q-1 -12 -14 -12z" />
    <glyph glyph-name="N" unicode="N" horiz-adv-x="820" 
d="M670 0h-54q-19 0 -28.5 7.5t-17.5 23.5l-226 452l-38 84h-2l-69 -492h77q12 0 11 -12l-7 -51q-2 -12 -15 -12h-240q-13 0 -11 12l7 51q1 12 14 12h77l80 568h-77q-11 0 -10 12l7 51q2 12 14 12h140q30 0 46 -34l223 -446l43 -97h2l70 502h-76q-12 0 -11 12l7 51
q2 12 14 12h241q13 0 11 -12l-7 -51q-1 -12 -14 -12h-78l-88 -631q-1 -12 -15 -12z" />
    <glyph glyph-name="O" unicode="O" horiz-adv-x="793" 
d="M396 -7q-133 0 -217.5 88.5t-84.5 230.5q0 93 35 172.5t92.5 131t129.5 80t147 28.5q128 0 215 -84t87 -226q0 -184 -118.5 -302.5t-285.5 -118.5zM407 74q73 0 139.5 36.5t112.5 113.5t46 179q0 114 -65 178t-153 64q-51 0 -102.5 -21t-96 -60.5t-72 -104t-27.5 -143.5
q0 -113 63.5 -177.5t154.5 -64.5z" />
    <glyph glyph-name="P" unicode="P" horiz-adv-x="658" 
d="M322 0h-261q-13 0 -11 12l7 51q1 12 14 12h77l80 568h-77q-11 0 -10 12l7 51q2 12 14 12h308q95 0 153.5 -53t58.5 -144q0 -116 -76 -183t-209 -67h-134l-28 -196h97q12 0 11 -12l-7 -51q-2 -12 -14 -12zM273 342h130q91 0 141 42.5t50 128.5q0 65 -42 97.5t-107 32.5
h-130z" />
    <glyph glyph-name="Q" unicode="Q" horiz-adv-x="790" 
d="M712 -26l9 -40q2 -11 -9 -16q-54 -27 -130 -27q-52 0 -97.5 11.5t-74 28.5t-48.5 33.5t-29 28t-8 11.5q-104 19 -167.5 102.5t-63.5 204.5q0 94 35 173.5t92.5 131t129.5 80t147 28.5q128 0 215 -84t87 -226q0 -172 -106 -288t-262 -130q63 -38 160 -38q59 0 107 20
q12 4 13 -4zM408 77q53 0 105 21.5t95.5 61t70 103t26.5 140.5q0 114 -65 176.5t-153 62.5q-51 0 -102.5 -20.5t-96 -59.5t-72 -103t-27.5 -143q0 -113 64 -176t155 -63z" />
    <glyph glyph-name="R" unicode="R" horiz-adv-x="715" 
d="M655 0h-87q-36 0 -52 48l-68 191q-9 26 -20.5 38t-35.5 12h-127l-30 -214h89q12 0 11 -12l-7 -51q-2 -12 -14 -12h-253q-13 0 -11 12l7 51q1 12 14 12h77l80 568h-77q-11 0 -10 12l7 51q2 12 14 12h308q97 0 155 -48.5t58 -137.5q0 -88 -45.5 -146t-130.5 -80
q18 -15 37 -67l61 -164h60q13 0 11 -12l-7 -51q-1 -12 -14 -12zM275 360h128q192 0 192 162q0 121 -153 121h-127z" />
    <glyph glyph-name="S" unicode="S" horiz-adv-x="666" 
d="M117 0h-56q-13 0 -11 12l33 234q2 13 14 13h63q13 0 11 -13l-3 -21q-1 -6 3.5 -21.5t17.5 -38t33.5 -42.5t57 -34.5t81.5 -14.5q84 0 133 35.5t49 97.5q0 30 -22 50.5t-57.5 33t-78 23t-85 24.5t-78 33.5t-57.5 54t-22 81.5q0 92 73 154.5t190 62.5q137 0 187 -79l7 62
q2 12 14 12h57q11 0 10 -12l-30 -218q-3 -12 -15 -12h-63q-11 0 -10 12l4 28q5 41 -34.5 83t-128.5 42q-72 0 -118.5 -35.5t-46.5 -88.5q0 -43 42 -69t102 -40.5t120 -32.5t102 -58t42 -102q0 -93 -71.5 -158t-209.5 -65q-92 0 -146.5 37t-75.5 80l-13 -98q-1 -12 -14 -12z
" />
    <glyph glyph-name="T" unicode="T" horiz-adv-x="727" 
d="M478 0h-233q-13 0 -11 13l7 49q2 13 15 13h76l80 568h-190l-15 -106q-2 -14 -15 -14h-57q-13 0 -11 14l24 168q2 13 15 13h603q14 0 12 -13l-24 -168q-2 -14 -15 -14h-57q-13 0 -11 14l15 106h-187l-80 -568h70q14 0 12 -13l-7 -49q-2 -13 -16 -13z" />
    <glyph glyph-name="U" unicode="U" horiz-adv-x="814" 
d="M626 260l53 383h-76q-13 0 -11 12l7 51q1 12 14 12h241q12 0 11 -12l-7 -51q-2 -12 -14 -12h-77l-53 -374q-19 -136 -99 -206t-208 -70q-129 0 -190 70.5t-42 205.5l52 374h-77q-12 0 -10 12l7 51q1 12 14 12h241q13 0 10 -12l-7 -51q-1 -12 -14 -12h-77l-53 -377
q-26 -192 157 -192q94 0 145 49.5t63 136.5z" />
    <glyph glyph-name="V" unicode="V" horiz-adv-x="848" 
d="M444 0h-39q-19 0 -27.5 9t-14.5 31l-148 603h-65q-12 0 -10 12l7 51q1 12 14 12h225q12 0 11 -12l-7 -51q-2 -12 -14 -12h-69l128 -537h6l279 537h-69q-11 0 -10 12l7 51q2 12 14 12h226q13 0 10 -12l-7 -51q-1 -12 -14 -12h-66l-316 -603q-11 -22 -21 -31t-30 -9z" />
    <glyph glyph-name="W" unicode="W" horiz-adv-x="1094" 
d="M748 0h-38q-39 0 -42 40l-45 508h-2l-186 -508q-16 -40 -53 -40h-37q-36 0 -42 40l-99 603h-64q-12 0 -10 12l7 51q1 12 14 12h226q13 0 10 -12l-7 -51q-2 -12 -14 -12h-70l79 -537h6l225 612h81l53 -612h6l230 537h-70q-12 0 -10 12l7 51q1 12 14 12h225q12 0 11 -12
l-7 -51q-2 -12 -14 -12h-64l-268 -603q-18 -40 -52 -40z" />
    <glyph glyph-name="X" unicode="X" horiz-adv-x="814" 
d="M746 0h-241q-11 0 -10 12l7 51q2 12 14 12h66l-133 233l-204 -233h67q12 0 11 -12l-7 -51q-2 -12 -15 -12h-240q-13 0 -11 12l7 51q1 12 14 12h78l256 287l-177 281h-77q-11 0 -10 12l7 51q2 12 14 12h240q12 0 11 -12l-7 -51q-2 -12 -14 -12h-69l140 -226l201 226h-61
q-13 0 -11 12l7 51q1 12 14 12h241q12 0 11 -12l-7 -51q-2 -12 -14 -12h-84l-254 -281l171 -287h79q12 0 11 -12l-7 -51q-2 -12 -14 -12z" />
    <glyph glyph-name="Y" unicode="Y" horiz-adv-x="759" 
d="M500 0h-241q-13 0 -11 12l7 51q1 12 15 12h76l30 214q-1 1 -30 70t-67.5 156.5t-60.5 127.5h-68q-12 0 -10 12l7 51q1 12 14 12h225q12 0 11 -12l-7 -51q-2 -12 -14 -12h-66l118 -278h6l194 278h-65q-13 0 -11 12l7 51q1 12 14 12h226q13 0 11 -12l-7 -51q-1 -12 -15 -12
h-68q-33 -40 -96.5 -127.5t-111.5 -156.5l-49 -69l-30 -215h77q12 0 11 -12l-7 -51q-2 -12 -14 -12z" />
    <glyph glyph-name="Z" unicode="Z" horiz-adv-x="641" 
d="M580 0h-518q-14 0 -12 13l7 43q1 11 24 34l484 553h-342l-12 -81q-2 -14 -15 -14h-57q-6 0 -9 4t-2 10l19 143q3 13 16 13h518q14 0 12 -13l-6 -37q-3 -18 -26 -41l-483 -552h342l12 81q2 14 15 14h57q13 0 11 -14l-20 -143q-2 -13 -15 -13z" />
    <glyph glyph-name="bracketleft" unicode="[" horiz-adv-x="304" 
d="M242 -71h-201q-13 0 -11 12l115 813q1 12 13 12h202q14 0 12 -14l-8 -52q-2 -13 -14 -13h-131l-96 -679h131q13 0 11 -14l-7 -52q-2 -13 -16 -13z" />
    <glyph glyph-name="backslash" unicode="\" horiz-adv-x="405" 
d="M228 748l129 -810q1 -12 -12 -12h-59q-12 0 -13 12l-129 810q-2 12 11 12h59q12 0 14 -12z" />
    <glyph glyph-name="bracketright" unicode="]" horiz-adv-x="304" 
d="M372 754l-114 -813q-2 -12 -15 -12h-201q-14 0 -12 13l7 52q3 14 16 14h131l95 679h-130q-14 0 -12 13l8 52q2 14 14 14h202q13 0 11 -12z" />
    <glyph glyph-name="underscore" unicode="_" horiz-adv-x="554" 
d="M488 -100h-451q-13 0 -11 13l7 51q2 13 15 13h451q14 0 12 -13l-8 -51q-2 -13 -15 -13z" />
    <glyph glyph-name="grave" unicode="`" horiz-adv-x="291" 
d="M337 604l-30 -29q-9 -10 -19 -2l-149 134q-8 8 2 19l36 37q9 11 20 2l140 -142q10 -9 0 -19z" />
    <glyph glyph-name="a" unicode="a" horiz-adv-x="580" 
d="M529 0h-87q-22 0 -31 9.5t-6 32.5l7 51h-2q-85 -101 -209 -101q-65 0 -105.5 33t-40.5 89q0 90 78.5 133t213.5 43h84l2 12q20 125 -113 125q-30 0 -56.5 -4.5t-44 -11.5t-30 -14t-19 -11.5t-7.5 -4.5q-11 -4 -15 3l-23 35q-5 8 4 16q9 9 25.5 20.5t67.5 27.5t111 16
q211 0 182 -200l-33 -232h57q11 0 10 -12l-6 -43q-1 -12 -14 -12zM411 149l11 81h-79q-46 0 -79 -3.5t-62 -13.5t-44 -29.5t-15 -49.5q0 -31 25 -51t68 -20q98 0 175 86z" />
    <glyph glyph-name="b" unicode="b" 
d="M170 0h-51q-11 0 -10 12l90 639h-56q-14 0 -11 12l6 43q2 12 14 12h123q14 0 11 -12l-37 -266l-9 -42h2q24 41 69.5 71t109.5 30q89 0 140.5 -58t51.5 -153q0 -130 -75.5 -212.5t-189.5 -82.5q-63 0 -101 29.5t-49 71.5h-2l-11 -82q-1 -12 -15 -12zM347 63q77 0 130 61
t53 153q0 70 -36.5 111t-94.5 41q-72 0 -126.5 -59.5t-54.5 -153.5q0 -70 35.5 -111.5t93.5 -41.5z" />
    <glyph glyph-name="c" unicode="c" horiz-adv-x="539" 
d="M486 144l24 -28q9 -9 1 -18q-9 -12 -24 -26.5t-43 -34t-70.5 -32t-90.5 -12.5q-94 0 -153.5 58.5t-59.5 159.5q0 131 84 209.5t192 78.5q107 0 149 -74h1l7 55q2 13 14 13h38q13 0 11 -13l-24 -170q-2 -12 -14 -12h-45q-13 0 -11 12l2 17q5 36 -30.5 69t-96.5 33
q-70 0 -131 -56.5t-61 -151.5q0 -73 42 -115.5t101 -42.5q53 0 103 27.5t67 50.5q9 11 18 3z" />
    <glyph glyph-name="d" unicode="d" horiz-adv-x="612" 
d="M562 0h-87q-23 0 -31.5 9.5t-5.5 32.5l7 56h-1q-22 -42 -70.5 -73.5t-111.5 -31.5q-88 0 -140 58t-52 156q0 126 75.5 209t189.5 83q61 0 98.5 -28.5t49.5 -69.5h1q1 20 3 33l31 217h-56q-12 0 -11 12l6 43q1 12 14 12h124q13 0 11 -12l-90 -639h56q12 0 11 -12l-7 -43
q-2 -12 -14 -12zM284 63q75 0 128 60t53 154q0 71 -36.5 111.5t-93.5 40.5q-74 0 -128 -58.5t-54 -152.5q0 -70 36 -112.5t95 -42.5z" />
    <glyph glyph-name="e" unicode="e" horiz-adv-x="538" 
d="M517 236h-360q-8 -83 34 -128t107 -45q57 0 103.5 26t66.5 51q9 10 18 3l24 -27q9 -9 1 -18q-8 -11 -24.5 -26t-45 -34t-70.5 -32t-88 -13q-93 0 -153 59t-60 159q0 88 41.5 155.5t103.5 100t130 32.5q91 0 141.5 -53.5t50.5 -148.5q0 -61 -20 -61zM167 297h290
q5 62 -26 99t-94 37q-57 0 -104.5 -34t-65.5 -102z" />
    <glyph glyph-name="f" unicode="f" horiz-adv-x="387" 
d="M279 0h-226q-13 0 -11 12l7 43q1 12 13 12h56l51 358h-58q-13 0 -11 12l6 43q2 12 14 12h58l9 62q11 83 59.5 126.5t124.5 43.5q61 0 96 -40q9 -8 0 -17l-29 -31q-9 -9 -17 -2q-24 19 -52 19q-40 0 -66.5 -25.5t-33.5 -74.5l-8 -61h128q11 0 10 -12l-6 -43
q-1 -12 -14 -12h-127l-51 -358h88q13 0 11 -12l-7 -43q-1 -12 -14 -12z" />
    <glyph glyph-name="g" unicode="g" horiz-adv-x="611" 
d="M235 -234q-24 0 -45.5 2.5t-37.5 7t-31 10t-24.5 11t-18.5 12t-13.5 10.5t-8.5 9l-5 4q-9 10 -1 18l31 37q7 9 17 1l6 -4q5 -5 10 -9t13.5 -9.5t20 -10t25.5 -8.5t32.5 -6.5t38.5 -2.5q72 0 120 34.5t59 108.5l16 109q-25 -41 -70 -69t-107 -28q-90 0 -141.5 59
t-51.5 155q0 129 75.5 210.5t188.5 81.5q62 0 100.5 -28.5t52.5 -69.5h2l10 79q2 12 13 12h118q13 0 11 -12l-6 -43q-2 -12 -15 -12h-54l-62 -444q-15 -107 -88 -161t-180 -54zM284 63q73 0 127 61.5t54 152.5q0 70 -36.5 111t-93.5 41q-76 0 -129.5 -59.5t-53.5 -153.5
q0 -69 36.5 -111t95.5 -42z" />
    <glyph glyph-name="h" unicode="h" horiz-adv-x="621" 
d="M570 0h-95q-22 0 -31 9.5t-6 32.5l36 263q8 57 -14.5 89.5t-74.5 32.5q-21 0 -41 -8.5t-35 -21.5t-28.5 -29.5t-23 -32.5t-16.5 -29.5t-10 -21.5l-3 -8l-29 -209h53q12 0 11 -12l-6 -43q-1 -12 -15 -12h-191q-13 0 -11 12l7 43q1 12 13 12h56l82 584h-55q-14 0 -11 12
l6 43q2 12 14 12h126q12 0 11 -12l-32 -227q-1 -7 -5.5 -32.5t-9.5 -49.5t-5 -26h2q1 5 4.5 13.5t17 31t31 39t50 30.5t71.5 14q80 0 119 -47t28 -127l-36 -258h56q12 0 11 -12l-6 -43q-1 -12 -15 -12z" />
    <glyph glyph-name="i" unicode="i" horiz-adv-x="293" 
d="M242 0h-191q-13 0 -11 12l7 43q1 12 13 12h56l51 358h-56q-13 0 -11 12l6 43q2 12 14 12h126q12 0 11 -12l-58 -413h53q12 0 11 -12l-6 -43q-1 -12 -15 -12zM288 607q0 -25 -20 -43.5t-45 -18.5q-21 0 -34.5 14t-13.5 35q0 25 19 44t45 19q21 0 35 -14.5t14 -35.5z" />
    <glyph glyph-name="j" unicode="j" horiz-adv-x="326" 
d="M373 607q0 -25 -20 -43.5t-45 -18.5q-21 0 -34.5 14t-13.5 35q0 25 19 44t45 19q21 0 35 -14.5t14 -35.5zM181 -63l68 488h-57q-12 0 -10 12l6 43q2 12 14 12h127q13 0 10 -12l-76 -544q-12 -83 -60.5 -126.5t-124.5 -43.5q-61 0 -95 39q-9 9 1 19l27 30q10 10 19 2
q19 -19 50 -19q41 0 67.5 25.5t33.5 74.5z" />
    <glyph glyph-name="k" unicode="k" horiz-adv-x="614" 
d="M570 0h-54q-29 0 -48 31l-144 240l-109 -90l-16 -114h53q12 0 11 -12l-6 -43q-1 -12 -15 -12h-191q-13 0 -11 12l7 43q1 12 13 12h56l82 584h-55q-14 0 -11 12l6 43q2 12 14 12h126q12 0 11 -12l-63 -448l206 167h-37q-13 0 -11 12l6 43q3 12 15 12h192q11 0 10 -12
l-6 -43q-1 -12 -14 -12h-65l-137 -107l151 -251h44q12 0 11 -12l-7 -43q-2 -12 -14 -12z" />
    <glyph glyph-name="l" unicode="l" horiz-adv-x="293" 
d="M242 0h-191q-13 0 -11 12l7 43q1 12 13 12h56l83 584h-56q-14 0 -11 12l6 43q2 12 14 12h111q28 0 24 -25l-88 -626h53q12 0 11 -12l-6 -43q-1 -12 -15 -12z" />
    <glyph glyph-name="m" unicode="m" horiz-adv-x="931" 
d="M748 42l36 263q8 57 -15 89.5t-73 32.5q-79 0 -138 -110l-2 -13l-32 -237h56q12 0 11 -12l-7 -43q-2 -12 -14 -12h-191q-13 0 -11 12l7 43q1 12 13 12h53l33 238q8 57 -15 89.5t-73 32.5q-34 0 -64.5 -20t-49.5 -48.5t-28.5 -47t-13.5 -29.5v-1l-31 -214h48q13 0 11 -12
l-6 -43q-2 -12 -14 -12h-187q-13 0 -11 12l7 43q1 12 13 12h56l51 358h-56q-13 0 -11 12l6 43q2 12 14 12h98q18 0 24 -6t4 -24l-15 -102h3l5 15t17 33t32.5 42.5t52 33.5t73.5 15q62 0 98.5 -29t45.5 -79q54 108 166 108q81 0 118.5 -48t26.5 -126l-35 -258h56q12 0 11 -12
l-6 -43q-1 -12 -15 -12h-95q-23 0 -31.5 9.5t-5.5 32.5z" />
    <glyph glyph-name="n" unicode="n" horiz-adv-x="621" 
d="M570 0h-95q-22 0 -31 9.5t-6 32.5l36 263q8 57 -15 89.5t-73 32.5q-34 0 -65 -20.5t-50 -50t-29 -48.5t-14 -30v-1l-29 -210h53q12 0 11 -12l-6 -43q-1 -12 -15 -12h-191q-13 0 -11 12l7 43q1 12 13 12h56l51 358h-56q-13 0 -11 12l6 43q2 12 14 12h118q12 0 10 -12
l-18 -120h3q1 6 4.5 15t17.5 33t32.5 42.5t52 33.5t74.5 15q80 0 118.5 -47t27.5 -127l-36 -258h56q12 0 11 -12l-6 -43q-1 -12 -15 -12z" />
    <glyph glyph-name="o" unicode="o" horiz-adv-x="575" 
d="M286 -7q-96 0 -156 59.5t-60 159.5q0 129 84.5 208t203.5 79q96 0 156 -58.5t60 -157.5q0 -128 -83 -209t-205 -81zM296 63q76 0 135 59.5t59 151.5q0 70 -41 112.5t-101 42.5q-76 0 -135 -58.5t-59 -150.5q0 -71 40.5 -114t101.5 -43z" />
    <glyph glyph-name="p" unicode="p" 
d="M220 -225h-201q-13 0 -11 12l7 43q1 12 13 12h57l82 583h-54q-13 0 -11 12l6 43q2 12 14 12h117q14 0 11 -12l-13 -83h2q61 102 180 102q89 0 141 -57.5t52 -154.5q0 -126 -74 -210t-189 -84q-62 0 -99.5 28.5t-49.5 69.5h-3q-2 -32 -4 -46l-28 -203h65q12 0 10 -12
l-5 -43q-1 -12 -15 -12zM347 63q75 0 129 60t54 153q0 70 -36 111.5t-95 41.5q-72 0 -127.5 -57.5t-55.5 -160.5q0 -68 38 -108t93 -40z" />
    <glyph glyph-name="q" unicode="q" 
d="M531 -225h-201q-12 0 -11 12l6 43q1 12 13 12h66l29 208l9 45h-2q-24 -42 -70.5 -72t-107.5 -30q-89 0 -140.5 59t-51.5 155q0 130 75 211t189 81q62 0 100.5 -28.5t51.5 -68.5h2l10 78q2 12 14 12h51q13 0 11 -12l-90 -638h56q12 0 11 -12l-6 -43q-3 -12 -14 -12z
M284 63q74 0 127.5 59.5t53.5 154.5q0 71 -36 111.5t-93 40.5q-76 0 -129.5 -59t-53.5 -153q0 -70 36 -112t95 -42z" />
    <glyph glyph-name="r" unicode="r" horiz-adv-x="421" 
d="M242 0h-191q-13 0 -11 12l7 43q1 12 13 12h56l51 358h-56q-13 0 -11 12l6 43q2 12 14 12h118q13 0 10 -12l-17 -125h3q2 6 6.5 15t23.5 33t43 42.5t67 33.5t94 15q13 0 11 -13l-8 -53q-2 -13 -14 -13h-21q-86 0 -145 -55t-69 -125l-23 -168h53q12 0 11 -12l-6 -43
q-1 -12 -15 -12z" />
    <glyph glyph-name="s" unicode="s" horiz-adv-x="486" 
d="M259 -7q-67 0 -103 25t-44 47h-2q-5 -49 -5 -52q-2 -13 -16 -13h-34q-13 0 -11 13l21 150q2 13 15 13h39q14 0 12 -13l-3 -20q1 -3 2.5 -9t10.5 -20.5t22 -26t38 -20.5t57 -9q57 0 88 23t31 61q0 25 -28 40.5t-68 25t-80 22t-68 40.5t-28 71q0 71 54.5 114.5t134.5 43.5
q99 0 133 -58h2q3 32 3 33q1 17 16 17h32q13 0 11 -13l-20 -139q-2 -13 -16 -13h-39q-13 0 -11 13l2 14q5 27 -23.5 53.5t-89.5 26.5q-43 0 -75 -23t-32 -62q0 -26 28.5 -43t69.5 -27.5t82 -23t69.5 -39t28.5 -67.5q0 -64 -51.5 -109.5t-154.5 -45.5z" />
    <glyph glyph-name="t" unicode="t" horiz-adv-x="401" 
d="M360 82l20 -31q6 -9 -6 -19q-49 -39 -106 -39q-76 0 -112.5 43.5t-24.5 126.5l37 262h-57q-14 0 -12 13l6 41q2 13 16 13h56l14 101q2 14 16 14h56q14 0 12 -14l-15 -101h127q14 0 11 -13l-5 -41q-2 -13 -16 -13h-126l-36 -260q-15 -101 70 -101q31 0 57 21q13 3 18 -3z
" />
    <glyph glyph-name="u" unicode="u" horiz-adv-x="608" 
d="M557 0h-87q-22 0 -31.5 9.5t-6.5 32.5l15 91h-3q-1 -6 -4.5 -15.5t-17 -33.5t-31.5 -42.5t-51 -33.5t-73 -15q-80 0 -120 47.5t-29 126.5l35 258h-56q-13 0 -11 12l7 43q1 12 13 12h96q22 0 31.5 -9.5t6.5 -32.5l-38 -263q-8 -57 15.5 -89.5t73.5 -32.5q31 0 59 16
t45.5 38t30.5 45.5t18.5 38.5t5.5 17l28 205h-53q-13 0 -11 12l7 43q1 12 13 12h124q12 0 11 -12l-58 -413h56q11 0 10 -12l-6 -43q-1 -12 -14 -12z" />
    <glyph glyph-name="v" unicode="v" horiz-adv-x="588" 
d="M326 0h-67q-10 0 -14 3.5t-6 14.5l-101 407h-56q-12 0 -11 12l7 43q2 12 13 12h186q11 0 10 -12l-5 -43q-2 -12 -15 -12h-44l81 -337h2l177 337h-45q-12 0 -10 12l6 43q2 12 14 12h186q12 0 11 -12l-6 -43q-1 -12 -14 -12h-56l-217 -407q-10 -18 -26 -18z" />
    <glyph glyph-name="w" unicode="w" horiz-adv-x="812" 
d="M576 0h-59q-21 0 -21 21l-37 335h-3l-132 -335q-7 -21 -28 -21h-58q-18 0 -21 21l-75 404h-56q-12 0 -11 12l7 43q2 12 13 12h187q12 0 10 -12l-6 -43q-2 -12 -14 -12h-46l54 -337h2l135 337h-38q-13 0 -11 12l7 43q1 12 13 12h176q12 0 11 -12l-7 -43q-2 -12 -14 -12
h-39l42 -337h2l146 337h-45q-12 0 -10 12l6 43q2 12 14 12h186q12 0 11 -12l-6 -43q-1 -12 -15 -12h-54l-189 -404q-9 -21 -27 -21z" />
    <glyph glyph-name="x" unicode="x" horiz-adv-x="557" 
d="M523 0h-188q-11 0 -10 12l6 43q1 12 14 12h50l-97 145l-131 -145h45q12 0 11 -12l-6 -43q-1 -12 -14 -12h-169q-12 0 -10 12l6 43q2 12 14 12h48l172 184l-121 174h-48q-13 0 -11 12l6 43q2 12 14 12h187q13 0 11 -12l-6 -43q-3 -12 -14 -12h-47l98 -143l121 143h-39
q-13 0 -11 12l6 43q2 12 14 12h169q11 0 10 -12l-6 -43q-3 -12 -14 -12h-53l-162 -185l121 -173h43q12 0 11 -12l-6 -43q-1 -12 -14 -12z" />
    <glyph glyph-name="y" unicode="y" horiz-adv-x="590" 
d="M238 -63l37 74h-12q-10 0 -15 5.5t-8 19.5l-98 389h-55q-13 0 -11 12l6 43q2 12 14 12h181q13 0 10 -12l-5 -43q-2 -12 -15 -12h-40l81 -339h2l167 339h-45q-12 0 -10 12l6 43q2 12 14 12h186q12 0 10 -12l-5 -43q-1 -12 -15 -12h-55l-248 -489q-45 -89 -86 -129.5
t-107 -40.5q-61 0 -95 39q-9 9 -1 18l30 32q6 6 17 2q25 -20 51 -20q37 0 61 22t53 78z" />
    <glyph glyph-name="z" unicode="z" horiz-adv-x="519" 
d="M468 0h-417q-13 0 -11 12l6 41q3 20 20 34l371 338h-270l-11 -77q-2 -12 -15 -12h-43q-12 0 -10 12l18 132q2 12 14 12h418q13 0 10 -12l-5 -35q-3 -19 -19 -32l-376 -346h274l11 79q1 12 14 12h44q13 0 10 -12l-18 -134q-1 -12 -15 -12z" />
    <glyph glyph-name="braceleft" unicode="{" horiz-adv-x="341" 
d="M301 -7l-7 -52q-2 -13 -15 -13q-168 0 -146 156l16 120q7 50 -13 82.5t-40 32.5q-13 0 -11 14l4 31q2 13 16 13q21 1 49.5 33t35.5 83l16 114q24 158 190 158q14 0 12 -13l-7 -52q-2 -13 -16 -13q-44 0 -66.5 -20.5t-29.5 -66.5l-15 -106q-5 -40 -26 -72t-39 -44l-18 -13
l-5 -34q2 -2 6 -5t13.5 -14.5t16.5 -25t10.5 -36t0.5 -47.5l-15 -112q-7 -46 10 -65.5t62 -19.5q13 0 11 -13z" />
    <glyph glyph-name="bar" unicode="|" horiz-adv-x="160" 
d="M91 -131h-59q-12 0 -11 12l122 867q1 12 15 12h59q11 0 10 -12l-122 -867q-1 -12 -14 -12z" />
    <glyph glyph-name="braceright" unicode="}" horiz-adv-x="341" 
d="M41 -72q-13 0 -11 13l7 52q2 13 15 13q45 0 67.5 19.5t28.5 65.5l16 112q3 25 13 47.5t21.5 36.5t22.5 24.5t19 14.5l7 5l5 34q-2 2 -6 5t-14.5 14.5t-15.5 25.5t-11 36.5t0 47.5l15 106q7 46 -10 66.5t-62 20.5q-14 0 -12 13l8 52q2 13 15 13q75 0 116.5 -36.5
t29.5 -121.5l-16 -114q-7 -51 13 -83t40 -32q13 0 11 -14l-4 -31q-2 -14 -15 -14q-20 0 -49.5 -32.5t-36.5 -82.5l-17 -120q-21 -156 -190 -156z" />
    <glyph glyph-name="exclamdown" unicode="&#xa1;" horiz-adv-x="182" 
d="M83 -268h-60q-11 0 -10 12l83 588q2 12 13 12h60q13 0 11 -12l-83 -588q-1 -12 -14 -12zM213 494q0 -24 -18 -41.5t-43 -17.5q-20 0 -33 13.5t-13 33.5q0 24 18.5 41.5t42.5 17.5q20 0 33 -13.5t13 -33.5z" />
    <glyph glyph-name="cent" unicode="&#xa2;" horiz-adv-x="539" 
d="M298 -13h-43q-13 0 -11 12l8 54q-78 11 -126 68t-48 147q0 120 72.5 196.5t171.5 88.5l10 71q2 12 15 12h43q12 0 10 -12l-10 -73q90 -13 113 -70h3l5 56q1 12 14 12h38q13 0 11 -12l-24 -170q-2 -12 -14 -12h-45q-13 0 -11 12l2 17q5 35 -30.5 68t-96.5 33
q-70 0 -131 -56.5t-61 -151.5q0 -73 40.5 -115t99.5 -42q57 0 106.5 27t66.5 51q10 10 18 3l24 -29q9 -7 1 -18q-11 -15 -32.5 -34t-68.5 -41.5t-99 -27.5l-7 -52q-2 -12 -14 -12z" />
    <glyph glyph-name="sterling" unicode="&#xa3;" horiz-adv-x="598" 
d="M548 0h-488q-12 0 -10 12l7 48q3 16 14 22q1 1 18.5 11.5t29 18.5t29.5 24.5t29.5 32t20 38.5t8.5 47q0 22 -5 42h-109q-12 0 -10 12l5 37q1 12 14 12h73q-27 60 -27 114q0 118 81 185.5t206 67.5q103 0 155.5 -55.5t39.5 -150.5l-2 -16q-1 -12 -15 -12h-61q-11 0 -10 12
l2 17q7 55 -25.5 91t-94.5 36q-70 0 -127.5 -44t-57.5 -128q0 -13 2 -25t7 -26.5t7.5 -20.5t11 -24t9.5 -21h190q11 0 10 -12l-5 -37q-2 -12 -14 -12h-162q3 -16 3 -40q-3 -100 -115 -181h376q12 0 11 -12l-7 -51q-2 -12 -14 -12z" />
    <glyph glyph-name="yen" unicode="&#xa5;" horiz-adv-x="759" 
d="M500 0h-241q-13 0 -11 12l7 51q1 12 15 12h76l20 140h-125q-13 0 -11 13l6 39q2 12 14 12h113l4 26l-22 50h-125q-12 0 -10 13l5 39q3 12 14 12h84l-95 224h-68q-12 0 -10 12l7 51q1 12 14 12h225q12 0 11 -12l-7 -51q-2 -12 -14 -12h-66l118 -278h6l194 278h-65
q-13 0 -11 12l7 51q1 12 14 12h226q13 0 11 -12l-7 -51q-1 -12 -15 -12h-68l-158 -224h81q13 0 11 -12l-6 -39q-2 -13 -14 -13h-121l-37 -50l-4 -26h109q11 0 10 -12l-5 -39q-2 -13 -14 -13h-119l-20 -140h77q12 0 11 -12l-7 -51q-2 -12 -14 -12z" />
    <glyph glyph-name="brokenbar" unicode="&#xa6;" horiz-adv-x="160" 
d="M167 410h-59q-13 0 -10 12l45 326q1 12 15 12h59q11 0 10 -12l-46 -326q-1 -12 -14 -12zM91 -131h-59q-12 0 -11 12l46 326q1 12 14 12h60q11 0 10 -12l-46 -326q-1 -12 -14 -12z" />
    <glyph glyph-name="section" unicode="&#xa7;" horiz-adv-x="646" 
d="M75 -224h-56q-13 0 -11 12l33 234q1 12 14 12h63q12 0 11 -12l-3 -22q-1 -7 3.5 -22.5t18 -38t34 -42t56.5 -33.5t81 -14q84 0 133 35t49 97q0 31 -22 53.5t-57.5 35.5t-78 24t-85 25t-78 32.5t-57.5 52t-22 78.5q0 77 57 137q-26 34 -26 86q0 93 73.5 155.5t190.5 62.5
q136 0 186 -79l8 62q2 12 14 12h56q13 0 10 -12l-30 -218q-2 -12 -14 -12h-63q-13 0 -11 12l4 25q6 41 -33 84.5t-130 43.5q-71 0 -117.5 -35.5t-46.5 -88.5q0 -33 22.5 -57t58.5 -38t79.5 -25.5t87 -25.5t79.5 -32t58.5 -49.5t22.5 -74.5q0 -79 -58 -141q27 -35 27 -84
q0 -92 -71.5 -157t-210.5 -65q-92 0 -146.5 36.5t-74.5 79.5h-2l-11 -97q-2 -12 -15 -12zM497 124q35 35 35 83q0 38 -33.5 63t-76.5 35.5t-101 27.5t-90 36q-34 -34 -34 -75q0 -40 33.5 -67t76.5 -38.5t100.5 -28.5t89.5 -36z" />
    <glyph glyph-name="dieresis" unicode="&#xa8;" horiz-adv-x="313" 
d="M204 603q0 -19 -14.5 -33t-34.5 -14q-16 0 -26 10t-10 27q0 19 14.5 33.5t33.5 14.5q16 0 26.5 -11t10.5 -27zM362 603q0 -19 -14.5 -33t-34.5 -14q-16 0 -26 10t-10 27q0 19 14.5 33.5t33.5 14.5q16 0 26.5 -11t10.5 -27z" />
    <glyph glyph-name="copyright" unicode="&#xa9;" horiz-adv-x="670" 
d="M684 381q0 -131 -105 -230.5t-237 -99.5q-109 0 -183.5 77t-74.5 187q0 131 104.5 230.5t237.5 99.5q109 0 183.5 -77t74.5 -187zM631 376q0 92 -60 154t-152 62q-112 0 -197 -81t-85 -191q0 -92 60.5 -154t152.5 -62q111 0 196 81t85 191zM481 283l25 -18q7 -5 2 -12
q-10 -15 -25 -29.5t-50.5 -31.5t-75.5 -17q-62 0 -102 40.5t-40 109.5q0 91 57.5 146.5t134.5 55.5q40 0 70.5 -17t41 -31.5t16.5 -29.5q3 -6 -4 -12l-32 -20q-7 -5 -10 2q-20 52 -90 52q-50 0 -87 -37t-37 -103q0 -48 26 -74t66 -26q64 0 103 49q5 8 11 3z" />
    <glyph glyph-name="ordfeminine" unicode="&#xaa;" horiz-adv-x="328" 
d="M191 471q-34 0 -56 17t-22 48q0 40 32 61.5t90 21.5h60v3q2 32 -7 46t-44 14q-13 0 -25 -2t-20 -5t-14 -6.5t-9 -5.5l-4 -2q-4 -2 -7 2l-12 21q-4 5 1 7q32 33 98 33q104 0 90 -104l-15 -106h29q4 0 4 -5l-4 -28q-2 -6 -6 -6h-49q-22 0 -19 21l2 13h-1q-45 -38 -92 -38z
M208 512q44 0 76 32l6 44h-56q-70 0 -70 -42q0 -16 12 -25t32 -9z" />
    <glyph glyph-name="guillemotleft" unicode="&#xab;" horiz-adv-x="521" 
d="M280 61l-199 152q-12 10 -10 23l3 22q1 11 17 21l241 153q5 3 9.5 2.5t3.5 -7.5l-6 -44q-4 -15 -17 -22l-180 -115l148 -114q13 -11 10 -22l-6 -44q-1 -6 -5.5 -7.5t-8.5 2.5zM477 61l-199 152q-12 10 -10 23l4 22q2 13 16 21l241 153q5 3 9.5 2.5t3.5 -7.5l-6 -44
q-2 -13 -16 -22l-181 -115l149 -114q11 -11 10 -22l-7 -44q-2 -15 -14 -5z" />
    <glyph glyph-name="logicalnot" unicode="&#xac;" horiz-adv-x="565" 
d="M533 141h-46q-13 0 -11 12l25 171h-404q-14 0 -12 13l6 43q2 13 15 13h462q13 0 11 -13l-31 -227q-2 -12 -15 -12z" />
    <glyph glyph-name="registered" unicode="&#xae;" horiz-adv-x="670" 
d="M684 381q0 -131 -105 -230.5t-237 -99.5q-109 0 -183.5 77t-74.5 187q0 131 104.5 230.5t237.5 99.5q109 0 183.5 -77t74.5 -187zM349 100q113 0 199 82.5t86 194.5q0 92 -61 155.5t-154 63.5q-113 0 -199.5 -82.5t-86.5 -193.5q0 -93 61.5 -156.5t154.5 -63.5zM505 179
h-46q-15 0 -22 22l-38 99q-7 22 -22 22h-52l-14 -97h37q5 0 5 -5l-4 -35q-1 -6 -7 -6h-117q-5 0 -4 6l5 35q2 5 6 5h31l35 255h-30q-6 0 -4 6l4 35q2 5 6 5h148q45 0 73 -22t28 -65q0 -89 -84 -111q1 -2 13 -30l28 -72h31q5 0 5 -5l-5 -36q-1 -6 -6 -6zM331 365h65
q76 0 76 67q0 48 -59 48h-66z" />
    <glyph glyph-name="macron" unicode="&#xaf;" horiz-adv-x="392" 
d="M421 554h-295q-13 0 -11 13l6 42q2 14 15 14h295q14 0 12 -14l-6 -42q-2 -13 -16 -13z" />
    <glyph glyph-name="degree" unicode="&#xb0;" horiz-adv-x="220" 
d="M169 419q-26 0 -44 17t-18 48q0 37 25 62t58 25q28 0 45.5 -18.5t17.5 -47.5q0 -40 -25 -63t-59 -23zM174 457q16 0 28.5 12t12.5 32q0 14 -8.5 23t-21.5 9q-15 0 -27 -12.5t-12 -30.5q0 -15 8 -24t20 -9z" />
    <glyph glyph-name="plusminus" unicode="&#xb1;" horiz-adv-x="401" 
d="M395 329h-105l-16 -107q-2 -13 -14 -13h-57q-13 0 -11 13l16 107h-110q-13 0 -11 13l7 51q2 13 14 13h110l15 110q3 12 15 12h57q11 0 10 -12l-15 -110h106q14 0 12 -13l-7 -51q-2 -13 -16 -13zM362 91h-298q-13 0 -11 13l7 51q2 13 15 13h297q14 0 12 -13l-7 -51
q-2 -13 -15 -13z" />
    <glyph glyph-name="acute" unicode="&#xb4;" horiz-adv-x="291" 
d="M350 706l-186 -134q-13 -7 -20 3l-20 29q-8 9 5 19l180 141q10 9 20 -1l25 -38q8 -9 -4 -19z" />
    <glyph glyph-name="paragraph" unicode="&#xb6;" horiz-adv-x="663" 
d="M546 -78h-63q-11 0 -10 12l99 709h-71l-100 -709q-1 -12 -14 -12h-62q-13 0 -11 12l42 302h-40q-100 0 -157.5 49.5t-57.5 147.5q0 136 77 210.5t196 74.5h340q12 0 10 -12l-7 -51q-1 -12 -14 -12h-43l-100 -709q-2 -12 -14 -12z" />
    <glyph glyph-name="periodcentered" unicode="&#xb7;" horiz-adv-x="151" 
d="M129 296q0 -22 -16.5 -37.5t-37.5 -15.5q-19 0 -30.5 11.5t-11.5 29.5q0 22 16 37.5t38 15.5q18 0 30 -12t12 -29z" />
    <glyph glyph-name="cedilla" unicode="&#xb8;" horiz-adv-x="236" 
d="M91 -156q-35 0 -69 23q-9 7 0 16l12 12q9 8 16 3q16 -13 43 -13q48 0 48 37q0 22 -46 22q-24 0 -17 17l28 57l42 -1l-20 -42q62 0 62 -48q0 -37 -27 -60t-72 -23z" />
    <glyph glyph-name="ordmasculine" unicode="&#xba;" horiz-adv-x="317" 
d="M226 471q-45 0 -75 30t-30 80q0 65 41.5 104t98.5 39q45 0 74.5 -29t29.5 -78q0 -64 -41.5 -105t-97.5 -41zM232 513q36 0 62.5 26.5t26.5 71.5q0 34 -18.5 53t-46.5 19q-35 0 -63 -26.5t-28 -71.5q0 -33 19 -52.5t48 -19.5z" />
    <glyph glyph-name="guillemotright" unicode="&#xbb;" horiz-adv-x="521" 
d="M258 61q-5 -3 -9.5 -2.5t-3.5 7.5l7 44q2 12 16 22l181 114l-149 115q-13 11 -10 22l6 44q2 15 14 5l199 -153q13 -9 10 -21l-3 -22q-2 -13 -16 -23zM61 61q-5 -3 -9.5 -2.5t-3.5 7.5l6 44q1 11 16 22l182 114l-149 115q-13 9 -11 22l7 44q1 6 5 7.5t8 -2.5l199 -153
q13 -9 11 -21l-3 -22q-3 -14 -17 -23z" />
    <glyph glyph-name="onehalf" unicode="&#xbd;" horiz-adv-x="703" 
d="M227 -74h-59q-12 0 -7 12l356 810q6 12 18 12h59q13 0 7 -12l-356 -810q-5 -12 -18 -12zM655 0h-243q-10 0 -9 10l3 21q7 42 33.5 71t59 44t64.5 28.5t53.5 34t21.5 51.5q0 24 -16 37.5t-43 13.5q-78 0 -86 -62q-1 -8 -8 -8h-39q-6 0 -6 7q0 42 38.5 78t107.5 36
q54 0 82 -26.5t28 -67.5t-21 -70t-52.5 -45t-63.5 -29.5t-58 -32t-32 -43.5h152l5 35q1 8 9 8h35q7 0 7 -8l-11 -73q-1 -10 -11 -10zM312 362h-190q-9 0 -8 10l3 29q1 9 12 9h72l35 250l-80 -55q-6 -4 -10 1l-17 28q-3 4 4 10l108 74q5 3 13 3h39q7 0 7 -9l-42 -302h61
q9 0 8 -9l-3 -29q-1 -10 -12 -10z" />
    <glyph glyph-name="questiondown" unicode="&#xbf;" horiz-adv-x="582" 
d="M317 323h69q10 0 10 -10q0 -65 -29.5 -114.5t-71 -80t-83.5 -57.5t-71.5 -62t-29.5 -78q0 -52 39 -83.5t108 -31.5q81 0 127 40t56 105q1 12 14 12h63q11 0 11 -10q0 -37 -16 -75t-48 -73t-88.5 -57t-129.5 -22q-109 0 -169 51t-60 130q0 62 28.5 109.5t69.5 78.5
t82.5 59.5t71.5 68t32 88.5q2 12 15 12zM314 440q0 24 18.5 41.5t42.5 17.5q20 0 33 -13.5t13 -33.5q0 -24 -18.5 -41.5t-42.5 -17.5q-20 0 -33 13.5t-13 33.5z" />
    <glyph glyph-name="Agrave" unicode="&#xc0;" horiz-adv-x="841" 
d="M768 0h-226q-12 0 -10 12l7 51q1 12 14 12h69l-40 173h-279l-89 -173h70q13 0 10 -12l-7 -51q-1 -12 -14 -12h-225q-12 0 -10 12l7 51q1 12 14 12h67l295 568h-55q-12 0 -10 12l7 51q1 12 14 12h136q24 0 35.5 -10t17.5 -33l145 -600h67q12 0 11 -12l-7 -51
q-2 -12 -14 -12zM566 317l-70 297h-4l-152 -297h226zM613 830l-30 -29q-9 -10 -19 -2l-149 134q-8 8 2 19l36 37q9 11 20 2l140 -142q10 -9 0 -19z" />
    <glyph glyph-name="Aacute" unicode="&#xc1;" horiz-adv-x="841" 
d="M768 0h-226q-12 0 -10 12l7 51q1 12 14 12h69l-40 173h-279l-89 -173h70q13 0 10 -12l-7 -51q-1 -12 -14 -12h-225q-12 0 -10 12l7 51q1 12 14 12h67l295 568h-55q-12 0 -10 12l7 51q1 12 14 12h136q24 0 35.5 -10t17.5 -33l145 -600h67q12 0 11 -12l-7 -51
q-2 -12 -14 -12zM566 317l-70 297h-4l-152 -297h226zM702 932l-186 -134q-13 -7 -20 3l-20 29q-8 9 5 19l180 141q10 9 20 -1l25 -38q8 -9 -4 -19z" />
    <glyph glyph-name="Acircumflex" unicode="&#xc2;" horiz-adv-x="841" 
d="M768 0h-226q-12 0 -10 12l7 51q1 12 14 12h69l-40 173h-279l-89 -173h70q13 0 10 -12l-7 -51q-1 -12 -14 -12h-225q-12 0 -10 12l7 51q1 12 14 12h67l295 568h-55q-12 0 -10 12l7 51q1 12 14 12h136q24 0 35.5 -10t17.5 -33l145 -600h67q12 0 11 -12l-7 -51
q-2 -12 -14 -12zM566 317l-70 297h-4l-152 -297h226zM690 830l-29 -29q-10 -10 -19 -2l-109 105l-137 -105q-12 -9 -19 2l-21 29q-7 10 5 19l174 136q5 4 11 4q5 0 9 -5l135 -135q8 -9 0 -19z" />
    <glyph glyph-name="Atilde" unicode="&#xc3;" horiz-adv-x="841" 
d="M768 0h-226q-12 0 -10 12l7 51q1 12 14 12h69l-40 173h-279l-89 -173h70q13 0 10 -12l-7 -51q-1 -12 -14 -12h-225q-12 0 -10 12l7 51q1 12 14 12h67l295 568h-55q-12 0 -10 12l7 51q1 12 14 12h136q24 0 35.5 -10t17.5 -33l145 -600h67q12 0 11 -12l-7 -51
q-2 -12 -14 -12zM566 317l-70 297h-4l-152 -297h226zM653 910h24q11 0 10 -11q-3 -51 -28 -82.5t-75 -31.5q-25 0 -45 10t-30.5 21.5t-24.5 21.5t-29 10q-21 0 -33 -12.5t-16 -44.5q-2 -12 -14 -12h-23q-11 0 -11 10q0 45 25.5 77.5t75.5 32.5q23 0 42.5 -10.5t30 -22.5
t25.5 -22.5t31 -10.5q24 0 35 14t16 51q1 12 14 12z" />
    <glyph glyph-name="Adieresis" unicode="&#xc4;" horiz-adv-x="841" 
d="M768 0h-226q-12 0 -10 12l7 51q1 12 14 12h69l-40 173h-279l-89 -173h70q13 0 10 -12l-7 -51q-1 -12 -14 -12h-225q-12 0 -10 12l7 51q1 12 14 12h67l295 568h-55q-12 0 -10 12l7 51q1 12 14 12h136q24 0 35.5 -10t17.5 -33l145 -600h67q12 0 11 -12l-7 -51
q-2 -12 -14 -12zM566 317l-70 297h-4l-152 -297h226zM486 829q0 -19 -14.5 -33t-34.5 -14q-16 0 -26 10t-10 27q0 19 14.5 33.5t33.5 14.5q16 0 26.5 -11t10.5 -27zM644 829q0 -19 -14.5 -33t-34.5 -14q-16 0 -26 10t-10 27q0 19 14.5 33.5t33.5 14.5q16 0 26.5 -11
t10.5 -27z" />
    <glyph glyph-name="Aring" unicode="&#xc5;" horiz-adv-x="841" 
d="M768 0h-226q-12 0 -10 12l7 51q1 12 14 12h69l-40 173h-279l-89 -173h70q13 0 10 -12l-7 -51q-1 -12 -14 -12h-225q-12 0 -10 12l7 51q1 12 14 12h67l295 568h-55q-12 0 -10 12l7 51q1 12 14 12h136q24 0 35.5 -10t17.5 -33l145 -600h67q12 0 11 -12l-7 -51
q-2 -12 -14 -12zM566 317l-70 297h-4l-152 -297h226zM569 834q-11 -22 -35 -30.5t-47 1.5q-18 13 -20.5 35.5t10.5 41.5q11 22 35.5 30.5t46.5 -1.5q18 -13 20.5 -36t-10.5 -41zM549 852q4 10 0 20t-14 14q-12 4 -23.5 -2.5t-14.5 -19.5q-5 -10 -0.5 -20t14.5 -14
q12 -4 23 2.5t15 19.5z" />
    <glyph glyph-name="AE" unicode="&#xc6;" horiz-adv-x="1044" 
d="M984 0h-532q-12 0 -10 12l7 51q1 12 14 12h76l35 245h-208l-140 -245h70q12 0 11 -12l-7 -51q-2 -12 -15 -12h-224q-13 0 -11 12l7 51q1 12 14 12h68l321 568h-54q-12 0 -10 12l7 51q1 12 13 12h669q13 0 11 -12l-23 -161q-2 -13 -14 -13h-54q-13 0 -11 13l14 98h-302
l-35 -248h254q13 0 11 -12l-7 -51q-1 -12 -15 -12h-253l-35 -245h302l13 98q3 12 15 12h54q12 0 11 -12l-23 -161q-2 -12 -14 -12zM584 395l35 248h-71l-142 -248h178z" />
    <glyph glyph-name="Ccedilla" unicode="&#xc7;" horiz-adv-x="752" 
d="M351 -156q-35 0 -69 23q-9 7 0 16l12 12q9 8 16 3q16 -13 43 -13q48 0 48 37q0 22 -46 22q-24 0 -17 17l16 34q-116 11 -188 96t-72 218q0 125 57.5 221.5t146 145t188.5 48.5q154 0 209 -107l11 89q2 12 15 12h56q13 0 11 -12l-31 -218q-2 -13 -14 -13h-63q-13 0 -11 13
l1 9q5 46 -49.5 95.5t-141.5 49.5q-51 0 -102 -20.5t-94 -59.5t-69.5 -103t-26.5 -143q0 -113 63 -176t152 -63q168 0 263 126q10 15 19 6l39 -28q7 -7 -1 -20q-9 -14 -21.5 -29.5t-42 -41.5t-64 -45.5t-87.5 -34.5t-111 -16l-8 -19q62 0 62 -48q0 -37 -27 -60t-72 -23z" />
    <glyph glyph-name="Egrave" unicode="&#xc8;" horiz-adv-x="653" 
d="M592 0h-531q-13 0 -11 12l7 51q1 12 14 12h77l80 568h-77q-11 0 -10 12l7 51q2 12 14 12h531q14 0 11 -12l-23 -161q-2 -13 -13 -13h-54q-14 0 -11 13l13 98h-301l-35 -248h253q13 0 11 -12l-7 -51q-1 -12 -14 -12h-254l-34 -245h301l14 98q2 12 14 12h55q11 0 10 -12
l-22 -161q-1 -12 -15 -12zM522 830l-30 -29q-9 -10 -19 -2l-149 134q-8 8 2 19l36 37q9 11 20 2l140 -142q10 -9 0 -19z" />
    <glyph glyph-name="Eacute" unicode="&#xc9;" horiz-adv-x="653" 
d="M572 932l-186 -134q-13 -7 -20 3l-20 29q-8 9 5 19l180 141q10 9 20 -1l25 -38q8 -9 -4 -19zM592 0h-531q-13 0 -11 12l7 51q1 12 14 12h77l80 568h-77q-11 0 -10 12l7 51q2 12 14 12h531q14 0 11 -12l-23 -161q-2 -13 -13 -13h-54q-14 0 -11 13l13 98h-301l-35 -248h253
q13 0 11 -12l-7 -51q-1 -12 -14 -12h-254l-34 -245h301l14 98q2 12 14 12h55q11 0 10 -12l-22 -161q-1 -12 -15 -12z" />
    <glyph glyph-name="Ecircumflex" unicode="&#xca;" horiz-adv-x="653" 
d="M589 830l-29 -29q-10 -10 -19 -2l-109 105l-137 -105q-12 -9 -19 2l-21 29q-7 10 5 19l174 136q5 4 11 4q5 0 9 -5l135 -135q8 -9 0 -19zM592 0h-531q-13 0 -11 12l7 51q1 12 14 12h77l80 568h-77q-11 0 -10 12l7 51q2 12 14 12h531q14 0 11 -12l-23 -161q-2 -13 -13 -13
h-54q-14 0 -11 13l13 98h-301l-35 -248h253q13 0 11 -12l-7 -51q-1 -12 -14 -12h-254l-34 -245h301l14 98q2 12 14 12h55q11 0 10 -12l-22 -161q-1 -12 -15 -12z" />
    <glyph glyph-name="Edieresis" unicode="&#xcb;" horiz-adv-x="653" 
d="M400 829q0 -19 -14.5 -33t-34.5 -14q-16 0 -26 10t-10 27q0 19 14.5 33.5t33.5 14.5q16 0 26.5 -11t10.5 -27zM558 829q0 -19 -14.5 -33t-34.5 -14q-16 0 -26 10t-10 27q0 19 14.5 33.5t33.5 14.5q16 0 26.5 -11t10.5 -27zM592 0h-531q-13 0 -11 12l7 51q1 12 14 12h77
l80 568h-77q-11 0 -10 12l7 51q2 12 14 12h531q14 0 11 -12l-23 -161q-2 -13 -13 -13h-54q-14 0 -11 13l13 98h-301l-35 -248h253q13 0 11 -12l-7 -51q-1 -12 -14 -12h-254l-34 -245h301l14 98q2 12 14 12h55q11 0 10 -12l-22 -161q-1 -12 -15 -12z" />
    <glyph glyph-name="Igrave" unicode="&#xcc;" horiz-adv-x="378" 
d="M317 0h-240q-13 0 -11 12l7 51q1 12 14 12h77l80 568h-77q-11 0 -10 12l7 51q2 12 14 12h240q14 0 11 -12l-7 -51q-2 -12 -14 -12h-77l-80 -568h77q12 0 11 -12l-7 -51q-2 -12 -15 -12zM362 808l-30 -29q-9 -10 -19 -2l-149 134q-8 8 2 19l36 37q9 11 20 2l140 -142
q10 -9 0 -19z" />
    <glyph glyph-name="Iacute" unicode="&#xcd;" horiz-adv-x="391" 
d="M301 0h-240q-13 0 -11 12l7 51q1 12 14 12h77l80 568h-77q-11 0 -10 12l7 51q2 12 14 12h240q14 0 11 -12l-7 -51q-2 -12 -14 -12h-77l-80 -568h77q12 0 11 -12l-7 -51q-2 -12 -15 -12zM465 908l-186 -134q-13 -7 -20 3l-20 29q-8 9 5 19l180 141q10 9 20 -1l25 -38
q8 -9 -4 -19z" />
    <glyph glyph-name="Icircumflex" unicode="&#xce;" horiz-adv-x="381" 
d="M309 0h-240q-13 0 -11 12l7 51q1 12 14 12h77l80 568h-77q-11 0 -10 12l7 51q2 12 14 12h240q14 0 11 -12l-7 -51q-2 -12 -14 -12h-77l-80 -568h77q12 0 11 -12l-7 -51q-2 -12 -15 -12zM475 830l-29 -29q-10 -10 -19 -2l-109 105l-137 -105q-12 -9 -19 2l-21 29
q-7 10 5 19l174 136q5 4 11 4q5 0 9 -5l135 -135q8 -9 0 -19z" />
    <glyph glyph-name="Idieresis" unicode="&#xcf;" horiz-adv-x="362" 
d="M301 0h-240q-13 0 -11 12l7 51q1 12 14 12h77l80 568h-77q-11 0 -10 12l7 51q2 12 14 12h240q14 0 11 -12l-7 -51q-2 -12 -14 -12h-77l-80 -568h77q12 0 11 -12l-7 -51q-2 -12 -15 -12zM262 829q0 -19 -14.5 -33t-34.5 -14q-16 0 -26 10t-10 27q0 19 14.5 33.5t33.5 14.5
q16 0 26.5 -11t10.5 -27zM420 829q0 -19 -14.5 -33t-34.5 -14q-16 0 -26 10t-10 27q0 19 14.5 33.5t33.5 14.5q16 0 26.5 -11t10.5 -27z" />
    <glyph glyph-name="Eth" unicode="&#xd0;" horiz-adv-x="741" 
d="M348 0h-287q-13 0 -11 12l8 51q2 12 14 12h76l35 249h-68q-14 0 -12 13l6 42q2 14 15 14h69l35 250h-77q-11 0 -10 12l7 51q2 12 14 12h269q148 0 232.5 -80t84.5 -222q0 -188 -110 -302t-290 -114zM235 75h100q156 0 239 86t83 246q0 112 -62 174t-184 62h-96l-35 -250
h152q14 0 12 -14l-6 -42q-2 -13 -15 -13h-153z" />
    <glyph glyph-name="Ntilde" unicode="&#xd1;" horiz-adv-x="820" 
d="M670 0h-54q-19 0 -28.5 7.5t-17.5 23.5l-226 452l-38 84h-2l-69 -492h77q12 0 11 -12l-7 -51q-2 -12 -15 -12h-240q-13 0 -11 12l7 51q1 12 14 12h77l80 568h-77q-11 0 -10 12l7 51q2 12 14 12h140q30 0 46 -34l223 -446l43 -97h2l70 502h-76q-12 0 -11 12l7 51
q2 12 14 12h241q13 0 11 -12l-7 -51q-1 -12 -14 -12h-78l-88 -631q-1 -12 -15 -12zM667 910h24q11 0 10 -11q-3 -51 -28 -82.5t-75 -31.5q-25 0 -45 10t-30.5 21.5t-24.5 21.5t-29 10q-21 0 -33 -12.5t-16 -44.5q-2 -12 -14 -12h-23q-11 0 -11 10q0 45 25.5 77.5t75.5 32.5
q23 0 42.5 -10.5t30 -22.5t25.5 -22.5t31 -10.5q24 0 35 14t16 51q1 12 14 12z" />
    <glyph glyph-name="Ograve" unicode="&#xd2;" horiz-adv-x="793" 
d="M396 -7q-133 0 -217.5 88.5t-84.5 230.5q0 93 35 172.5t92.5 131t129.5 80t147 28.5q128 0 215 -84t87 -226q0 -184 -118.5 -302.5t-285.5 -118.5zM407 74q73 0 139.5 36.5t112.5 113.5t46 179q0 114 -65 178t-153 64q-51 0 -102.5 -21t-96 -60.5t-72 -104t-27.5 -143.5
q0 -113 63.5 -177.5t154.5 -64.5zM592 830l-30 -29q-9 -10 -19 -2l-149 134q-8 8 2 19l36 37q9 11 20 2l140 -142q10 -9 0 -19z" />
    <glyph glyph-name="Oacute" unicode="&#xd3;" horiz-adv-x="793" 
d="M629 932l-186 -134q-13 -7 -20 3l-20 29q-8 9 5 19l180 141q10 9 20 -1l25 -38q8 -9 -4 -19zM396 -7q-133 0 -217.5 88.5t-84.5 230.5q0 93 35 172.5t92.5 131t129.5 80t147 28.5q128 0 215 -84t87 -226q0 -184 -118.5 -302.5t-285.5 -118.5zM407 74q73 0 139.5 36.5
t112.5 113.5t46 179q0 114 -65 178t-153 64q-51 0 -102.5 -21t-96 -60.5t-72 -104t-27.5 -143.5q0 -113 63.5 -177.5t154.5 -64.5z" />
    <glyph glyph-name="Ocircumflex" unicode="&#xd4;" horiz-adv-x="793" 
d="M679 830l-29 -29q-10 -10 -19 -2l-109 105l-137 -105q-12 -9 -19 2l-21 29q-7 10 5 19l174 136q5 4 11 4q5 0 9 -5l135 -135q8 -9 0 -19zM396 -7q-133 0 -217.5 88.5t-84.5 230.5q0 93 35 172.5t92.5 131t129.5 80t147 28.5q128 0 215 -84t87 -226q0 -184 -118.5 -302.5
t-285.5 -118.5zM407 74q73 0 139.5 36.5t112.5 113.5t46 179q0 114 -65 178t-153 64q-51 0 -102.5 -21t-96 -60.5t-72 -104t-27.5 -143.5q0 -113 63.5 -177.5t154.5 -64.5z" />
    <glyph glyph-name="Otilde" unicode="&#xd5;" horiz-adv-x="793" 
d="M396 -7q-133 0 -217.5 88.5t-84.5 230.5q0 93 35 172.5t92.5 131t129.5 80t147 28.5q128 0 215 -84t87 -226q0 -184 -118.5 -302.5t-285.5 -118.5zM407 74q73 0 139.5 36.5t112.5 113.5t46 179q0 114 -65 178t-153 64q-51 0 -102.5 -21t-96 -60.5t-72 -104t-27.5 -143.5
q0 -113 63.5 -177.5t154.5 -64.5zM652 910h24q11 0 10 -11q-3 -51 -28 -82.5t-75 -31.5q-25 0 -45 10t-30.5 21.5t-24.5 21.5t-29 10q-21 0 -33 -12.5t-16 -44.5q-1 -12 -14 -12h-23q-11 0 -11 10q0 45 25.5 77.5t75.5 32.5q23 0 42.5 -10.5t30 -22.5t25.5 -22.5t31 -10.5
q23 0 34.5 14t16.5 51q2 12 14 12z" />
    <glyph glyph-name="Odieresis" unicode="&#xd6;" horiz-adv-x="793" 
d="M475 829q0 -19 -14.5 -33t-34.5 -14q-16 0 -26 10t-10 27q0 19 14 33.5t34 14.5q16 0 26.5 -11t10.5 -27zM633 829q0 -19 -14.5 -33t-34.5 -14q-16 0 -26 10t-10 27q0 19 14 33.5t34 14.5q16 0 26.5 -11t10.5 -27zM396 -7q-133 0 -217.5 88.5t-84.5 230.5q0 93 35 172.5
t92.5 131t129.5 80t147 28.5q128 0 215 -84t87 -226q0 -184 -118.5 -302.5t-285.5 -118.5zM407 74q73 0 139.5 36.5t112.5 113.5t46 179q0 114 -65 178t-153 64q-51 0 -102.5 -21t-96 -60.5t-72 -104t-27.5 -143.5q0 -113 63.5 -177.5t154.5 -64.5z" />
    <glyph glyph-name="multiply" unicode="&#xd7;" horiz-adv-x="352" 
d="M336 203l-45 -40q-9 -8 -17 0l-64 75l-89 -78q-11 -8 -18 0l-31 36q-8 10 3 20l87 77l-67 78q-7 9 2 18l46 40q9 9 17 0l67 -80l87 77q11 10 19 0l31 -36q7 -11 -4 -19l-85 -76l64 -74q7 -9 -3 -18z" />
    <glyph glyph-name="Oslash" unicode="&#xd8;" horiz-adv-x="793" 
d="M301 -51h-60q-13 0 -7 12l26 60q-77 35 -121.5 112t-44.5 179q0 93 35 172.5t92.5 131t129.5 80t147 28.5q33 0 67 -8l25 55q4 12 18 12h59q11 0 7 -12l-34 -78q73 -34 116.5 -107.5t43.5 -172.5q0 -183 -118.5 -301.5t-285.5 -118.5q-31 0 -61 8l-17 -40q-6 -12 -17 -12
zM297 107l234 529q-24 8 -53 8q-50 -2 -99.5 -23.5t-92.5 -60.5t-70 -103t-27 -141q0 -76 29.5 -129.5t78.5 -79.5zM370 81q22 -6 49 -6q51 0 101.5 22t92 62.5t67 104t25.5 139.5q0 72 -28.5 124.5t-74.5 78.5z" />
    <glyph glyph-name="Ugrave" unicode="&#xd9;" horiz-adv-x="814" 
d="M626 260l53 383h-76q-13 0 -11 12l7 51q1 12 14 12h241q12 0 11 -12l-7 -51q-2 -12 -14 -12h-77l-53 -374q-19 -136 -99 -206t-208 -70q-129 0 -190 70.5t-42 205.5l52 374h-77q-12 0 -10 12l7 51q1 12 14 12h241q13 0 10 -12l-7 -51q-1 -12 -14 -12h-77l-53 -377
q-26 -192 157 -192q94 0 145 49.5t63 136.5zM633 830l-30 -29q-9 -10 -19 -2l-149 134q-8 8 2 19l36 37q9 11 20 2l140 -142q10 -9 0 -19z" />
    <glyph glyph-name="Uacute" unicode="&#xda;" horiz-adv-x="814" 
d="M676 932l-186 -134q-13 -7 -20 3l-20 29q-8 9 5 19l180 141q10 9 20 -1l25 -38q8 -9 -4 -19zM626 260l53 383h-76q-13 0 -11 12l7 51q1 12 14 12h241q12 0 11 -12l-7 -51q-2 -12 -14 -12h-77l-53 -374q-19 -136 -99 -206t-208 -70q-129 0 -190 70.5t-42 205.5l52 374h-77
q-12 0 -10 12l7 51q1 12 14 12h241q13 0 10 -12l-7 -51q-1 -12 -14 -12h-77l-53 -377q-26 -192 157 -192q94 0 145 49.5t63 136.5z" />
    <glyph glyph-name="Ucircumflex" unicode="&#xdb;" horiz-adv-x="814" 
d="M691 830l-29 -29q-10 -10 -19 -2l-109 105l-137 -105q-12 -9 -19 2l-21 29q-7 10 5 19l174 136q5 4 11 4q5 0 9 -5l135 -135q8 -9 0 -19zM626 260l53 383h-76q-13 0 -11 12l7 51q1 12 14 12h241q12 0 11 -12l-7 -51q-2 -12 -14 -12h-77l-53 -374q-19 -136 -99 -206
t-208 -70q-129 0 -190 70.5t-42 205.5l52 374h-77q-12 0 -10 12l7 51q1 12 14 12h241q13 0 10 -12l-7 -51q-1 -12 -14 -12h-77l-53 -377q-26 -192 157 -192q94 0 145 49.5t63 136.5z" />
    <glyph glyph-name="Udieresis" unicode="&#xdc;" horiz-adv-x="814" 
d="M485 829q0 -19 -14.5 -33t-34.5 -14q-16 0 -26 10t-10 27q0 19 14 33.5t34 14.5q16 0 26.5 -11t10.5 -27zM643 829q0 -19 -14.5 -33t-34.5 -14q-16 0 -26 10t-10 27q0 19 14 33.5t34 14.5q16 0 26.5 -11t10.5 -27zM626 260l53 383h-76q-13 0 -11 12l7 51q1 12 14 12h241
q12 0 11 -12l-7 -51q-2 -12 -14 -12h-77l-53 -374q-19 -136 -99 -206t-208 -70q-129 0 -190 70.5t-42 205.5l52 374h-77q-12 0 -10 12l7 51q1 12 14 12h241q13 0 10 -12l-7 -51q-1 -12 -14 -12h-77l-53 -377q-26 -192 157 -192q94 0 145 49.5t63 136.5z" />
    <glyph glyph-name="Yacute" unicode="&#xdd;" horiz-adv-x="759" 
d="M500 0h-241q-13 0 -11 12l7 51q1 12 15 12h76l30 214q-1 1 -30 70t-67.5 156.5t-60.5 127.5h-68q-12 0 -10 12l7 51q1 12 14 12h225q12 0 11 -12l-7 -51q-2 -12 -14 -12h-66l118 -278h6l194 278h-65q-13 0 -11 12l7 51q1 12 14 12h226q13 0 11 -12l-7 -51q-1 -12 -15 -12
h-68q-33 -40 -96.5 -127.5t-111.5 -156.5l-49 -69l-30 -215h77q12 0 11 -12l-7 -51q-2 -12 -14 -12zM619 932l-186 -134q-13 -7 -20 3l-20 29q-8 9 5 19l180 141q10 9 20 -1l25 -38q8 -9 -4 -19z" />
    <glyph glyph-name="Thorn" unicode="&#xde;" horiz-adv-x="626" 
d="M296 0h-245q-13 0 -11 12l7 45q1 12 13 12h70l82 580h-68q-12 0 -10 12l6 45q2 12 14 12h139q14 0 11 -12l-17 -122h143q97 0 154.5 -48t57.5 -136q0 -116 -73 -178.5t-210 -62.5h-134l-13 -90h94q12 0 11 -12l-6 -45q-1 -12 -15 -12zM235 230h142q82 0 129.5 39
t47.5 121q0 61 -38.5 90t-99.5 29h-141z" />
    <glyph glyph-name="germandbls" unicode="&#xdf;" horiz-adv-x="697" 
d="M232 0h-181q-13 0 -11 12l7 45q1 12 13 12h58l58 413q16 111 88.5 176.5t166.5 65.5q78 0 117 -34t39 -86q0 -33 -11.5 -57t-28.5 -37.5t-37.5 -27t-37.5 -24.5t-28.5 -31t-11.5 -47t25.5 -46t62 -31.5t73 -27.5t62 -45.5t25.5 -74.5q0 -71 -66 -119t-157 -48
q-24 0 -45 3.5t-37 9.5t-29.5 15t-23 17.5t-18 20t-13 20t-9 19.5t-6 17l-3.5 14l-2 8q-3 11 10 17l37 16q15 5 16 -6l3 -9q3 -9 7 -19.5t14 -24t22.5 -24t33.5 -18t47 -7.5q54 0 92 26.5t38 64.5q0 30 -25 50t-61 32.5t-72 26t-61 41.5t-25 69q0 40 16 68.5t38.5 44
t45.5 28.5t39 31.5t16 44.5q0 28 -20.5 46.5t-61.5 18.5q-56 0 -102.5 -44.5t-57.5 -122.5l-58 -413h40q12 0 11 -12l-7 -45q-2 -12 -14 -12z" />
    <glyph glyph-name="agrave" unicode="&#xe0;" horiz-adv-x="580" 
d="M529 0h-87q-22 0 -31 9.5t-6 32.5l7 51h-2q-85 -101 -209 -101q-65 0 -105.5 33t-40.5 89q0 90 78.5 133t213.5 43h84l2 12q20 125 -113 125q-30 0 -56.5 -4.5t-44 -11.5t-30 -14t-19 -11.5t-7.5 -4.5q-11 -4 -15 3l-23 35q-5 8 4 16q9 9 25.5 20.5t67.5 27.5t111 16
q211 0 182 -200l-33 -232h57q11 0 10 -12l-6 -43q-1 -12 -14 -12zM411 149l11 81h-79q-46 0 -79 -3.5t-62 -13.5t-44 -29.5t-15 -49.5q0 -31 25 -51t68 -20q98 0 175 86zM454 604l-30 -29q-9 -10 -19 -2l-149 134q-8 8 2 19l36 37q9 11 20 2l140 -142q10 -9 0 -19z" />
    <glyph glyph-name="aacute" unicode="&#xe1;" horiz-adv-x="580" 
d="M529 0h-87q-22 0 -31 9.5t-6 32.5l7 51h-2q-85 -101 -209 -101q-65 0 -105.5 33t-40.5 89q0 90 78.5 133t213.5 43h84l2 12q20 125 -113 125q-30 0 -56.5 -4.5t-44 -11.5t-30 -14t-19 -11.5t-7.5 -4.5q-11 -4 -15 3l-23 35q-5 8 4 16q9 9 25.5 20.5t67.5 27.5t111 16
q211 0 182 -200l-33 -232h57q11 0 10 -12l-6 -43q-1 -12 -14 -12zM411 149l11 81h-79q-46 0 -79 -3.5t-62 -13.5t-44 -29.5t-15 -49.5q0 -31 25 -51t68 -20q98 0 175 86zM505 706l-186 -134q-13 -7 -20 3l-20 29q-8 9 5 19l180 141q10 9 20 -1l25 -38q8 -9 -4 -19z" />
    <glyph glyph-name="acircumflex" unicode="&#xe2;" horiz-adv-x="580" 
d="M529 0h-87q-22 0 -31 9.5t-6 32.5l7 51h-2q-85 -101 -209 -101q-65 0 -105.5 33t-40.5 89q0 90 78.5 133t213.5 43h84l2 12q20 125 -113 125q-30 0 -56.5 -4.5t-44 -11.5t-30 -14t-19 -11.5t-7.5 -4.5q-11 -4 -15 3l-23 35q-5 8 4 16q9 9 25.5 20.5t67.5 27.5t111 16
q211 0 182 -200l-33 -232h57q11 0 10 -12l-6 -43q-1 -12 -14 -12zM411 149l11 81h-79q-46 0 -79 -3.5t-62 -13.5t-44 -29.5t-15 -49.5q0 -31 25 -51t68 -20q98 0 175 86zM533 604l-29 -29q-10 -10 -19 -2l-109 105l-137 -105q-12 -9 -19 2l-21 29q-7 10 5 19l174 136
q5 4 11 4q5 0 9 -5l135 -135q8 -9 0 -19z" />
    <glyph glyph-name="atilde" unicode="&#xe3;" horiz-adv-x="580" 
d="M529 0h-87q-22 0 -31 9.5t-6 32.5l7 51h-2q-85 -101 -209 -101q-65 0 -105.5 33t-40.5 89q0 90 78.5 133t213.5 43h84l2 12q20 125 -113 125q-30 0 -56.5 -4.5t-44 -11.5t-30 -14t-19 -11.5t-7.5 -4.5q-11 -4 -15 3l-23 35q-5 8 4 16q9 9 25.5 20.5t67.5 27.5t111 16
q211 0 182 -200l-33 -232h57q11 0 10 -12l-6 -43q-1 -12 -14 -12zM411 149l11 81h-79q-46 0 -79 -3.5t-62 -13.5t-44 -29.5t-15 -49.5q0 -31 25 -51t68 -20q98 0 175 86zM498 684h24q11 0 10 -11q-3 -51 -28 -82.5t-75 -31.5q-25 0 -45 10t-30.5 21.5t-24.5 21.5t-29 10
q-21 0 -33 -12.5t-16 -44.5q-1 -12 -14 -12h-23q-11 0 -11 10q0 45 25.5 77.5t75.5 32.5q23 0 42.5 -10.5t30 -22.5t25.5 -22.5t31 -10.5q23 0 34.5 14t16.5 51q2 12 14 12z" />
    <glyph glyph-name="adieresis" unicode="&#xe4;" horiz-adv-x="580" 
d="M529 0h-87q-22 0 -31 9.5t-6 32.5l7 51h-2q-85 -101 -209 -101q-65 0 -105.5 33t-40.5 89q0 90 78.5 133t213.5 43h84l2 12q20 125 -113 125q-30 0 -56.5 -4.5t-44 -11.5t-30 -14t-19 -11.5t-7.5 -4.5q-11 -4 -15 3l-23 35q-5 8 4 16q9 9 25.5 20.5t67.5 27.5t111 16
q211 0 182 -200l-33 -232h57q11 0 10 -12l-6 -43q-1 -12 -14 -12zM411 149l11 81h-79q-46 0 -79 -3.5t-62 -13.5t-44 -29.5t-15 -49.5q0 -31 25 -51t68 -20q98 0 175 86zM338 603q0 -19 -14.5 -33t-34.5 -14q-16 0 -26 10t-10 27q0 19 14.5 33.5t33.5 14.5q16 0 26.5 -11
t10.5 -27zM496 603q0 -19 -14.5 -33t-34.5 -14q-16 0 -26 10t-10 27q0 19 14.5 33.5t33.5 14.5q16 0 26.5 -11t10.5 -27z" />
    <glyph glyph-name="aring" unicode="&#xe5;" horiz-adv-x="580" 
d="M529 0h-87q-22 0 -31 9.5t-6 32.5l7 51h-2q-85 -101 -209 -101q-65 0 -105.5 33t-40.5 89q0 90 78.5 133t213.5 43h84l2 12q20 125 -113 125q-30 0 -56.5 -4.5t-44 -11.5t-30 -14t-19 -11.5t-7.5 -4.5q-11 -4 -15 3l-23 35q-5 8 4 16q9 9 25.5 20.5t67.5 27.5t111 16
q211 0 182 -200l-33 -232h57q11 0 10 -12l-6 -43q-1 -12 -14 -12zM411 149l11 81h-79q-46 0 -79 -3.5t-62 -13.5t-44 -29.5t-15 -49.5q0 -31 25 -51t68 -20q98 0 175 86zM424 608q-11 -22 -35 -30.5t-47 1.5q-18 13 -20.5 35.5t10.5 41.5q11 22 35.5 30.5t46.5 -1.5
q18 -13 20.5 -36t-10.5 -41zM404 626q4 10 0 20t-14 14q-12 4 -23.5 -2.5t-14.5 -19.5q-5 -10 -0.5 -20t14.5 -14q12 -4 23 2.5t15 19.5z" />
    <glyph glyph-name="ae" unicode="&#xe6;" horiz-adv-x="890" 
d="M633 -8q-69 0 -120.5 31t-74.5 88q-37 -45 -97.5 -82t-141.5 -37q-65 0 -105.5 33t-40.5 89q0 90 78.5 133t213.5 43h84l2 13q20 124 -113 124q-30 0 -56.5 -4.5t-44 -11.5t-30 -14t-19 -11.5t-7.5 -4.5q-11 -4 -15 3l-23 35q-5 8 4 16q9 9 25.5 20.5t67.5 27.5t111 16
q142 0 170 -95q36 45 87.5 69.5t105.5 24.5q93 0 143 -53.5t50 -148.5q0 -61 -21 -61h-360q-8 -83 34.5 -128t107.5 -45q57 0 103.5 26t66.5 51q9 11 18 3l23 -27q9 -9 2 -18q-8 -11 -24.5 -26t-45 -34t-70.5 -32t-88 -13zM419 167q-3 24 2 69h-79q-201 0 -201 -102
q0 -31 25 -51t68 -20q27 0 53 7.5t44.5 18.5t35.5 24.5t27 24.5t18 20zM516 290h290q5 64 -25.5 103t-93.5 39q-56 0 -104.5 -36.5t-66.5 -105.5z" />
    <glyph glyph-name="ccedilla" unicode="&#xe7;" horiz-adv-x="539" 
d="M265 -156q-35 0 -69 23q-9 7 0 16l12 12q9 8 16 3q16 -13 43 -13q48 0 48 37q0 22 -46 22q-24 0 -17 17l16 33q-88 5 -143 62.5t-55 154.5q0 131 84 209.5t192 78.5q107 0 149 -74h1l7 55q2 13 14 13h38q13 0 11 -13l-24 -170q-2 -12 -14 -12h-45q-13 0 -11 12l2 17
q5 36 -30.5 69t-96.5 33q-70 0 -131 -56.5t-61 -151.5q0 -73 42 -115.5t101 -42.5q53 0 103 27.5t67 50.5q9 11 18 3l24 -28q9 -9 1 -18q-12 -16 -31.5 -34.5t-67 -41.5t-101.5 -27l-9 -20q62 0 62 -48q0 -37 -27 -60t-72 -23z" />
    <glyph glyph-name="egrave" unicode="&#xe8;" horiz-adv-x="538" 
d="M517 236h-360q-8 -83 34 -128t107 -45q57 0 103.5 26t66.5 51q9 10 18 3l24 -27q9 -9 1 -18q-8 -11 -24.5 -26t-45 -34t-70.5 -32t-88 -13q-93 0 -153 59t-60 159q0 88 41.5 155.5t103.5 100t130 32.5q91 0 141.5 -53.5t50.5 -148.5q0 -61 -20 -61zM167 297h290
q5 62 -26 99t-94 37q-57 0 -104.5 -34t-65.5 -102zM457 604l-30 -29q-9 -10 -19 -2l-149 134q-8 8 2 19l36 37q9 11 20 2l140 -142q10 -9 0 -19z" />
    <glyph glyph-name="eacute" unicode="&#xe9;" horiz-adv-x="538" 
d="M515 706l-186 -134q-13 -7 -20 3l-20 29q-8 9 5 19l180 141q10 9 20 -1l25 -38q8 -9 -4 -19zM517 236h-360q-8 -83 34 -128t107 -45q57 0 103.5 26t66.5 51q9 10 18 3l24 -27q9 -9 1 -18q-8 -11 -24.5 -26t-45 -34t-70.5 -32t-88 -13q-93 0 -153 59t-60 159
q0 88 41.5 155.5t103.5 100t130 32.5q91 0 141.5 -53.5t50.5 -148.5q0 -61 -20 -61zM167 297h290q5 62 -26 99t-94 37q-57 0 -104.5 -34t-65.5 -102z" />
    <glyph glyph-name="ecircumflex" unicode="&#xea;" horiz-adv-x="538" 
d="M528 604l-29 -29q-10 -10 -19 -2l-109 105l-137 -105q-12 -9 -19 2l-21 29q-7 10 5 19l174 136q5 4 11 4q5 0 9 -5l135 -135q8 -9 0 -19zM517 236h-360q-8 -83 34 -128t107 -45q57 0 103.5 26t66.5 51q9 10 18 3l24 -27q9 -9 1 -18q-8 -11 -24.5 -26t-45 -34t-70.5 -32
t-88 -13q-93 0 -153 59t-60 159q0 88 41.5 155.5t103.5 100t130 32.5q91 0 141.5 -53.5t50.5 -148.5q0 -61 -20 -61zM167 297h290q5 62 -26 99t-94 37q-57 0 -104.5 -34t-65.5 -102z" />
    <glyph glyph-name="edieresis" unicode="&#xeb;" horiz-adv-x="538" 
d="M320 603q0 -19 -14.5 -33t-34.5 -14q-16 0 -26 10t-10 27q0 19 14.5 33.5t33.5 14.5q16 0 26.5 -11t10.5 -27zM478 603q0 -19 -14.5 -33t-34.5 -14q-16 0 -26 10t-10 27q0 19 14.5 33.5t33.5 14.5q16 0 26.5 -11t10.5 -27zM517 236h-360q-8 -83 34 -128t107 -45
q57 0 103.5 26t66.5 51q9 10 18 3l24 -27q9 -9 1 -18q-8 -11 -24.5 -26t-45 -34t-70.5 -32t-88 -13q-93 0 -153 59t-60 159q0 88 41.5 155.5t103.5 100t130 32.5q91 0 141.5 -53.5t50.5 -148.5q0 -61 -20 -61zM167 297h290q5 62 -26 99t-94 37q-57 0 -104.5 -34t-65.5 -102z
" />
    <glyph glyph-name="igrave" unicode="&#xec;" horiz-adv-x="293" 
d="M242 0h-191q-13 0 -11 12l7 43q1 12 13 12h56l51 358h-56q-13 0 -11 12l6 43q2 12 14 12h126q12 0 11 -12l-58 -413h53q12 0 11 -12l-6 -43q-1 -12 -15 -12zM259 599l-30 -29q-9 -10 -19 -2l-149 134q-8 8 2 19l36 37q9 11 20 2l140 -142q10 -9 0 -19z" />
    <glyph glyph-name="iacute" unicode="&#xed;" horiz-adv-x="293" 
d="M242 0h-191q-13 0 -11 12l7 43q1 12 13 12h56l51 358h-56q-13 0 -11 12l6 43q2 12 14 12h126q12 0 11 -12l-58 -413h53q12 0 11 -12l-6 -43q-1 -12 -15 -12zM408 706l-186 -134q-13 -7 -20 3l-20 29q-8 9 5 19l180 141q10 9 20 -1l25 -38q8 -9 -4 -19z" />
    <glyph glyph-name="icircumflex" unicode="&#xee;" horiz-adv-x="293" 
d="M242 0h-191q-13 0 -11 12l7 43q1 12 13 12h56l51 358h-56q-13 0 -11 12l6 43q2 12 14 12h126q12 0 11 -12l-58 -413h53q12 0 11 -12l-6 -43q-1 -12 -15 -12zM395 604l-29 -29q-10 -10 -19 -2l-109 105l-137 -105q-12 -9 -19 2l-21 29q-7 10 5 19l174 136q5 4 11 4
q5 0 9 -5l135 -135q8 -9 0 -19z" />
    <glyph glyph-name="idieresis" unicode="&#xef;" horiz-adv-x="293" 
d="M242 0h-191q-13 0 -11 12l7 43q1 12 13 12h56l51 358h-56q-13 0 -11 12l6 43q2 12 14 12h126q12 0 11 -12l-58 -413h53q12 0 11 -12l-6 -43q-1 -12 -15 -12zM201 603q0 -19 -14.5 -33t-34.5 -14q-16 0 -26 10t-10 27q0 19 14 33.5t34 14.5q16 0 26.5 -11t10.5 -27z
M359 603q0 -19 -14.5 -33t-34.5 -14q-16 0 -26 10t-10 27q0 19 14 33.5t34 14.5q16 0 26.5 -11t10.5 -27z" />
    <glyph glyph-name="eth" unicode="&#xf0;" horiz-adv-x="611" 
d="M482 602l-55 -49q-11 -8 -19 0l-17 21q-8 10 3 19l46 40q-33 12 -64 12q-67 0 -106 -34.5t-45 -75.5q-1 -12 -14 -12h-60q-11 0 -11 10q0 79 69.5 135t177.5 56q71 0 124 -29l55 49q10 7 19 0l16 -21q9 -9 -2 -19l-46 -40q76 -69 76 -235q0 -191 -89 -313.5t-242 -122.5
q-107 0 -168.5 58t-61.5 150q0 115 74.5 188t207.5 73q111 0 185 -51q9 138 -53 191zM529 339q-74 55 -171 55q-90 0 -144 -50.5t-54 -130.5q0 -62 39.5 -100.5t110.5 -38.5q85 0 142 69t77 196z" />
    <glyph glyph-name="ntilde" unicode="&#xf1;" horiz-adv-x="621" 
d="M570 0h-95q-22 0 -31 9.5t-6 32.5l36 263q8 57 -15 89.5t-73 32.5q-34 0 -65 -20.5t-50 -50t-29 -48.5t-14 -30v-1l-29 -210h53q12 0 11 -12l-6 -43q-1 -12 -15 -12h-191q-13 0 -11 12l7 43q1 12 13 12h56l51 358h-56q-13 0 -11 12l6 43q2 12 14 12h118q12 0 10 -12
l-18 -120h3q1 6 4.5 15t17.5 33t32.5 42.5t52 33.5t74.5 15q80 0 118.5 -47t27.5 -127l-36 -258h56q12 0 11 -12l-6 -43q-1 -12 -15 -12zM526 684h24q11 0 10 -11q-3 -51 -28 -82.5t-75 -31.5q-25 0 -45 10t-30.5 21.5t-24.5 21.5t-29 10q-21 0 -33 -12.5t-16 -44.5
q-1 -12 -14 -12h-23q-11 0 -11 10q0 45 25.5 77.5t75.5 32.5q23 0 42.5 -10.5t30 -22.5t25.5 -22.5t31 -10.5q23 0 34.5 14t16.5 51q2 12 14 12z" />
    <glyph glyph-name="ograve" unicode="&#xf2;" horiz-adv-x="575" 
d="M286 -7q-96 0 -156 59.5t-60 159.5q0 129 84.5 208t203.5 79q96 0 156 -58.5t60 -157.5q0 -128 -83 -209t-205 -81zM296 63q76 0 135 59.5t59 151.5q0 70 -41 112.5t-101 42.5q-76 0 -135 -58.5t-59 -150.5q0 -71 40.5 -114t101.5 -43zM437 604l-30 -29q-9 -10 -19 -2
l-149 134q-8 8 2 19l36 37q9 11 20 2l140 -142q10 -9 0 -19z" />
    <glyph glyph-name="oacute" unicode="&#xf3;" horiz-adv-x="575" 
d="M529 706l-186 -134q-13 -7 -20 3l-20 29q-8 9 5 19l180 141q10 9 20 -1l25 -38q8 -9 -4 -19zM286 -7q-96 0 -156 59.5t-60 159.5q0 129 84.5 208t203.5 79q96 0 156 -58.5t60 -157.5q0 -128 -83 -209t-205 -81zM296 63q76 0 135 59.5t59 151.5q0 70 -41 112.5t-101 42.5
q-76 0 -135 -58.5t-59 -150.5q0 -71 40.5 -114t101.5 -43z" />
    <glyph glyph-name="ocircumflex" unicode="&#xf4;" horiz-adv-x="575" 
d="M545 604l-29 -29q-10 -10 -19 -2l-109 105l-137 -105q-12 -9 -19 2l-21 29q-7 10 5 19l174 136q5 4 11 4q5 0 9 -5l135 -135q8 -9 0 -19zM286 -7q-96 0 -156 59.5t-60 159.5q0 129 84.5 208t203.5 79q96 0 156 -58.5t60 -157.5q0 -128 -83 -209t-205 -81zM296 63
q76 0 135 59.5t59 151.5q0 70 -41 112.5t-101 42.5q-76 0 -135 -58.5t-59 -150.5q0 -71 40.5 -114t101.5 -43z" />
    <glyph glyph-name="otilde" unicode="&#xf5;" horiz-adv-x="575" 
d="M286 -7q-96 0 -156 59.5t-60 159.5q0 129 84.5 208t203.5 79q96 0 156 -58.5t60 -157.5q0 -128 -83 -209t-205 -81zM296 63q76 0 135 59.5t59 151.5q0 70 -41 112.5t-101 42.5q-76 0 -135 -58.5t-59 -150.5q0 -71 40.5 -114t101.5 -43zM513 684h24q11 0 10 -11
q-3 -51 -28 -82.5t-75 -31.5q-25 0 -45 10t-30.5 21.5t-24.5 21.5t-29 10q-21 0 -33 -12.5t-16 -44.5q-2 -12 -14 -12h-23q-11 0 -11 10q0 45 25.5 77.5t75.5 32.5q23 0 42.5 -10.5t30 -22.5t25.5 -22.5t31 -10.5q24 0 35 14t16 51q1 12 14 12z" />
    <glyph glyph-name="odieresis" unicode="&#xf6;" horiz-adv-x="575" 
d="M337 603q0 -19 -14.5 -33t-34.5 -14q-16 0 -26 10t-10 27q0 19 14 33.5t34 14.5q16 0 26.5 -11t10.5 -27zM495 603q0 -19 -14.5 -33t-34.5 -14q-16 0 -26 10t-10 27q0 19 14 33.5t34 14.5q16 0 26.5 -11t10.5 -27zM286 -7q-96 0 -156 59.5t-60 159.5q0 129 84.5 208
t203.5 79q96 0 156 -58.5t60 -157.5q0 -128 -83 -209t-205 -81zM296 63q76 0 135 59.5t59 151.5q0 70 -41 112.5t-101 42.5q-76 0 -135 -58.5t-59 -150.5q0 -71 40.5 -114t101.5 -43z" />
    <glyph glyph-name="divide" unicode="&#xf7;" horiz-adv-x="414" 
d="M393 221h-311q-13 0 -11 13l7 51q2 13 15 13h311q14 0 12 -13l-7 -51q-2 -13 -16 -13zM269 143q0 -19 -14 -32.5t-34 -13.5q-15 0 -25.5 10.5t-10.5 26.5q0 19 14.5 32.5t33.5 13.5q16 0 26 -10.5t10 -26.5zM304 392q0 -19 -14.5 -33t-33.5 -14q-16 0 -26 10.5t-10 26.5
q0 19 14 32.5t34 13.5q16 0 26 -10.5t10 -25.5z" />
    <glyph glyph-name="oslash" unicode="&#xf8;" horiz-adv-x="575" 
d="M173 -29h-42q-14 0 -7 12l30 47q-40 26 -62 73.5t-22 107.5q0 130 84.5 209t203.5 79q47 0 89 -17l9 15q5 13 19 13h42q13 0 6 -13l-26 -40q77 -58 77 -174q0 -128 -83 -209t-205 -81q-41 0 -80 13l-15 -23q-9 -12 -18 -12zM201 103l203 313q-28 13 -56 13
q-76 0 -135 -58.5t-59 -150.5q0 -78 47 -117zM249 73q21 -10 49 -10q77 0 134.5 59t57.5 151q0 70 -40 110z" />
    <glyph glyph-name="ugrave" unicode="&#xf9;" horiz-adv-x="608" 
d="M557 0h-87q-22 0 -31.5 9.5t-6.5 32.5l15 91h-3q-1 -6 -4.5 -15.5t-17 -33.5t-31.5 -42.5t-51 -33.5t-73 -15q-80 0 -120 47.5t-29 126.5l35 258h-56q-13 0 -11 12l7 43q1 12 13 12h96q22 0 31.5 -9.5t6.5 -32.5l-38 -263q-8 -57 15.5 -89.5t73.5 -32.5q31 0 59 16
t45.5 38t30.5 45.5t18.5 38.5t5.5 17l28 205h-53q-13 0 -11 12l7 43q1 12 13 12h124q12 0 11 -12l-58 -413h56q11 0 10 -12l-6 -43q-1 -12 -14 -12zM441 604l-30 -29q-9 -10 -19 -2l-149 134q-8 8 2 19l36 37q9 11 20 2l140 -142q10 -9 0 -19z" />
    <glyph glyph-name="uacute" unicode="&#xfa;" horiz-adv-x="608" 
d="M495 706l-186 -134q-13 -7 -20 3l-20 29q-8 9 5 19l180 141q10 9 20 -1l25 -38q8 -9 -4 -19zM557 0h-87q-22 0 -31.5 9.5t-6.5 32.5l15 91h-3q-1 -6 -4.5 -15.5t-17 -33.5t-31.5 -42.5t-51 -33.5t-73 -15q-80 0 -120 47.5t-29 126.5l35 258h-56q-13 0 -11 12l7 43
q1 12 13 12h96q22 0 31.5 -9.5t6.5 -32.5l-38 -263q-8 -57 15.5 -89.5t73.5 -32.5q31 0 59 16t45.5 38t30.5 45.5t18.5 38.5t5.5 17l28 205h-53q-13 0 -11 12l7 43q1 12 13 12h124q12 0 11 -12l-58 -413h56q11 0 10 -12l-6 -43q-1 -12 -14 -12z" />
    <glyph glyph-name="ucircumflex" unicode="&#xfb;" horiz-adv-x="608" 
d="M537 604l-29 -29q-10 -10 -19 -2l-109 105l-137 -105q-12 -9 -19 2l-21 29q-7 10 5 19l174 136q5 4 11 4q5 0 9 -5l135 -135q8 -9 0 -19zM557 0h-87q-22 0 -31.5 9.5t-6.5 32.5l15 91h-3q-1 -6 -4.5 -15.5t-17 -33.5t-31.5 -42.5t-51 -33.5t-73 -15q-80 0 -120 47.5
t-29 126.5l35 258h-56q-13 0 -11 12l7 43q1 12 13 12h96q22 0 31.5 -9.5t6.5 -32.5l-38 -263q-8 -57 15.5 -89.5t73.5 -32.5q31 0 59 16t45.5 38t30.5 45.5t18.5 38.5t5.5 17l28 205h-53q-13 0 -11 12l7 43q1 12 13 12h124q12 0 11 -12l-58 -413h56q11 0 10 -12l-6 -43
q-1 -12 -14 -12z" />
    <glyph glyph-name="udieresis" unicode="&#xfc;" horiz-adv-x="608" 
d="M334 603q0 -19 -14.5 -33t-34.5 -14q-16 0 -26 10t-10 27q0 19 14.5 33.5t33.5 14.5q16 0 26.5 -11t10.5 -27zM492 603q0 -19 -14.5 -33t-34.5 -14q-16 0 -26 10t-10 27q0 19 14.5 33.5t33.5 14.5q16 0 26.5 -11t10.5 -27zM557 0h-87q-22 0 -31.5 9.5t-6.5 32.5l15 91h-3
q-1 -6 -4.5 -15.5t-17 -33.5t-31.5 -42.5t-51 -33.5t-73 -15q-80 0 -120 47.5t-29 126.5l35 258h-56q-13 0 -11 12l7 43q1 12 13 12h96q22 0 31.5 -9.5t6.5 -32.5l-38 -263q-8 -57 15.5 -89.5t73.5 -32.5q31 0 59 16t45.5 38t30.5 45.5t18.5 38.5t5.5 17l28 205h-53
q-13 0 -11 12l7 43q1 12 13 12h124q12 0 11 -12l-58 -413h56q11 0 10 -12l-6 -43q-1 -12 -14 -12z" />
    <glyph glyph-name="yacute" unicode="&#xfd;" horiz-adv-x="590" 
d="M238 -63l37 74h-12q-10 0 -15 5.5t-8 19.5l-98 389h-55q-13 0 -11 12l6 43q2 12 14 12h181q13 0 10 -12l-5 -43q-2 -12 -15 -12h-40l81 -339h2l167 339h-45q-12 0 -10 12l6 43q2 12 14 12h186q12 0 10 -12l-5 -43q-1 -12 -15 -12h-55l-248 -489q-45 -89 -86 -129.5
t-107 -40.5q-61 0 -95 39q-9 9 -1 18l30 32q6 6 17 2q25 -20 51 -20q37 0 61 22t53 78zM526 706l-186 -134q-13 -7 -20 3l-20 29q-8 9 5 19l180 141q10 9 20 -1l25 -38q8 -9 -4 -19z" />
    <glyph glyph-name="thorn" unicode="&#xfe;" 
d="M220 -226h-201q-13 0 -11 13l7 42q2 13 13 13h57l113 808h-54q-12 0 -10 12l5 43q1 12 15 12h124q12 0 11 -12l-42 -298q61 92 172 92q89 0 141 -57.5t52 -154.5q0 -126 -74 -210t-189 -84q-62 0 -99.5 28.5t-49.5 69.5h-2q-2 -22 -3 -36l-30 -213h65q12 0 10 -13l-5 -42
q-2 -13 -15 -13zM347 63q75 0 129 60t54 153q0 70 -36 111.5t-95 41.5q-75 0 -128 -58.5t-53 -154.5q0 -70 35.5 -111.5t93.5 -41.5z" />
    <glyph glyph-name="ydieresis" unicode="&#xff;" horiz-adv-x="590" 
d="M238 -63l37 74h-12q-10 0 -15 5.5t-8 19.5l-98 389h-55q-13 0 -11 12l6 43q2 12 14 12h181q13 0 10 -12l-5 -43q-2 -12 -15 -12h-40l81 -339h2l167 339h-45q-12 0 -10 12l6 43q2 12 14 12h186q12 0 10 -12l-5 -43q-1 -12 -15 -12h-55l-248 -489q-45 -89 -86 -129.5
t-107 -40.5q-61 0 -95 39q-9 9 -1 18l30 32q6 6 17 2q25 -20 51 -20q37 0 61 22t53 78zM349 603q0 -19 -14.5 -33t-34.5 -14q-16 0 -26 10t-10 27q0 19 14 33.5t34 14.5q16 0 26.5 -11t10.5 -27zM507 603q0 -19 -14.5 -33t-34.5 -14q-16 0 -26 10t-10 27q0 19 14 33.5
t34 14.5q16 0 26.5 -11t10.5 -27z" />
    <glyph glyph-name="Amacron" unicode="&#x100;" horiz-adv-x="841" 
d="M768 0h-226q-12 0 -10 12l7 51q1 12 14 12h69l-40 173h-279l-89 -173h70q13 0 10 -12l-7 -51q-1 -12 -14 -12h-225q-12 0 -10 12l7 51q1 12 14 12h67l295 568h-55q-12 0 -10 12l7 51q1 12 14 12h136q24 0 35.5 -10t17.5 -33l145 -600h67q12 0 11 -12l-7 -51
q-2 -12 -14 -12zM566 317l-70 297h-4l-152 -297h226zM659 780h-295q-13 0 -11 13l6 42q2 14 15 14h295q14 0 12 -14l-6 -42q-2 -13 -16 -13z" />
    <glyph glyph-name="amacron" unicode="&#x101;" horiz-adv-x="580" 
d="M529 0h-87q-22 0 -31 9.5t-6 32.5l7 51h-2q-85 -101 -209 -101q-65 0 -105.5 33t-40.5 89q0 90 78.5 133t213.5 43h84l2 12q20 125 -113 125q-30 0 -56.5 -4.5t-44 -11.5t-30 -14t-19 -11.5t-7.5 -4.5q-11 -4 -15 3l-23 35q-5 8 4 16q9 9 25.5 20.5t67.5 27.5t111 16
q211 0 182 -200l-33 -232h57q11 0 10 -12l-6 -43q-1 -12 -14 -12zM411 149l11 81h-79q-46 0 -79 -3.5t-62 -13.5t-44 -29.5t-15 -49.5q0 -31 25 -51t68 -20q98 0 175 86zM500 554h-295q-13 0 -11 13l6 42q2 14 15 14h295q14 0 12 -14l-6 -42q-2 -13 -16 -13z" />
    <glyph glyph-name="Abreve" unicode="&#x102;" horiz-adv-x="841" 
d="M768 0h-226q-12 0 -10 12l7 51q1 12 14 12h69l-40 173h-279l-89 -173h70q13 0 10 -12l-7 -51q-1 -12 -14 -12h-225q-12 0 -10 12l7 51q1 12 14 12h67l295 568h-55q-12 0 -10 12l7 51q1 12 14 12h136q24 0 35.5 -10t17.5 -33l145 -600h67q12 0 11 -12l-7 -51
q-2 -12 -14 -12zM566 317l-70 297h-4l-152 -297h226zM631 941h31q12 0 12 -11q0 -63 -46 -102t-114 -39q-56 0 -89 30t-33 87q0 35 17 35h32q10 0 10 -27q0 -34 19.5 -54t49.5 -20q35 0 62 23.5t33 64.5q2 13 16 13z" />
    <glyph glyph-name="abreve" unicode="&#x103;" horiz-adv-x="580" 
d="M529 0h-87q-22 0 -31 9.5t-6 32.5l7 51h-2q-85 -101 -209 -101q-65 0 -105.5 33t-40.5 89q0 90 78.5 133t213.5 43h84l2 12q20 125 -113 125q-30 0 -56.5 -4.5t-44 -11.5t-30 -14t-19 -11.5t-7.5 -4.5q-11 -4 -15 3l-23 35q-5 8 4 16q9 9 25.5 20.5t67.5 27.5t111 16
q211 0 182 -200l-33 -232h57q11 0 10 -12l-6 -43q-1 -12 -14 -12zM411 149l11 81h-79q-46 0 -79 -3.5t-62 -13.5t-44 -29.5t-15 -49.5q0 -31 25 -51t68 -20q98 0 175 86zM478 715h31q12 0 12 -11q0 -63 -46 -102t-114 -39q-56 0 -89 30t-33 87q0 35 17 35h32q10 0 10 -27
q0 -34 19.5 -54t49.5 -20q35 0 62 23.5t33 64.5q2 13 16 13z" />
    <glyph glyph-name="Aogonek" unicode="&#x104;" horiz-adv-x="852" 
d="M755 -107l7 -13q4 -11 -5 -17q-42 -24 -75 -24q-34 0 -53.5 17t-19.5 47q0 35 26.5 60.5t56.5 36.5h-150q-12 0 -10 12l7 51q1 12 14 12h69l-40 173h-279l-89 -173h70q13 0 10 -12l-7 -51q-1 -12 -14 -12h-225q-12 0 -10 12l7 51q1 12 14 12h67l295 568h-55q-12 0 -10 12
l7 51q1 12 14 12h136q24 0 35.5 -10t17.5 -33l145 -600h67q12 0 11 -12l-7 -51q-2 -12 -14 -12h-24q-82 -41 -82 -87q0 -29 34 -29q21 0 41 11q15 6 18 -2zM566 317l-70 297h-4l-152 -297h226z" />
    <glyph glyph-name="aogonek" unicode="&#x105;" horiz-adv-x="580" 
d="M519 -107l7 -13q4 -11 -5 -17q-42 -24 -75 -24q-34 0 -53.5 17t-19.5 47q0 35 26.5 60.5t56.5 36.5h-14q-22 0 -31 9.5t-6 32.5l7 51h-2q-85 -101 -209 -101q-65 0 -105.5 33t-40.5 89q0 90 78.5 133t213.5 43h84l2 12q20 125 -113 125q-30 0 -56.5 -4.5t-44 -11.5
t-30 -14t-19 -11.5t-7.5 -4.5q-11 -4 -15 3l-23 35q-5 8 4 16q9 9 25.5 20.5t67.5 27.5t111 16q211 0 182 -200l-33 -232h57q11 0 10 -12l-6 -43q-1 -12 -14 -12h-21q-82 -41 -82 -87q0 -29 34 -29q21 0 41 11q15 6 18 -2zM411 149l11 81h-79q-46 0 -79 -3.5t-62 -13.5
t-44 -29.5t-15 -49.5q0 -31 25 -51t68 -20q98 0 175 86z" />
    <glyph glyph-name="Cacute" unicode="&#x106;" horiz-adv-x="752" 
d="M635 932l-186 -134q-13 -7 -20 3l-20 29q-8 9 5 19l180 141q10 9 20 -1l25 -38q8 -9 -4 -19zM388 -7q-130 0 -212 86.5t-82 229.5q0 125 57.5 221.5t146 145t188.5 48.5q154 0 209 -107l11 89q2 12 15 12h56q13 0 11 -12l-31 -218q-2 -13 -14 -13h-63q-13 0 -11 13l1 9
q5 46 -49.5 95.5t-141.5 49.5q-51 0 -102 -20.5t-94 -59.5t-69.5 -103t-26.5 -143q0 -113 63 -176t152 -63q168 0 263 126q10 15 19 6l39 -28q7 -7 -1 -20q-9 -14 -22 -30t-43 -42t-65 -46t-89.5 -35t-114.5 -15z" />
    <glyph glyph-name="cacute" unicode="&#x107;" horiz-adv-x="539" 
d="M544 706l-186 -134q-13 -7 -20 3l-20 29q-8 9 5 19l180 141q10 9 20 -1l25 -38q8 -9 -4 -19zM486 144l24 -28q9 -9 1 -18q-9 -12 -24 -26.5t-43 -34t-70.5 -32t-90.5 -12.5q-94 0 -153.5 58.5t-59.5 159.5q0 131 84 209.5t192 78.5q107 0 149 -74h1l7 55q2 13 14 13h38
q13 0 11 -13l-24 -170q-2 -12 -14 -12h-45q-13 0 -11 12l2 17q5 36 -30.5 69t-96.5 33q-70 0 -131 -56.5t-61 -151.5q0 -73 42 -115.5t101 -42.5q53 0 103 27.5t67 50.5q9 11 18 3z" />
    <glyph glyph-name="Ccircumflex" unicode="&#x108;" horiz-adv-x="752" 
d="M665 830l-29 -29q-10 -10 -19 -2l-109 105l-137 -105q-12 -9 -19 2l-21 29q-7 10 5 19l174 136q5 4 11 4q5 0 9 -5l135 -135q8 -9 0 -19zM388 -7q-130 0 -212 86.5t-82 229.5q0 125 57.5 221.5t146 145t188.5 48.5q154 0 209 -107l11 89q2 12 15 12h56q13 0 11 -12
l-31 -218q-2 -13 -14 -13h-63q-13 0 -11 13l1 9q5 46 -49.5 95.5t-141.5 49.5q-51 0 -102 -20.5t-94 -59.5t-69.5 -103t-26.5 -143q0 -113 63 -176t152 -63q168 0 263 126q10 15 19 6l39 -28q7 -7 -1 -20q-9 -14 -22 -30t-43 -42t-65 -46t-89.5 -35t-114.5 -15z" />
    <glyph glyph-name="ccircumflex" unicode="&#x109;" horiz-adv-x="539" 
d="M534 604l-29 -29q-10 -10 -19 -2l-109 105l-137 -105q-12 -9 -19 2l-21 29q-7 10 5 19l174 136q5 4 11 4q5 0 9 -5l135 -135q8 -9 0 -19zM486 144l24 -28q9 -9 1 -18q-9 -12 -24 -26.5t-43 -34t-70.5 -32t-90.5 -12.5q-94 0 -153.5 58.5t-59.5 159.5q0 131 84 209.5
t192 78.5q107 0 149 -74h1l7 55q2 13 14 13h38q13 0 11 -13l-24 -170q-2 -12 -14 -12h-45q-13 0 -11 12l2 17q5 36 -30.5 69t-96.5 33q-70 0 -131 -56.5t-61 -151.5q0 -73 42 -115.5t101 -42.5q53 0 103 27.5t67 50.5q9 11 18 3z" />
    <glyph glyph-name="Cdotaccent" unicode="&#x10a;" horiz-adv-x="752" 
d="M388 -7q-130 0 -212 86.5t-82 229.5q0 125 57.5 221.5t146 145t188.5 48.5q154 0 209 -107l11 89q2 12 15 12h56q13 0 11 -12l-31 -218q-2 -13 -14 -13h-63q-13 0 -11 13l1 9q5 46 -49.5 95.5t-141.5 49.5q-51 0 -102 -20.5t-94 -59.5t-69.5 -103t-26.5 -143
q0 -113 63 -176t152 -63q168 0 263 126q10 15 19 6l39 -28q7 -7 -1 -20q-9 -14 -22 -30t-43 -42t-65 -46t-89.5 -35t-114.5 -15zM570 850q0 -23 -18.5 -40.5t-42.5 -17.5q-19 0 -32 13t-13 33q0 24 18 41.5t42 17.5q20 0 33 -13.5t13 -33.5z" />
    <glyph glyph-name="cdotaccent" unicode="&#x10b;" horiz-adv-x="539" 
d="M486 144l24 -28q9 -9 1 -18q-9 -12 -24 -26.5t-43 -34t-70.5 -32t-90.5 -12.5q-94 0 -153.5 58.5t-59.5 159.5q0 131 84 209.5t192 78.5q107 0 149 -74h1l7 55q2 13 14 13h38q13 0 11 -13l-24 -170q-2 -12 -14 -12h-45q-13 0 -11 12l2 17q5 36 -30.5 69t-96.5 33
q-70 0 -131 -56.5t-61 -151.5q0 -73 42 -115.5t101 -42.5q53 0 103 27.5t67 50.5q9 11 18 3zM422 624q0 -23 -18.5 -40.5t-42.5 -17.5q-19 0 -32 13t-13 33q0 24 18 41.5t42 17.5q20 0 33 -13.5t13 -33.5z" />
    <glyph glyph-name="Ccaron" unicode="&#x10c;" horiz-adv-x="752" 
d="M680 939l-174 -135q-5 -5 -10 -5q-6 0 -10 4l-135 136q-10 8 -1 19l30 28q9 10 19 2l107 -105l139 105q12 8 19 -2l20 -28q5 -10 -4 -19zM388 -7q-130 0 -212 86.5t-82 229.5q0 125 57.5 221.5t146 145t188.5 48.5q154 0 209 -107l11 89q2 12 15 12h56q13 0 11 -12
l-31 -218q-2 -13 -14 -13h-63q-13 0 -11 13l1 9q5 46 -49.5 95.5t-141.5 49.5q-51 0 -102 -20.5t-94 -59.5t-69.5 -103t-26.5 -143q0 -113 63 -176t152 -63q168 0 263 126q10 15 19 6l39 -28q7 -7 -1 -20q-9 -14 -22 -30t-43 -42t-65 -46t-89.5 -35t-114.5 -15z" />
    <glyph glyph-name="ccaron" unicode="&#x10d;" horiz-adv-x="539" 
d="M556 713l-174 -135q-5 -5 -10 -5q-6 0 -10 4l-135 136q-10 8 -1 19l30 28q9 10 19 2l107 -105l139 105q12 8 19 -2l20 -28q5 -10 -4 -19zM486 144l24 -28q9 -9 1 -18q-9 -12 -24 -26.5t-43 -34t-70.5 -32t-90.5 -12.5q-94 0 -153.5 58.5t-59.5 159.5q0 131 84 209.5
t192 78.5q107 0 149 -74h1l7 55q2 13 14 13h38q13 0 11 -13l-24 -170q-2 -12 -14 -12h-45q-13 0 -11 12l2 17q5 36 -30.5 69t-96.5 33q-70 0 -131 -56.5t-61 -151.5q0 -73 42 -115.5t101 -42.5q53 0 103 27.5t67 50.5q9 11 18 3z" />
    <glyph glyph-name="Dcaron" unicode="&#x10e;" horiz-adv-x="740" 
d="M653 939l-174 -135q-5 -5 -10 -5q-6 0 -10 4l-135 136q-10 8 -1 19l30 28q9 10 19 2l107 -105l139 105q12 8 19 -2l20 -28q5 -10 -4 -19zM342 0h-287q-11 0 -10 12l7 51q2 12 14 12h77l79 568h-76q-12 0 -11 12l8 51q1 12 13 12h270q148 0 232.5 -80t84.5 -222
q0 -188 -110 -302t-291 -114zM230 75h99q156 0 239 86t83 246q0 112 -62 174t-183 62h-97z" />
    <glyph glyph-name="dcaron" unicode="&#x10f;" horiz-adv-x="640" 
d="M635 567l3 17q2 6 7 6q18 0 33.5 15t15.5 43l-1 7q-6 -5 -19 -5q-16 0 -26.5 11t-10.5 29q0 22 16 37.5t38 15.5q46 0 46 -58q0 -60 -27 -92t-68 -32q-7 0 -7 6zM562 0h-87q-23 0 -31.5 9.5t-5.5 32.5l7 56h-1q-22 -42 -70.5 -73.5t-111.5 -31.5q-88 0 -140 58t-52 156
q0 126 75.5 209t189.5 83q61 0 98.5 -28.5t49.5 -69.5h1q1 20 3 33l31 217h-56q-12 0 -11 12l6 43q1 12 14 12h124q13 0 11 -12l-90 -639h56q12 0 11 -12l-7 -43q-2 -12 -14 -12zM284 63q75 0 128 60t53 154q0 71 -36.5 111.5t-93.5 40.5q-74 0 -128 -58.5t-54 -152.5
q0 -70 36 -112.5t95 -42.5z" />
    <glyph glyph-name="Dcroat" unicode="&#x110;" horiz-adv-x="741" 
d="M348 0h-287q-13 0 -11 12l8 51q2 12 14 12h76l35 249h-68q-14 0 -12 13l6 42q2 14 15 14h69l35 250h-77q-11 0 -10 12l7 51q2 12 14 12h269q148 0 232.5 -80t84.5 -222q0 -188 -110 -302t-290 -114zM235 75h100q156 0 239 86t83 246q0 112 -62 174t-184 62h-96l-35 -250
h152q14 0 12 -14l-6 -42q-2 -13 -15 -13h-153z" />
    <glyph glyph-name="dcroat" unicode="&#x111;" horiz-adv-x="597" 
d="M562 0h-87q-23 0 -31.5 9.5t-5.5 32.5l7 56h-1q-22 -42 -70.5 -73.5t-111.5 -31.5q-88 0 -140 58t-52 156q0 126 75.5 209t189.5 83q61 0 98.5 -28.5t49.5 -69.5h1q1 20 3 33l18 121h-128q-12 0 -10 11l2 16q2 11 13 11h128l8 58h-56q-12 0 -11 12l6 43q1 12 14 12h124
q13 0 11 -12l-16 -113h56q12 0 10 -11l-3 -16q-2 -11 -12 -11h-56l-69 -488h56q12 0 11 -12l-7 -43q-2 -12 -14 -12zM284 63q75 0 128 60t53 154q0 71 -36.5 111.5t-93.5 40.5q-74 0 -128 -58.5t-54 -152.5q0 -70 36 -112.5t95 -42.5z" />
    <glyph glyph-name="Emacron" unicode="&#x112;" horiz-adv-x="653" 
d="M592 0h-531q-13 0 -11 12l7 51q1 12 14 12h77l80 568h-77q-11 0 -10 12l7 51q2 12 14 12h531q14 0 11 -12l-23 -161q-2 -13 -13 -13h-54q-14 0 -11 13l13 98h-301l-35 -248h253q13 0 11 -12l-7 -51q-1 -12 -14 -12h-254l-34 -245h301l14 98q2 12 14 12h55q11 0 10 -12
l-22 -161q-1 -12 -15 -12zM575 780h-295q-13 0 -11 13l6 42q2 14 15 14h295q14 0 12 -14l-6 -42q-2 -13 -16 -13z" />
    <glyph glyph-name="emacron" unicode="&#x113;" horiz-adv-x="538" 
d="M517 236h-360q-8 -83 34 -128t107 -45q57 0 103.5 26t66.5 51q9 10 18 3l24 -27q9 -9 1 -18q-8 -11 -24.5 -26t-45 -34t-70.5 -32t-88 -13q-93 0 -153 59t-60 159q0 88 41.5 155.5t103.5 100t130 32.5q91 0 141.5 -53.5t50.5 -148.5q0 -61 -20 -61zM167 297h290
q5 62 -26 99t-94 37q-57 0 -104.5 -34t-65.5 -102zM494 554h-295q-13 0 -11 13l6 42q2 14 15 14h295q14 0 12 -14l-6 -42q-2 -13 -16 -13z" />
    <glyph glyph-name="Ebreve" unicode="&#x114;" horiz-adv-x="653" 
d="M592 0h-531q-13 0 -11 12l7 51q1 12 14 12h77l80 568h-77q-11 0 -10 12l7 51q2 12 14 12h531q14 0 11 -12l-23 -161q-2 -13 -13 -13h-54q-14 0 -11 13l13 98h-301l-35 -248h253q13 0 11 -12l-7 -51q-1 -12 -14 -12h-254l-34 -245h301l14 98q2 12 14 12h55q11 0 10 -12
l-22 -161q-1 -12 -15 -12zM545 941h31q12 0 12 -11q0 -63 -46 -102t-114 -39q-56 0 -89 30t-33 87q0 35 17 35h32q10 0 10 -27q0 -34 19.5 -54t49.5 -20q35 0 62 23.5t33 64.5q2 13 16 13z" />
    <glyph glyph-name="ebreve" unicode="&#x115;" horiz-adv-x="538" 
d="M517 236h-360q-8 -83 34 -128t107 -45q57 0 103.5 26t66.5 51q9 10 18 3l24 -27q9 -9 1 -18q-8 -11 -24.5 -26t-45 -34t-70.5 -32t-88 -13q-93 0 -153 59t-60 159q0 88 41.5 155.5t103.5 100t130 32.5q91 0 141.5 -53.5t50.5 -148.5q0 -61 -20 -61zM167 297h290
q5 62 -26 99t-94 37q-57 0 -104.5 -34t-65.5 -102zM482 715h31q12 0 12 -11q0 -63 -46 -102t-114 -39q-56 0 -89 30t-33 87q0 35 17 35h32q10 0 10 -27q0 -34 19.5 -54t49.5 -20q35 0 62 23.5t33 64.5q2 13 16 13z" />
    <glyph glyph-name="Edotaccent" unicode="&#x116;" horiz-adv-x="653" 
d="M592 0h-531q-13 0 -11 12l7 51q1 12 14 12h77l80 568h-77q-11 0 -10 12l7 51q2 12 14 12h531q14 0 11 -12l-23 -161q-2 -13 -13 -13h-54q-14 0 -11 13l13 98h-301l-35 -248h253q13 0 11 -12l-7 -51q-1 -12 -14 -12h-254l-34 -245h301l14 98q2 12 14 12h55q11 0 10 -12
l-22 -161q-1 -12 -15 -12zM496 850q0 -23 -18.5 -40.5t-42.5 -17.5q-19 0 -32 13t-13 33q0 24 18 41.5t42 17.5q20 0 33 -13.5t13 -33.5z" />
    <glyph glyph-name="edotaccent" unicode="&#x117;" horiz-adv-x="538" 
d="M517 236h-360q-8 -83 34 -128t107 -45q57 0 103.5 26t66.5 51q9 10 18 3l24 -27q9 -9 1 -18q-8 -11 -24.5 -26t-45 -34t-70.5 -32t-88 -13q-93 0 -153 59t-60 159q0 88 41.5 155.5t103.5 100t130 32.5q91 0 141.5 -53.5t50.5 -148.5q0 -61 -20 -61zM167 297h290
q5 62 -26 99t-94 37q-57 0 -104.5 -34t-65.5 -102zM415 624q0 -23 -18.5 -40.5t-42.5 -17.5q-19 0 -32 13t-13 33q0 24 18 41.5t42 17.5q20 0 33 -13.5t13 -33.5z" />
    <glyph glyph-name="Eogonek" unicode="&#x118;" horiz-adv-x="659" 
d="M592 0h-62q-82 -41 -82 -87q0 -29 34 -29q21 0 41 11q15 6 18 -2l7 -13q4 -11 -5 -17q-42 -24 -75 -24q-34 0 -53.5 17t-19.5 47q0 35 26.5 60.5t56.5 36.5h-417q-13 0 -11 12l7 51q1 12 14 12h77l80 568h-77q-11 0 -10 12l7 51q2 12 14 12h531q14 0 11 -12l-23 -161
q-2 -13 -13 -13h-54q-14 0 -11 13l13 98h-301l-35 -248h253q13 0 11 -12l-7 -51q-1 -12 -14 -12h-254l-34 -245h301l14 98q2 12 14 12h55q11 0 10 -12l-22 -161q-1 -12 -15 -12z" />
    <glyph glyph-name="eogonek" unicode="&#x119;" horiz-adv-x="538" 
d="M517 236h-360q-8 -83 34 -128t107 -45q57 0 103.5 26t66.5 51q9 10 18 3l24 -27q9 -9 1 -18q-18 -25 -63.5 -56.5t-109.5 -43.5q-78 -41 -78 -85q0 -29 34 -29q21 0 41 11q15 6 18 -2l7 -13q4 -11 -5 -17q-42 -24 -75 -24q-34 0 -53.5 17t-19.5 47t20 53t47 37
q-90 3 -147 61.5t-57 156.5q0 88 41.5 155.5t103.5 100t130 32.5q91 0 141.5 -53.5t50.5 -148.5q0 -61 -20 -61zM167 297h290q5 62 -26 99t-94 37q-57 0 -104.5 -34t-65.5 -102z" />
    <glyph glyph-name="Ecaron" unicode="&#x11a;" horiz-adv-x="653" 
d="M620 939l-174 -135q-5 -5 -10 -5q-6 0 -10 4l-135 136q-10 8 -1 19l30 28q9 10 19 2l107 -105l139 105q12 8 19 -2l20 -28q5 -10 -4 -19zM592 0h-531q-13 0 -11 12l7 51q1 12 14 12h77l80 568h-77q-11 0 -10 12l7 51q2 12 14 12h531q14 0 11 -12l-23 -161q-2 -13 -13 -13
h-54q-14 0 -11 13l13 98h-301l-35 -248h253q13 0 11 -12l-7 -51q-1 -12 -14 -12h-254l-34 -245h301l14 98q2 12 14 12h55q11 0 10 -12l-22 -161q-1 -12 -15 -12z" />
    <glyph glyph-name="ecaron" unicode="&#x11b;" horiz-adv-x="538" 
d="M539 713l-174 -135q-5 -5 -10 -5q-6 0 -10 4l-135 136q-10 8 -1 19l30 28q9 10 19 2l107 -105l139 105q12 8 19 -2l20 -28q5 -10 -4 -19zM517 236h-360q-8 -83 34 -128t107 -45q57 0 103.5 26t66.5 51q9 10 18 3l24 -27q9 -9 1 -18q-8 -11 -24.5 -26t-45 -34t-70.5 -32
t-88 -13q-93 0 -153 59t-60 159q0 88 41.5 155.5t103.5 100t130 32.5q91 0 141.5 -53.5t50.5 -148.5q0 -61 -20 -61zM167 297h290q5 62 -26 99t-94 37q-57 0 -104.5 -34t-65.5 -102z" />
    <glyph glyph-name="Gcircumflex" unicode="&#x11c;" horiz-adv-x="750" 
d="M674 830l-29 -29q-10 -10 -19 -2l-109 105l-137 -105q-12 -9 -19 2l-21 29q-7 10 5 19l174 136q5 4 11 4q5 0 9 -5l135 -135q8 -9 0 -19zM690 0h-53q-14 0 -11 12l10 69q-99 -88 -245 -88q-132 0 -214.5 86t-82.5 230q0 96 34.5 176.5t91.5 131.5t127.5 79t143.5 28
q154 0 206 -95l9 77q2 12 15 12h56q13 0 11 -12l-29 -206q-1 -12 -15 -12h-63q-11 0 -10 12l1 12q4 45 -49 87.5t-140 42.5q-54 0 -106.5 -23t-95 -63.5t-68.5 -103t-26 -134.5q0 -112 64 -176.5t154 -64.5q156 0 237 101l11 78h-186q-13 0 -11 13l6 46q3 12 15 12h259
q12 0 10 -12l-43 -303q-1 -12 -13 -12z" />
    <glyph glyph-name="gcircumflex" unicode="&#x11d;" horiz-adv-x="611" 
d="M549 604l-29 -29q-10 -10 -19 -2l-109 105l-137 -105q-12 -9 -19 2l-21 29q-7 10 5 19l174 136q5 4 11 4q5 0 9 -5l135 -135q8 -9 0 -19zM235 -234q-24 0 -45.5 2.5t-37.5 7t-31 10t-24.5 11t-18.5 12t-13.5 10.5t-8.5 9l-5 4q-9 10 -1 18l31 37q7 9 17 1l6 -4
q5 -5 10 -9t13.5 -9.5t20 -10t25.5 -8.5t32.5 -6.5t38.5 -2.5q72 0 120 34.5t59 108.5l16 109q-25 -41 -70 -69t-107 -28q-90 0 -141.5 59t-51.5 155q0 129 75.5 210.5t188.5 81.5q62 0 100.5 -28.5t52.5 -69.5h2l10 79q2 12 13 12h118q13 0 11 -12l-6 -43q-2 -12 -15 -12
h-54l-62 -444q-15 -107 -88 -161t-180 -54zM284 63q73 0 127 61.5t54 152.5q0 70 -36.5 111t-93.5 41q-76 0 -129.5 -59.5t-53.5 -153.5q0 -69 36.5 -111t95.5 -42z" />
    <glyph glyph-name="Gbreve" unicode="&#x11e;" horiz-adv-x="750" 
d="M690 0h-53q-14 0 -11 12l10 69q-99 -88 -245 -88q-132 0 -214.5 86t-82.5 230q0 96 34.5 176.5t91.5 131.5t127.5 79t143.5 28q154 0 206 -95l9 77q2 12 15 12h56q13 0 11 -12l-29 -206q-1 -12 -15 -12h-63q-11 0 -10 12l1 12q4 45 -49 87.5t-140 42.5q-54 0 -106.5 -23
t-95 -63.5t-68.5 -103t-26 -134.5q0 -112 64 -176.5t154 -64.5q156 0 237 101l11 78h-186q-13 0 -11 13l6 46q3 12 15 12h259q12 0 10 -12l-43 -303q-1 -12 -13 -12zM626 941h31q12 0 12 -11q0 -63 -46 -102t-114 -39q-56 0 -89 30t-33 87q0 35 17 35h32q10 0 10 -27
q0 -34 19.5 -54t49.5 -20q35 0 62 23.5t33 64.5q2 13 16 13z" />
    <glyph glyph-name="gbreve" unicode="&#x11f;" horiz-adv-x="611" 
d="M235 -234q-24 0 -45.5 2.5t-37.5 7t-31 10t-24.5 11t-18.5 12t-13.5 10.5t-8.5 9l-5 4q-9 10 -1 18l31 37q7 9 17 1l6 -4q5 -5 10 -9t13.5 -9.5t20 -10t25.5 -8.5t32.5 -6.5t38.5 -2.5q72 0 120 34.5t59 108.5l16 109q-25 -41 -70 -69t-107 -28q-90 0 -141.5 59
t-51.5 155q0 129 75.5 210.5t188.5 81.5q62 0 100.5 -28.5t52.5 -69.5h2l10 79q2 12 13 12h118q13 0 11 -12l-6 -43q-2 -12 -15 -12h-54l-62 -444q-15 -107 -88 -161t-180 -54zM284 63q73 0 127 61.5t54 152.5q0 70 -36.5 111t-93.5 41q-76 0 -129.5 -59.5t-53.5 -153.5
q0 -69 36.5 -111t95.5 -42zM494 715h31q12 0 12 -11q0 -63 -46 -102t-114 -39q-56 0 -89 30t-33 87q0 35 17 35h32q10 0 10 -27q0 -34 19.5 -54t49.5 -20q35 0 62 23.5t33 64.5q2 13 16 13z" />
    <glyph glyph-name="Gdotaccent" unicode="&#x120;" horiz-adv-x="750" 
d="M690 0h-53q-14 0 -11 12l10 69q-99 -88 -245 -88q-132 0 -214.5 86t-82.5 230q0 96 34.5 176.5t91.5 131.5t127.5 79t143.5 28q154 0 206 -95l9 77q2 12 15 12h56q13 0 11 -12l-29 -206q-1 -12 -15 -12h-63q-11 0 -10 12l1 12q4 45 -49 87.5t-140 42.5q-54 0 -106.5 -23
t-95 -63.5t-68.5 -103t-26 -134.5q0 -112 64 -176.5t154 -64.5q156 0 237 101l11 78h-186q-13 0 -11 13l6 46q3 12 15 12h259q12 0 10 -12l-43 -303q-1 -12 -13 -12zM562 850q0 -23 -18.5 -40.5t-42.5 -17.5q-19 0 -32 13t-13 33q0 24 18 41.5t42 17.5q20 0 33 -13.5
t13 -33.5z" />
    <glyph glyph-name="gdotaccent" unicode="&#x121;" horiz-adv-x="611" 
d="M235 -234q-24 0 -45.5 2.5t-37.5 7t-31 10t-24.5 11t-18.5 12t-13.5 10.5t-8.5 9l-5 4q-9 10 -1 18l31 37q7 9 17 1l6 -4q5 -5 10 -9t13.5 -9.5t20 -10t25.5 -8.5t32.5 -6.5t38.5 -2.5q72 0 120 34.5t59 108.5l16 109q-25 -41 -70 -69t-107 -28q-90 0 -141.5 59
t-51.5 155q0 129 75.5 210.5t188.5 81.5q62 0 100.5 -28.5t52.5 -69.5h2l10 79q2 12 13 12h118q13 0 11 -12l-6 -43q-2 -12 -15 -12h-54l-62 -444q-15 -107 -88 -161t-180 -54zM284 63q73 0 127 61.5t54 152.5q0 70 -36.5 111t-93.5 41q-76 0 -129.5 -59.5t-53.5 -153.5
q0 -69 36.5 -111t95.5 -42zM441 624q0 -23 -18.5 -40.5t-42.5 -17.5q-19 0 -32 13t-13 33q0 24 18 41.5t42 17.5q20 0 33 -13.5t13 -33.5z" />
    <glyph glyph-name="Gcommaaccent" unicode="&#x122;" horiz-adv-x="750" 
d="M328 -222l3 17q1 6 7 6q18 0 33.5 15t15.5 43l-1 6q-6 -5 -19 -5q-16 0 -26.5 11t-10.5 29q0 22 16 38t38 16q46 0 46 -58q0 -61 -27 -92.5t-68 -31.5q-7 0 -7 6zM690 0h-53q-14 0 -11 12l10 69q-99 -88 -245 -88q-132 0 -214.5 86t-82.5 230q0 96 34.5 176.5t91.5 131.5
t127.5 79t143.5 28q154 0 206 -95l9 77q2 12 15 12h56q13 0 11 -12l-29 -206q-1 -12 -15 -12h-63q-11 0 -10 12l1 12q4 45 -49 87.5t-140 42.5q-54 0 -106.5 -23t-95 -63.5t-68.5 -103t-26 -134.5q0 -112 64 -176.5t154 -64.5q156 0 237 101l11 78h-186q-13 0 -11 13l6 46
q3 12 15 12h259q12 0 10 -12l-43 -303q-1 -12 -13 -12z" />
    <glyph glyph-name="gcommaaccent" unicode="&#x123;" horiz-adv-x="611" 
d="M235 -234q-24 0 -45.5 2.5t-37.5 7t-31 10t-24.5 11t-18.5 12t-13.5 10.5t-8.5 9l-5 4q-9 10 -1 18l31 37q7 9 17 1l6 -4q5 -5 10 -9t13.5 -9.5t20 -10t25.5 -8.5t32.5 -6.5t38.5 -2.5q72 0 120 34.5t59 108.5l16 109q-25 -41 -70 -69t-107 -28q-90 0 -141.5 59
t-51.5 155q0 129 75.5 210.5t188.5 81.5q62 0 100.5 -28.5t52.5 -69.5h2l10 79q2 12 13 12h118q13 0 11 -12l-6 -43q-2 -12 -15 -12h-54l-62 -444q-15 -107 -88 -161t-180 -54zM284 63q73 0 127 61.5t54 152.5q0 70 -36.5 111t-93.5 41q-76 0 -129.5 -59.5t-53.5 -153.5
q0 -69 36.5 -111t95.5 -42zM421 709l-3 -17q-2 -6 -7 -6q-18 0 -33.5 -15.5t-15.5 -42.5l1 -7q6 5 20 5q16 0 26.5 -11t10.5 -29q0 -22 -16 -37.5t-39 -15.5q-46 0 -46 58q0 60 27.5 92t68.5 32q7 0 6 -6z" />
    <glyph glyph-name="Hcircumflex" unicode="&#x124;" horiz-adv-x="820" 
d="M701 830l-29 -29q-10 -10 -19 -2l-109 105l-137 -105q-12 -9 -19 2l-21 29q-7 10 5 19l174 136q5 4 11 4q5 0 9 -5l135 -135q8 -9 0 -19zM760 0h-241q-11 0 -10 12l7 51q2 12 14 12h76l35 245h-372l-34 -245h77q12 0 11 -12l-7 -51q-2 -12 -15 -12h-240q-13 0 -11 12
l7 51q1 12 14 12h77l80 568h-77q-11 0 -10 12l7 51q2 12 14 12h240q12 0 11 -12l-7 -51q-2 -12 -14 -12h-77l-35 -250h371l35 250h-76q-12 0 -11 12l7 51q2 12 14 12h241q13 0 11 -12l-7 -51q-1 -12 -14 -12h-78l-79 -568h77q13 0 10 -12l-7 -51q-2 -12 -14 -12z" />
    <glyph glyph-name="hcircumflex" unicode="&#x125;" horiz-adv-x="621" 
d="M583 795l-29 -29q-10 -10 -19 -2l-109 105l-137 -105q-12 -9 -19 2l-21 29q-7 10 5 19l174 136q5 4 11 4q5 0 9 -5l135 -135q8 -10 0 -19zM570 0h-95q-22 0 -31 9.5t-6 32.5l36 263q8 57 -14.5 89.5t-74.5 32.5q-21 0 -41 -8.5t-35 -21.5t-28.5 -29.5t-23 -32.5
t-16.5 -29.5t-10 -21.5l-3 -8l-29 -209h53q12 0 11 -12l-6 -43q-1 -12 -15 -12h-191q-13 0 -11 12l7 43q1 12 13 12h56l82 584h-55q-14 0 -11 12l6 43q2 12 14 12h126q12 0 11 -12l-32 -227q-1 -7 -5.5 -32.5t-9.5 -49.5t-5 -26h2q1 5 4.5 13.5t17 31t31 39t50 30.5t71.5 14
q80 0 119 -47t28 -127l-36 -258h56q12 0 11 -12l-6 -43q-1 -12 -15 -12z" />
    <glyph glyph-name="Hbar" unicode="&#x126;" horiz-adv-x="820" 
d="M760 0h-241q-11 0 -10 12l7 51q2 12 14 12h76l35 245h-372l-34 -245h77q12 0 11 -12l-7 -51q-2 -12 -15 -12h-240q-13 0 -11 12l7 51q1 12 14 12h77l58 414h-60q-11 0 -9 11l4 29q2 11 12 11h60l15 103h-77q-11 0 -10 12l7 51q2 12 14 12h240q12 0 11 -12l-7 -51
q-2 -12 -14 -12h-77l-15 -103h372l14 103h-76q-12 0 -11 12l7 51q2 12 14 12h241q13 0 11 -12l-7 -51q-1 -12 -14 -12h-78l-14 -103h47q12 0 10 -11l-4 -29q-2 -11 -13 -11h-47l-58 -414h77q13 0 10 -12l-7 -51q-2 -12 -14 -12zM651 393l14 96h-372l-13 -96h371z" />
    <glyph glyph-name="hbar" unicode="&#x127;" horiz-adv-x="621" 
d="M570 0h-95q-22 0 -31 9.5t-6 32.5l36 263q8 57 -14.5 89.5t-74.5 32.5q-21 0 -41 -8.5t-35 -21.5t-28.5 -29.5t-23 -32.5t-16.5 -29.5t-10 -21.5l-3 -8l-29 -209h53q12 0 11 -12l-6 -43q-1 -12 -15 -12h-191q-13 0 -11 12l7 43q1 12 13 12h56l69 492h-58q-12 0 -10 11
l3 16q2 11 12 11h58l8 54h-55q-14 0 -11 12l6 43q2 12 14 12h126q12 0 11 -12l-16 -109h123q12 0 10 -11l-2 -16q-2 -11 -12 -11h-124l-11 -80q-1 -7 -5.5 -32.5t-9.5 -49.5t-5 -26h2q1 5 4.5 13.5t17 31t31 39t50 30.5t71.5 14q80 0 119 -47t28 -127l-36 -258h56
q12 0 11 -12l-6 -43q-1 -12 -15 -12z" />
    <glyph glyph-name="Itilde" unicode="&#x128;" horiz-adv-x="383" 
d="M311 0h-240q-13 0 -11 12l7 51q1 12 14 12h77l80 568h-77q-11 0 -10 12l7 51q2 12 14 12h240q14 0 11 -12l-7 -51q-2 -12 -14 -12h-77l-80 -568h77q12 0 11 -12l-7 -51q-2 -12 -15 -12zM440 910h24q11 0 10 -11q-3 -51 -28 -82.5t-75 -31.5q-25 0 -45 10t-30.5 21.5
t-24.5 21.5t-29 10q-21 0 -33 -12.5t-16 -44.5q-1 -12 -14 -12h-23q-11 0 -11 10q0 45 25.5 77.5t75.5 32.5q23 0 42.5 -10.5t30 -22.5t25.5 -22.5t31 -10.5q23 0 34.5 14t16.5 51q2 12 14 12z" />
    <glyph glyph-name="itilde" unicode="&#x129;" horiz-adv-x="333" 
d="M269 0h-192q-11 0 -10 12l6 43q1 12 14 12h56l50 358h-55q-12 0 -11 12l6 43q1 12 14 12h126q13 0 11 -12l-58 -413h53q13 0 11 -12l-7 -43q-1 -12 -14 -12zM376 684h24q11 0 10 -11q-3 -51 -28 -82.5t-75 -31.5q-25 0 -45 10t-30.5 21.5t-24.5 21.5t-29 10
q-21 0 -33 -12.5t-16 -44.5q-1 -12 -14 -12h-23q-11 0 -11 10q0 45 25.5 77.5t75.5 32.5q23 0 42.5 -10.5t30 -22.5t25.5 -22.5t31 -10.5q23 0 34.5 14t16.5 51q2 12 14 12z" />
    <glyph glyph-name="imacron" unicode="&#x12b;" horiz-adv-x="293" 
d="M242 0h-191q-13 0 -11 12l7 43q1 12 13 12h56l51 358h-56q-13 0 -11 12l6 43q2 12 14 12h126q12 0 11 -12l-58 -413h53q12 0 11 -12l-6 -43q-1 -12 -15 -12zM359 554h-295q-13 0 -11 13l6 42q2 14 15 14h295q14 0 12 -14l-6 -42q-2 -13 -16 -13z" />
    <glyph glyph-name="Ibreve" unicode="&#x12c;" horiz-adv-x="362" 
d="M301 0h-240q-13 0 -11 12l7 51q1 12 14 12h77l80 568h-77q-11 0 -10 12l7 51q2 12 14 12h240q14 0 11 -12l-7 -51q-2 -12 -14 -12h-77l-80 -568h77q12 0 11 -12l-7 -51q-2 -12 -15 -12zM411 941h31q12 0 12 -11q0 -63 -46 -102t-114 -39q-56 0 -89 30t-33 87q0 35 17 35
h32q10 0 10 -27q0 -34 19.5 -54t49.5 -20q35 0 62 23.5t33 64.5q2 13 16 13z" />
    <glyph glyph-name="Iogonek" unicode="&#x12e;" horiz-adv-x="368" 
d="M301 0h-240q-13 0 -11 12l7 51q1 12 14 12h77l80 568h-77q-11 0 -10 12l7 51q2 12 14 12h240q14 0 11 -12l-7 -51q-2 -12 -14 -12h-77l-80 -568h77q12 0 11 -12l-7 -51q-2 -12 -15 -12zM283 -107l7 -13q4 -11 -5 -17q-42 -24 -75 -24q-34 0 -53.5 17t-19.5 47
q0 42 38.5 71.5t62.5 29.5h43q-89 -46 -91 -91q0 -29 34 -29q21 0 41 11q15 6 18 -2z" />
    <glyph glyph-name="iogonek" unicode="&#x12f;" horiz-adv-x="302" 
d="M242 0h-191q-13 0 -11 12l7 43q1 12 13 12h56l51 358h-56q-13 0 -11 12l6 43q2 12 14 12h126q12 0 11 -12l-58 -413h53q12 0 11 -12l-6 -43q-1 -12 -15 -12zM288 607q0 -25 -20 -43.5t-45 -18.5q-21 0 -34.5 14t-13.5 35q0 25 19 44t45 19q21 0 35 -14.5t14 -35.5z
M215 -107l7 -13q4 -11 -5 -17q-42 -24 -75 -24q-34 0 -53.5 17t-19.5 47q0 42 38.5 71.5t62.5 29.5h43q-89 -46 -91 -91q0 -29 34 -29q21 0 41 11q15 6 18 -2z" />
    <glyph glyph-name="Idotaccent" unicode="&#x130;" horiz-adv-x="362" 
d="M301 0h-240q-13 0 -11 12l7 51q1 12 14 12h77l80 568h-77q-11 0 -10 12l7 51q2 12 14 12h240q14 0 11 -12l-7 -51q-2 -12 -14 -12h-77l-80 -568h77q12 0 11 -12l-7 -51q-2 -12 -15 -12zM354 850q0 -23 -18.5 -40.5t-42.5 -17.5q-19 0 -32 13t-13 33q0 24 18 41.5t42 17.5
q20 0 33 -13.5t13 -33.5z" />
    <glyph glyph-name="dotlessi" unicode="&#x131;" horiz-adv-x="293" 
d="M242 0h-191q-13 0 -11 12l7 43q1 12 13 12h56l51 358h-56q-13 0 -11 12l6 43q2 12 14 12h126q12 0 11 -12l-58 -413h53q12 0 11 -12l-6 -43q-1 -12 -15 -12z" />
    <glyph glyph-name="Jcircumflex" unicode="&#x134;" horiz-adv-x="513" 
d="M565 830l-29 -29q-10 -10 -19 -2l-109 105l-137 -105q-12 -9 -19 2l-21 29q-7 10 5 19l174 136q5 4 11 4q5 0 9 -5l135 -135q8 -9 0 -19zM325 262l54 381h-77q-12 0 -10 12l7 51q1 12 14 12h240q14 0 11 -12l-7 -51q-1 -12 -14 -12h-77l-52 -372q-20 -146 -98.5 -208.5
t-225.5 -62.5q-12 0 -11 12l8 51q1 12 13 12q111 0 161.5 45.5t63.5 141.5z" />
    <glyph glyph-name="jcircumflex" unicode="&#x135;" horiz-adv-x="343" 
d="M181 -63l68 488h-57q-12 0 -10 12l6 43q2 12 14 12h127q13 0 10 -12l-76 -544q-12 -83 -60.5 -126.5t-124.5 -43.5q-61 0 -95 39q-9 9 1 19l27 30q10 10 19 2q19 -19 50 -19q41 0 67.5 25.5t33.5 74.5zM475 604l-29 -29q-10 -10 -19 -2l-109 105l-137 -105q-12 -9 -19 2
l-21 29q-7 10 5 19l174 136q5 4 11 4q5 0 9 -5l135 -135q8 -9 0 -19z" />
    <glyph glyph-name="Kcommaaccent" unicode="&#x136;" horiz-adv-x="763" 
d="M283 -222l3 17q2 6 7 6q18 0 33.5 15t15.5 43l-1 6q-6 -5 -19 -5q-16 0 -26.5 11t-10.5 29q0 22 16 38t38 16q46 0 46 -58q0 -61 -27 -92.5t-68 -31.5q-7 0 -7 6zM702 0h-87q-36 0 -52 48l-68 191q-5 16 -10.5 25t-25.5 18t-53 9h-141l-30 -216h92q13 0 11 -12l-7 -51
q-1 -12 -15 -12h-255q-13 0 -11 12l7 51q1 12 14 12h77l80 568h-77q-11 0 -10 12l7 51q2 12 14 12h224q12 0 11 -12l-7 -51q-2 -12 -15 -12h-60l-40 -281h105q106 0 166.5 62.5t82.5 218.5h-69q-12 0 -10 12l7 51q1 12 14 12h223q12 0 11 -12l-7 -51q-2 -12 -15 -12h-68
q-34 -241 -181 -315q16 -8 27 -21.5t15 -23.5t13 -35l63 -173h61q13 0 10 -12l-7 -51q-2 -12 -14 -12z" />
    <glyph glyph-name="kcommaaccent" unicode="&#x137;" horiz-adv-x="614" 
d="M242 -222l3 17q1 6 7 6q18 0 33.5 15t15.5 43l-1 6q-6 -5 -19 -5q-16 0 -26.5 11t-10.5 29q0 22 16 38t38 16q46 0 46 -58q0 -61 -27 -92.5t-68 -31.5q-7 0 -7 6zM570 0h-54q-29 0 -48 31l-144 240l-109 -90l-16 -114h53q12 0 11 -12l-6 -43q-1 -12 -15 -12h-191
q-13 0 -11 12l7 43q1 12 13 12h56l82 584h-55q-14 0 -11 12l6 43q2 12 14 12h126q12 0 11 -12l-63 -448l206 167h-37q-13 0 -11 12l6 43q3 12 15 12h192q11 0 10 -12l-6 -43q-1 -12 -14 -12h-65l-137 -107l151 -251h44q12 0 11 -12l-7 -43q-2 -12 -14 -12z" />
    <glyph glyph-name="Lacute" unicode="&#x139;" horiz-adv-x="670" 
d="M555 932l-186 -134q-13 -7 -20 3l-20 29q-8 9 5 19l180 141q10 9 20 -1l25 -38q8 -9 -4 -19zM608 0h-547q-13 0 -11 12l7 51q1 12 14 12h77l80 568h-77q-11 0 -10 12l7 51q2 12 14 12h239q14 0 12 -13l-7 -49q-2 -13 -15 -13h-76l-80 -568h318l14 98q1 12 14 12h55
q12 0 10 -12l-22 -160q-2 -13 -16 -13z" />
    <glyph glyph-name="lacute" unicode="&#x13a;" horiz-adv-x="293" 
d="M422 895l-186 -134q-13 -7 -20 3l-20 29q-8 9 5 19l180 141q10 9 20 -1l25 -38q8 -9 -4 -19zM242 0h-191q-13 0 -11 12l7 43q1 12 13 12h56l83 584h-56q-14 0 -11 12l6 43q2 12 14 12h111q28 0 24 -25l-88 -626h53q12 0 11 -12l-6 -43q-1 -12 -15 -12z" />
    <glyph glyph-name="Lcommaaccent" unicode="&#x13b;" horiz-adv-x="670" 
d="M251 -222l3 17q2 6 7 6q18 0 33.5 15t15.5 43l-1 6q-6 -5 -19 -5q-16 0 -26.5 11t-10.5 29q0 22 16 38t38 16q46 0 46 -58q0 -61 -27 -92.5t-68 -31.5q-7 0 -7 6zM608 0h-547q-13 0 -11 12l7 51q1 12 14 12h77l80 568h-77q-11 0 -10 12l7 51q2 12 14 12h239q14 0 12 -13
l-7 -49q-2 -13 -15 -13h-76l-80 -568h318l14 98q1 12 14 12h55q12 0 10 -12l-22 -160q-2 -13 -16 -13z" />
    <glyph glyph-name="lcommaaccent" unicode="&#x13c;" horiz-adv-x="293" 
d="M85 -222l3 17q2 6 7 6q18 0 33.5 15t15.5 43l-1 6q-6 -5 -19 -5q-16 0 -26.5 11t-10.5 29q0 22 16 38t38 16q46 0 46 -58q0 -61 -27 -92.5t-68 -31.5q-7 0 -7 6zM242 0h-191q-13 0 -11 12l7 43q1 12 13 12h56l83 584h-56q-14 0 -11 12l6 43q2 12 14 12h111q28 0 24 -25
l-88 -626h53q12 0 11 -12l-6 -43q-1 -12 -15 -12z" />
    <glyph glyph-name="Lcaron" unicode="&#x13d;" horiz-adv-x="670" 
d="M422 540l3 17q1 6 7 6q18 0 33.5 15t15.5 43l-1 7q-6 -5 -19 -5q-16 0 -26.5 11t-10.5 29q0 22 16 37.5t38 15.5q46 0 46 -58q0 -60 -27 -92t-68 -32q-7 0 -7 6zM608 0h-547q-13 0 -11 12l7 51q1 12 14 12h77l80 568h-77q-11 0 -10 12l7 51q2 12 14 12h239q14 0 12 -13
l-7 -49q-2 -13 -15 -13h-76l-80 -568h318l14 98q1 12 14 12h55q12 0 10 -12l-22 -160q-2 -13 -16 -13z" />
    <glyph glyph-name="lcaron" unicode="&#x13e;" horiz-adv-x="293" 
d="M330 567l3 17q1 6 7 6q18 0 33.5 15t15.5 43l-1 7q-6 -5 -19 -5q-16 0 -26.5 11t-10.5 29q0 22 16 37.5t38 15.5q46 0 46 -58q0 -60 -27 -92t-68 -32q-7 0 -7 6zM242 0h-191q-13 0 -11 12l7 43q1 12 13 12h56l83 584h-56q-14 0 -11 12l6 43q2 12 14 12h111q28 0 24 -25
l-88 -626h53q12 0 11 -12l-6 -43q-1 -12 -15 -12z" />
    <glyph glyph-name="Ldot" unicode="&#x13f;" horiz-adv-x="670" 
d="M336 199q-17 0 -27.5 11t-10.5 28q0 21 15 36.5t36 15.5q17 0 28.5 -12t11.5 -29q0 -21 -16 -35.5t-37 -14.5zM608 0h-547q-13 0 -11 12l7 51q1 12 14 12h77l80 568h-77q-11 0 -10 12l7 51q2 12 14 12h239q14 0 12 -13l-7 -49q-2 -13 -15 -13h-76l-80 -568h318l14 98
q1 12 14 12h55q12 0 10 -12l-22 -160q-2 -13 -16 -13z" />
    <glyph glyph-name="ldot" unicode="&#x140;" horiz-adv-x="293" 
d="M242 0h-191q-13 0 -11 12l7 43q1 12 13 12h56l83 584h-56q-14 0 -11 12l6 43q2 12 14 12h111q28 0 24 -25l-88 -626h53q12 0 11 -12l-6 -43q-1 -12 -15 -12z" />
    <glyph glyph-name="Lslash" unicode="&#x141;" horiz-adv-x="677" 
d="M616 0h-548q-12 0 -10 12l7 51q1 12 14 12h76l27 189l-75 -66q-11 -10 -19 0l-17 21q-9 9 2 19l120 104l42 301h-76q-13 0 -11 12l7 51q1 12 14 12h239q14 0 12 -13l-6 -49q-2 -13 -16 -13h-76l-29 -214l126 112q12 9 19 0l17 -21q9 -11 -2 -19l-172 -151l-39 -275h318
l14 98q2 12 14 12h55q11 0 10 -12l-22 -160q-2 -13 -15 -13z" />
    <glyph glyph-name="lslash" unicode="&#x142;" horiz-adv-x="293" 
d="M242 0h-191q-13 0 -11 12l6 43q2 12 14 12h56l26 189l-100 -88q-11 -10 -19 0l-17 20q-8 10 3 19l145 127l44 317h-55q-13 0 -12 12l7 43q2 12 14 12h111q27 0 24 -25l-39 -277l107 94q11 10 19 0l16 -20q8 -10 -2 -19l-151 -132l-38 -272h53q12 0 11 -12l-6 -43
q-3 -12 -15 -12z" />
    <glyph glyph-name="Nacute" unicode="&#x143;" horiz-adv-x="820" 
d="M651 932l-186 -134q-13 -7 -20 3l-20 29q-8 9 5 19l180 141q10 9 20 -1l25 -38q8 -9 -4 -19zM670 0h-54q-19 0 -28.5 7.5t-17.5 23.5l-226 452l-38 84h-2l-69 -492h77q12 0 11 -12l-7 -51q-2 -12 -15 -12h-240q-13 0 -11 12l7 51q1 12 14 12h77l80 568h-77q-11 0 -10 12
l7 51q2 12 14 12h140q30 0 46 -34l223 -446l43 -97h2l70 502h-76q-12 0 -11 12l7 51q2 12 14 12h241q13 0 11 -12l-7 -51q-1 -12 -14 -12h-78l-88 -631q-1 -12 -15 -12z" />
    <glyph glyph-name="nacute" unicode="&#x144;" horiz-adv-x="621" 
d="M524 706l-186 -134q-13 -7 -20 3l-20 29q-8 9 5 19l180 141q10 9 20 -1l25 -38q8 -9 -4 -19zM570 0h-95q-22 0 -31 9.5t-6 32.5l36 263q8 57 -15 89.5t-73 32.5q-34 0 -65 -20.5t-50 -50t-29 -48.5t-14 -30v-1l-29 -210h53q12 0 11 -12l-6 -43q-1 -12 -15 -12h-191
q-13 0 -11 12l7 43q1 12 13 12h56l51 358h-56q-13 0 -11 12l6 43q2 12 14 12h118q12 0 10 -12l-18 -120h3q1 6 4.5 15t17.5 33t32.5 42.5t52 33.5t74.5 15q80 0 118.5 -47t27.5 -127l-36 -258h56q12 0 11 -12l-6 -43q-1 -12 -15 -12z" />
    <glyph glyph-name="Ncommaaccent" unicode="&#x145;" horiz-adv-x="820" 
d="M348 -222l3 17q1 6 7 6q18 0 33.5 15t15.5 43l-1 6q-6 -5 -19 -5q-16 0 -26.5 11t-10.5 29q0 22 16 38t38 16q46 0 46 -58q0 -61 -27 -92.5t-68 -31.5q-7 0 -7 6zM670 0h-54q-19 0 -28.5 7.5t-17.5 23.5l-226 452l-38 84h-2l-69 -492h77q12 0 11 -12l-7 -51
q-2 -12 -15 -12h-240q-13 0 -11 12l7 51q1 12 14 12h77l80 568h-77q-11 0 -10 12l7 51q2 12 14 12h140q30 0 46 -34l223 -446l43 -97h2l70 502h-76q-12 0 -11 12l7 51q2 12 14 12h241q13 0 11 -12l-7 -51q-1 -12 -14 -12h-78l-88 -631q-1 -12 -15 -12z" />
    <glyph glyph-name="ncommaaccent" unicode="&#x146;" horiz-adv-x="621" 
d="M241 -222l3 17q2 6 7 6q18 0 33.5 15t15.5 43l-1 6q-6 -5 -19 -5q-16 0 -26.5 11t-10.5 29q0 22 16 38t38 16q46 0 46 -58q0 -61 -27 -92.5t-68 -31.5q-7 0 -7 6zM570 0h-95q-22 0 -31 9.5t-6 32.5l36 263q8 57 -15 89.5t-73 32.5q-34 0 -65 -20.5t-50 -50t-29 -48.5
t-14 -30v-1l-29 -210h53q12 0 11 -12l-6 -43q-1 -12 -15 -12h-191q-13 0 -11 12l7 43q1 12 13 12h56l51 358h-56q-13 0 -11 12l6 43q2 12 14 12h118q12 0 10 -12l-18 -120h3q1 6 4.5 15t17.5 33t32.5 42.5t52 33.5t74.5 15q80 0 118.5 -47t27.5 -127l-36 -258h56
q12 0 11 -12l-6 -43q-1 -12 -15 -12z" />
    <glyph glyph-name="Ncaron" unicode="&#x147;" horiz-adv-x="820" 
d="M710 939l-174 -135q-5 -5 -10 -5q-6 0 -10 4l-135 136q-10 8 -1 19l30 28q9 10 19 2l107 -105l139 105q12 8 19 -2l20 -28q5 -10 -4 -19zM670 0h-54q-19 0 -28.5 7.5t-17.5 23.5l-226 452l-38 84h-2l-69 -492h77q12 0 11 -12l-7 -51q-2 -12 -15 -12h-240q-13 0 -11 12
l7 51q1 12 14 12h77l80 568h-77q-11 0 -10 12l7 51q2 12 14 12h140q30 0 46 -34l223 -446l43 -97h2l70 502h-76q-12 0 -11 12l7 51q2 12 14 12h241q13 0 11 -12l-7 -51q-1 -12 -14 -12h-78l-88 -631q-1 -12 -15 -12z" />
    <glyph glyph-name="ncaron" unicode="&#x148;" horiz-adv-x="621" 
d="M572 713l-174 -135q-5 -5 -10 -5q-6 0 -10 4l-135 136q-10 8 -1 19l30 28q9 10 19 2l107 -105l139 105q12 8 19 -2l20 -28q5 -10 -4 -19zM570 0h-95q-22 0 -31 9.5t-6 32.5l36 263q8 57 -15 89.5t-73 32.5q-34 0 -65 -20.5t-50 -50t-29 -48.5t-14 -30v-1l-29 -210h53
q12 0 11 -12l-6 -43q-1 -12 -15 -12h-191q-13 0 -11 12l7 43q1 12 13 12h56l51 358h-56q-13 0 -11 12l6 43q2 12 14 12h118q12 0 10 -12l-18 -120h3q1 6 4.5 15t17.5 33t32.5 42.5t52 33.5t74.5 15q80 0 118.5 -47t27.5 -127l-36 -258h56q12 0 11 -12l-6 -43q-1 -12 -15 -12
z" />
    <glyph glyph-name="Eng" unicode="&#x14a;" horiz-adv-x="801" 
d="M344 -219l7 50q2 13 15 13q111 0 163 37.5t57 117.5v4q-16 6 -27 28l-224 452l-39 84h-2l-69 -492h77q12 0 11 -12l-7 -51q-2 -12 -15 -12h-240q-13 0 -11 12l7 51q1 12 14 12h77l80 568h-77q-11 0 -10 12l7 51q2 12 14 12h140q29 0 47 -34l222 -446l43 -97h2l70 502h-76
q-12 0 -11 12l8 51q1 12 13 12h241q13 0 11 -12l-7 -51q-1 -12 -14 -12h-77l-89 -629q-18 -125 -93.5 -185.5t-226.5 -60.5q-13 0 -11 13z" />
    <glyph glyph-name="eng" unicode="&#x14b;" horiz-adv-x="552" 
d="M423 -63l51 368q8 58 -15 90t-77 32q-33 0 -60.5 -10.5t-46 -29t-24.5 -26t-13 -18.5l-1 -1l-38 -275h53q12 0 11 -12l-6 -43q-1 -12 -15 -12h-191q-13 0 -11 12l7 43q1 12 13 12h56l51 358h-56q-13 0 -11 12l6 43q2 12 14 12h98q18 0 24.5 -6.5t3.5 -23.5l-9 -50h3
q65 87 174 87q80 0 118 -47t27 -127l-53 -389q-12 -83 -60.5 -126.5t-124.5 -43.5q-56 0 -95 39q-9 9 0 19l27 30q8 7 19 3q25 -20 51 -20q41 0 67 25.5t33 74.5z" />
    <glyph glyph-name="Omacron" unicode="&#x14c;" horiz-adv-x="793" 
d="M655 780h-295q-13 0 -11 13l6 42q2 14 15 14h295q14 0 12 -14l-6 -42q-2 -13 -16 -13zM396 -7q-133 0 -217.5 88.5t-84.5 230.5q0 93 35 172.5t92.5 131t129.5 80t147 28.5q128 0 215 -84t87 -226q0 -184 -118.5 -302.5t-285.5 -118.5zM407 74q73 0 139.5 36.5
t112.5 113.5t46 179q0 114 -65 178t-153 64q-51 0 -102.5 -21t-96 -60.5t-72 -104t-27.5 -143.5q0 -113 63.5 -177.5t154.5 -64.5z" />
    <glyph glyph-name="omacron" unicode="&#x14d;" horiz-adv-x="575" 
d="M513 554h-295q-13 0 -11 13l6 42q2 14 15 14h295q14 0 12 -14l-6 -42q-2 -13 -16 -13zM286 -7q-96 0 -156 59.5t-60 159.5q0 129 84.5 208t203.5 79q96 0 156 -58.5t60 -157.5q0 -128 -83 -209t-205 -81zM296 63q76 0 135 59.5t59 151.5q0 70 -41 112.5t-101 42.5
q-76 0 -135 -58.5t-59 -150.5q0 -71 40.5 -114t101.5 -43z" />
    <glyph glyph-name="Obreve" unicode="&#x14e;" horiz-adv-x="793" 
d="M396 -7q-133 0 -217.5 88.5t-84.5 230.5q0 93 35 172.5t92.5 131t129.5 80t147 28.5q128 0 215 -84t87 -226q0 -184 -118.5 -302.5t-285.5 -118.5zM407 74q73 0 139.5 36.5t112.5 113.5t46 179q0 114 -65 178t-153 64q-51 0 -102.5 -21t-96 -60.5t-72 -104t-27.5 -143.5
q0 -113 63.5 -177.5t154.5 -64.5zM626 941h31q12 0 12 -11q0 -63 -46 -102t-114 -39q-56 0 -89 30t-33 87q0 35 17 35h32q10 0 10 -27q0 -34 19.5 -54t49.5 -20q35 0 62 23.5t33 64.5q2 13 16 13z" />
    <glyph glyph-name="obreve" unicode="&#x14f;" horiz-adv-x="575" 
d="M286 -7q-96 0 -156 59.5t-60 159.5q0 129 84.5 208t203.5 79q96 0 156 -58.5t60 -157.5q0 -128 -83 -209t-205 -81zM296 63q76 0 135 59.5t59 151.5q0 70 -41 112.5t-101 42.5q-76 0 -135 -58.5t-59 -150.5q0 -71 40.5 -114t101.5 -43zM487 715h31q12 0 12 -11
q0 -63 -46 -102t-114 -39q-56 0 -89 30t-33 87q0 35 17 35h32q10 0 10 -27q0 -34 19.5 -54t49.5 -20q35 0 62 23.5t33 64.5q2 13 16 13z" />
    <glyph glyph-name="Ohungarumlaut" unicode="&#x150;" horiz-adv-x="793" 
d="M609 941l-186 -134q-12 -7 -19 3l-21 29q-7 9 5 19l181 141q10 10 19 -1l26 -38q6 -11 -5 -19zM782 941l-186 -134q-13 -7 -20 3l-20 29q-8 9 5 19l180 141q10 9 20 -1l25 -38q8 -11 -4 -19zM396 -7q-133 0 -217.5 88.5t-84.5 230.5q0 93 35 172.5t92.5 131t129.5 80
t147 28.5q128 0 215 -84t87 -226q0 -184 -118.5 -302.5t-285.5 -118.5zM407 74q73 0 139.5 36.5t112.5 113.5t46 179q0 114 -65 178t-153 64q-51 0 -102.5 -21t-96 -60.5t-72 -104t-27.5 -143.5q0 -113 63.5 -177.5t154.5 -64.5z" />
    <glyph glyph-name="ohungarumlaut" unicode="&#x151;" horiz-adv-x="575" 
d="M422 715l-186 -134q-12 -7 -19 3l-21 29q-7 9 5 19l181 141q10 10 19 -1l26 -38q6 -11 -5 -19zM595 715l-186 -134q-13 -7 -20 3l-20 29q-8 9 5 19l180 141q10 9 20 -1l25 -38q8 -11 -4 -19zM286 -7q-96 0 -156 59.5t-60 159.5q0 129 84.5 208t203.5 79q96 0 156 -58.5
t60 -157.5q0 -128 -83 -209t-205 -81zM296 63q76 0 135 59.5t59 151.5q0 70 -41 112.5t-101 42.5q-76 0 -135 -58.5t-59 -150.5q0 -71 40.5 -114t101.5 -43z" />
    <glyph glyph-name="OE" unicode="&#x152;" horiz-adv-x="907" 
d="M847 0h-454q-132 0 -215.5 86t-83.5 226q0 123 59 217.5t149 141.5t191 47h455q12 0 10 -12l-23 -161q-2 -13 -14 -13h-54q-13 0 -11 13l14 98h-301l-35 -248h253q13 0 11 -12l-7 -51q-1 -12 -14 -12h-254l-34 -245h302l13 98q3 12 14 12h54q12 0 11 -12l-23 -161
q-2 -12 -13 -12zM402 79l79 560q-51 -1 -101 -21.5t-93.5 -58.5t-70.5 -101t-27 -141q0 -111 62 -173.5t151 -64.5z" />
    <glyph glyph-name="oe" unicode="&#x153;" horiz-adv-x="954" 
d="M699 -7q-67 0 -116.5 31t-71.5 88q-37 -57 -96.5 -88t-128.5 -31q-96 0 -156 59.5t-60 159.5q0 129 84.5 208t203.5 79q67 0 118 -30.5t73 -85.5q37 55 93.5 85.5t117.5 30.5q92 0 142.5 -53.5t50.5 -148.5q0 -61 -21 -61h-360q-8 -83 34.5 -128t107.5 -45q57 0 104 26
t65 51q10 12 19 3l23 -27q9 -9 1 -18q-8 -11 -24.5 -26t-45 -34t-70 -32t-87.5 -13zM296 63q78 0 136 58.5t58 151.5q0 71 -41 113.5t-101 42.5q-76 0 -135 -58.5t-59 -150.5q0 -71 40.5 -114t101.5 -43zM580 297h290q5 62 -26 99t-94 37q-57 0 -104.5 -34t-65.5 -102z" />
    <glyph glyph-name="Racute" unicode="&#x154;" horiz-adv-x="715" 
d="M573 932l-186 -134q-13 -7 -20 3l-20 29q-8 9 5 19l180 141q10 9 20 -1l25 -38q8 -9 -4 -19zM655 0h-87q-36 0 -52 48l-68 191q-9 26 -20.5 38t-35.5 12h-127l-30 -214h89q12 0 11 -12l-7 -51q-2 -12 -14 -12h-253q-13 0 -11 12l7 51q1 12 14 12h77l80 568h-77
q-11 0 -10 12l7 51q2 12 14 12h308q97 0 155 -48.5t58 -137.5q0 -88 -45.5 -146t-130.5 -80q18 -15 37 -67l61 -164h60q13 0 11 -12l-7 -51q-1 -12 -14 -12zM275 360h128q192 0 192 162q0 121 -153 121h-127z" />
    <glyph glyph-name="racute" unicode="&#x155;" horiz-adv-x="421" 
d="M463 706l-186 -134q-13 -7 -20 3l-20 29q-8 9 5 19l180 141q10 9 20 -1l25 -38q8 -9 -4 -19zM242 0h-191q-13 0 -11 12l7 43q1 12 13 12h56l51 358h-56q-13 0 -11 12l6 43q2 12 14 12h118q13 0 10 -12l-17 -125h3q2 6 6.5 15t23.5 33t43 42.5t67 33.5t94 15q13 0 11 -13
l-8 -53q-2 -13 -14 -13h-21q-86 0 -145 -55t-69 -125l-23 -168h53q12 0 11 -12l-6 -43q-1 -12 -15 -12z" />
    <glyph glyph-name="Rcommaaccent" unicode="&#x156;" horiz-adv-x="715" 
d="M279 -222l3 17q2 6 7 6q18 0 33.5 15t15.5 43l-1 6q-6 -5 -19 -5q-16 0 -26.5 11t-10.5 29q0 22 16 38t38 16q46 0 46 -58q0 -61 -27 -92.5t-68 -31.5q-7 0 -7 6zM655 0h-87q-36 0 -52 48l-68 191q-9 26 -20.5 38t-35.5 12h-127l-30 -214h89q12 0 11 -12l-7 -51
q-2 -12 -14 -12h-253q-13 0 -11 12l7 51q1 12 14 12h77l80 568h-77q-11 0 -10 12l7 51q2 12 14 12h308q97 0 155 -48.5t58 -137.5q0 -88 -45.5 -146t-130.5 -80q18 -15 37 -67l61 -164h60q13 0 11 -12l-7 -51q-1 -12 -14 -12zM275 360h128q192 0 192 162q0 121 -153 121
h-127z" />
    <glyph glyph-name="rcommaaccent" unicode="&#x157;" horiz-adv-x="421" 
d="M87 -222l3 17q2 6 7 6q18 0 33.5 15t15.5 43l-1 6q-6 -5 -19 -5q-16 0 -26.5 11t-10.5 29q0 22 16 38t38 16q46 0 46 -58q0 -61 -27 -92.5t-68 -31.5q-7 0 -7 6zM242 0h-191q-13 0 -11 12l7 43q1 12 13 12h56l51 358h-56q-13 0 -11 12l6 43q2 12 14 12h118q13 0 10 -12
l-17 -125h3q2 6 6.5 15t23.5 33t43 42.5t67 33.5t94 15q13 0 11 -13l-8 -53q-2 -13 -14 -13h-21q-86 0 -145 -55t-69 -125l-23 -168h53q12 0 11 -12l-6 -43q-1 -12 -15 -12z" />
    <glyph glyph-name="Rcaron" unicode="&#x158;" horiz-adv-x="715" 
d="M629 939l-174 -135q-5 -5 -10 -5q-6 0 -10 4l-135 136q-10 8 -1 19l30 28q9 10 19 2l107 -105l139 105q12 8 19 -2l20 -28q5 -10 -4 -19zM655 0h-87q-36 0 -52 48l-68 191q-9 26 -20.5 38t-35.5 12h-127l-30 -214h89q12 0 11 -12l-7 -51q-2 -12 -14 -12h-253
q-13 0 -11 12l7 51q1 12 14 12h77l80 568h-77q-11 0 -10 12l7 51q2 12 14 12h308q97 0 155 -48.5t58 -137.5q0 -88 -45.5 -146t-130.5 -80q18 -15 37 -67l61 -164h60q13 0 11 -12l-7 -51q-1 -12 -14 -12zM275 360h128q192 0 192 162q0 121 -153 121h-127z" />
    <glyph glyph-name="rcaron" unicode="&#x159;" horiz-adv-x="435" 
d="M477 713l-174 -135q-5 -5 -10 -5q-6 0 -10 4l-135 136q-10 8 -1 19l30 28q9 10 19 2l107 -105l139 105q12 8 19 -2l20 -28q5 -10 -4 -19zM256 0h-191q-13 0 -11 12l7 43q1 12 13 12h56l51 358h-56q-13 0 -11 12l6 43q2 12 14 12h118q13 0 10 -12l-17 -125h3q2 6 6.5 15
t23.5 33t43 42.5t67 33.5t94 15q13 0 11 -13l-8 -53q-2 -13 -14 -13h-21q-86 0 -145 -55t-69 -125l-23 -168h53q12 0 11 -12l-6 -43q-1 -12 -15 -12z" />
    <glyph glyph-name="Sacute" unicode="&#x15a;" horiz-adv-x="666" 
d="M590 932l-186 -134q-13 -7 -20 3l-20 29q-8 9 5 19l180 141q10 9 20 -1l25 -38q8 -9 -4 -19zM117 0h-56q-13 0 -11 12l33 234q2 13 14 13h63q13 0 11 -13l-3 -21q-1 -6 3.5 -21.5t17.5 -38t33.5 -42.5t57 -34.5t81.5 -14.5q84 0 133 35.5t49 97.5q0 30 -22 50.5t-57.5 33
t-78 23t-85 24.5t-78 33.5t-57.5 54t-22 81.5q0 92 73 154.5t190 62.5q137 0 187 -79l7 62q2 12 14 12h57q11 0 10 -12l-30 -218q-3 -12 -15 -12h-63q-11 0 -10 12l4 28q5 41 -34.5 83t-128.5 42q-72 0 -118.5 -35.5t-46.5 -88.5q0 -43 42 -69t102 -40.5t120 -32.5t102 -58
t42 -102q0 -93 -71.5 -158t-209.5 -65q-92 0 -146.5 37t-75.5 80l-13 -98q-1 -12 -14 -12z" />
    <glyph glyph-name="sacute" unicode="&#x15b;" horiz-adv-x="486" 
d="M465 706l-186 -134q-13 -7 -20 3l-20 29q-8 9 5 19l180 141q10 9 20 -1l25 -38q8 -9 -4 -19zM259 -7q-67 0 -103 25t-44 47h-2q-5 -49 -5 -52q-2 -13 -16 -13h-34q-13 0 -11 13l21 150q2 13 15 13h39q14 0 12 -13l-3 -20q1 -3 2.5 -9t10.5 -20.5t22 -26t38 -20.5t57 -9
q57 0 88 23t31 61q0 25 -28 40.5t-68 25t-80 22t-68 40.5t-28 71q0 71 54.5 114.5t134.5 43.5q99 0 133 -58h2q3 32 3 33q1 17 16 17h32q13 0 11 -13l-20 -139q-2 -13 -16 -13h-39q-13 0 -11 13l2 14q5 27 -23.5 53.5t-89.5 26.5q-43 0 -75 -23t-32 -62q0 -26 28.5 -43
t69.5 -27.5t82 -23t69.5 -39t28.5 -67.5q0 -64 -51.5 -109.5t-154.5 -45.5z" />
    <glyph glyph-name="Scircumflex" unicode="&#x15c;" horiz-adv-x="666" 
d="M616 830l-29 -29q-10 -10 -19 -2l-109 105l-137 -105q-12 -9 -19 2l-21 29q-7 10 5 19l174 136q5 4 11 4q5 0 9 -5l135 -135q8 -9 0 -19zM117 0h-56q-13 0 -11 12l33 234q2 13 14 13h63q13 0 11 -13l-3 -21q-1 -6 3.5 -21.5t17.5 -38t33.5 -42.5t57 -34.5t81.5 -14.5
q84 0 133 35.5t49 97.5q0 30 -22 50.5t-57.5 33t-78 23t-85 24.5t-78 33.5t-57.5 54t-22 81.5q0 92 73 154.5t190 62.5q137 0 187 -79l7 62q2 12 14 12h57q11 0 10 -12l-30 -218q-3 -12 -15 -12h-63q-11 0 -10 12l4 28q5 41 -34.5 83t-128.5 42q-72 0 -118.5 -35.5
t-46.5 -88.5q0 -43 42 -69t102 -40.5t120 -32.5t102 -58t42 -102q0 -93 -71.5 -158t-209.5 -65q-92 0 -146.5 37t-75.5 80l-13 -98q-1 -12 -14 -12z" />
    <glyph glyph-name="scircumflex" unicode="&#x15d;" horiz-adv-x="486" 
d="M485 604l-29 -29q-10 -10 -19 -2l-109 105l-137 -105q-12 -9 -19 2l-21 29q-7 10 5 19l174 136q5 4 11 4q5 0 9 -5l135 -135q8 -9 0 -19zM259 -7q-67 0 -103 25t-44 47h-2q-5 -49 -5 -52q-2 -13 -16 -13h-34q-13 0 -11 13l21 150q2 13 15 13h39q14 0 12 -13l-3 -20
q1 -3 2.5 -9t10.5 -20.5t22 -26t38 -20.5t57 -9q57 0 88 23t31 61q0 25 -28 40.5t-68 25t-80 22t-68 40.5t-28 71q0 71 54.5 114.5t134.5 43.5q99 0 133 -58h2q3 32 3 33q1 17 16 17h32q13 0 11 -13l-20 -139q-2 -13 -16 -13h-39q-13 0 -11 13l2 14q5 27 -23.5 53.5
t-89.5 26.5q-43 0 -75 -23t-32 -62q0 -26 28.5 -43t69.5 -27.5t82 -23t69.5 -39t28.5 -67.5q0 -64 -51.5 -109.5t-154.5 -45.5z" />
    <glyph glyph-name="Scedilla" unicode="&#x15e;" horiz-adv-x="666" 
d="M306 -156q-34 0 -69 23q-9 7 0 16l12 12q9 8 16 3q16 -13 43 -13q48 0 48 37q0 22 -46 22q-24 0 -17 17l18 36q-67 11 -108.5 44t-58.5 69l-13 -98q-1 -12 -14 -12h-56q-13 0 -11 12l33 234q2 13 14 13h63q13 0 11 -13l-3 -21q-1 -6 3.5 -21.5t17.5 -38t33.5 -42.5
t57 -34.5t81.5 -14.5q84 0 133 35.5t49 97.5q0 30 -22 50.5t-57.5 33t-78 23t-85 24.5t-78 33.5t-57.5 54t-22 81.5q0 92 73 154.5t190 62.5q137 0 187 -79l7 62q2 12 14 12h57q11 0 10 -12l-30 -218q-3 -12 -15 -12h-63q-11 0 -10 12l4 28q5 41 -34.5 83t-128.5 42
q-72 0 -118.5 -35.5t-46.5 -88.5q0 -43 42 -69t102 -40.5t120 -32.5t102 -58t42 -102q0 -93 -71.5 -158t-209.5 -65h-15l-8 -18q62 0 62 -48q0 -37 -27 -60t-72 -23z" />
    <glyph glyph-name="scedilla" unicode="&#x15f;" horiz-adv-x="486" 
d="M216 -156q-34 0 -69 23q-9 7 0 16l12 12q9 8 16 3q16 -13 43 -13q48 0 48 37q0 22 -46 22q-24 0 -17 17l17 35q-48 7 -75 29t-33 40h-2q-5 -49 -5 -52q-2 -13 -16 -13h-34q-13 0 -11 13l21 150q2 13 15 13h39q14 0 12 -13l-3 -20q1 -3 2.5 -9t10.5 -20.5t22 -26t38 -20.5
t57 -9q57 0 88 23t31 61q0 25 -28 40.5t-68 25t-80 22t-68 40.5t-28 71q0 71 54.5 114.5t134.5 43.5q99 0 133 -58h2q3 32 3 33q1 17 16 17h32q13 0 11 -13l-20 -139q-2 -13 -16 -13h-39q-13 0 -11 13l2 14q5 27 -23.5 53.5t-89.5 26.5q-43 0 -75 -23t-32 -62
q0 -26 28.5 -43t69.5 -27.5t82 -23t69.5 -39t28.5 -67.5q0 -63 -51.5 -108.5t-152.5 -46.5l-8 -18q62 0 62 -48q0 -37 -27 -60t-72 -23z" />
    <glyph glyph-name="Scaron" unicode="&#x160;" horiz-adv-x="666" 
d="M632 939l-174 -135q-5 -5 -10 -5q-6 0 -10 4l-135 136q-10 8 -1 19l30 28q9 10 19 2l107 -105l139 105q12 8 19 -2l20 -28q5 -10 -4 -19zM117 0h-56q-13 0 -11 12l33 234q2 13 14 13h63q13 0 11 -13l-3 -21q-1 -6 3.5 -21.5t17.5 -38t33.5 -42.5t57 -34.5t81.5 -14.5
q84 0 133 35.5t49 97.5q0 30 -22 50.5t-57.5 33t-78 23t-85 24.5t-78 33.5t-57.5 54t-22 81.5q0 92 73 154.5t190 62.5q137 0 187 -79l7 62q2 12 14 12h57q11 0 10 -12l-30 -218q-3 -12 -15 -12h-63q-11 0 -10 12l4 28q5 41 -34.5 83t-128.5 42q-72 0 -118.5 -35.5
t-46.5 -88.5q0 -43 42 -69t102 -40.5t120 -32.5t102 -58t42 -102q0 -93 -71.5 -158t-209.5 -65q-92 0 -146.5 37t-75.5 80l-13 -98q-1 -12 -14 -12z" />
    <glyph glyph-name="scaron" unicode="&#x161;" horiz-adv-x="486" 
d="M503 713l-174 -135q-5 -5 -10 -5q-6 0 -10 4l-135 136q-10 8 -1 19l30 28q9 10 19 2l107 -105l139 105q12 8 19 -2l20 -28q5 -10 -4 -19zM259 -7q-67 0 -103 25t-44 47h-2q-5 -49 -5 -52q-2 -13 -16 -13h-34q-13 0 -11 13l21 150q2 13 15 13h39q14 0 12 -13l-3 -20
q1 -3 2.5 -9t10.5 -20.5t22 -26t38 -20.5t57 -9q57 0 88 23t31 61q0 25 -28 40.5t-68 25t-80 22t-68 40.5t-28 71q0 71 54.5 114.5t134.5 43.5q99 0 133 -58h2q3 32 3 33q1 17 16 17h32q13 0 11 -13l-20 -139q-2 -13 -16 -13h-39q-13 0 -11 13l2 14q5 27 -23.5 53.5
t-89.5 26.5q-43 0 -75 -23t-32 -62q0 -26 28.5 -43t69.5 -27.5t82 -23t69.5 -39t28.5 -67.5q0 -64 -51.5 -109.5t-154.5 -45.5z" />
    <glyph glyph-name="Tcommaaccent" unicode="&#x162;" horiz-adv-x="727" 
d="M299 -222l3 17q2 6 7 6q18 0 33.5 15t15.5 43l-1 6q-6 -5 -19 -5q-16 0 -26.5 11t-10.5 29q0 22 16 38t38 16q46 0 46 -58q0 -61 -27 -92.5t-68 -31.5q-7 0 -7 6zM478 0h-233q-13 0 -11 13l7 49q2 13 15 13h76l80 568h-190l-15 -106q-2 -14 -15 -14h-57q-13 0 -11 14
l24 168q2 13 15 13h603q14 0 12 -13l-24 -168q-2 -14 -15 -14h-57q-13 0 -11 14l15 106h-187l-80 -568h70q14 0 12 -13l-7 -49q-2 -13 -16 -13z" />
    <glyph glyph-name="tcommaaccent" unicode="&#x163;" horiz-adv-x="401" 
d="M145 -222l3 17q2 6 7 6q18 0 33.5 15t15.5 43l-1 6q-6 -5 -19 -5q-16 0 -26.5 11t-10.5 29q0 22 16 38t38 16q46 0 46 -58q0 -61 -27 -92.5t-68 -31.5q-7 0 -7 6zM360 82l20 -31q6 -9 -6 -19q-49 -39 -106 -39q-76 0 -112.5 43.5t-24.5 126.5l37 262h-57q-14 0 -12 13
l6 41q2 13 16 13h56l14 101q2 14 16 14h56q14 0 12 -14l-15 -101h127q14 0 11 -13l-5 -41q-2 -13 -16 -13h-126l-36 -260q-15 -101 70 -101q31 0 57 21q13 3 18 -3z" />
    <glyph glyph-name="Tcaron" unicode="&#x164;" horiz-adv-x="727" 
d="M639 939l-174 -135q-5 -5 -10 -5q-6 0 -10 4l-135 136q-10 8 -1 19l30 28q9 10 19 2l107 -105l139 105q12 8 19 -2l20 -28q5 -10 -4 -19zM478 0h-233q-13 0 -11 13l7 49q2 13 15 13h76l80 568h-190l-15 -106q-2 -14 -15 -14h-57q-13 0 -11 14l24 168q2 13 15 13h603
q14 0 12 -13l-24 -168q-2 -14 -15 -14h-57q-13 0 -11 14l15 106h-187l-80 -568h70q14 0 12 -13l-7 -49q-2 -13 -16 -13z" />
    <glyph glyph-name="tcaron" unicode="&#x165;" horiz-adv-x="401" 
d="M316 547l3 17q1 6 7 6q18 0 33.5 15t15.5 43l-1 7q-6 -5 -19 -5q-16 0 -26.5 11t-10.5 29q0 22 16 37.5t38 15.5q46 0 46 -58q0 -60 -27 -92t-68 -32q-7 0 -7 6zM380 51l-20 31q-5 6 -18 3q-26 -21 -57 -21q-85 0 -70 101l36 260h126q14 0 16 13l5 41q3 13 -11 13h-127
l15 101q2 14 -12 14h-56q-14 0 -16 -14l-14 -101h-56q-14 0 -16 -13l-6 -41q-2 -13 12 -13h57l-37 -262q-12 -83 24.5 -126.5t112.5 -43.5q57 0 106 39q12 10 6 19z" />
    <glyph glyph-name="Tbar" unicode="&#x166;" horiz-adv-x="727" 
d="M478 0h-233q-13 0 -11 13l7 49q2 13 15 13h76l45 325h-103q-13 0 -11 14l5 42q3 13 16 13h103l25 174h-190l-15 -106q-2 -14 -15 -14h-57q-13 0 -11 14l24 168q2 13 15 13h603q14 0 12 -13l-24 -168q-2 -14 -15 -14h-57q-13 0 -11 14l15 106h-187l-25 -174h105
q13 0 11 -13l-5 -42q-3 -14 -15 -14h-106l-45 -325h70q14 0 12 -13l-7 -49q-2 -13 -16 -13z" />
    <glyph glyph-name="tbar" unicode="&#x167;" horiz-adv-x="428" 
d="M386 82l21 -31q3 -4 1 -10t-7 -7q-51 -41 -106 -41q-76 0 -112.5 43.5t-24.5 126.5l37 262h-57q-13 0 -11 13l6 41q2 13 15 13h57l4 29h-54q-12 0 -10 11l3 16q2 11 12 11h54l5 34q2 14 15 14h57q13 0 11 -14l-5 -34h73q12 0 10 -11l-3 -16q-2 -11 -12 -11h-73l-4 -29
h126q13 0 11 -13l-5 -41q-2 -13 -16 -13h-125l-37 -260q-7 -50 11.5 -75.5t58.5 -25.5q33 0 57 19q11 8 17 -1z" />
    <glyph glyph-name="Utilde" unicode="&#x168;" horiz-adv-x="814" 
d="M626 260l53 383h-76q-13 0 -11 12l7 51q1 12 14 12h241q12 0 11 -12l-7 -51q-2 -12 -14 -12h-77l-53 -374q-19 -136 -99 -206t-208 -70q-129 0 -190 70.5t-42 205.5l52 374h-77q-12 0 -10 12l7 51q1 12 14 12h241q13 0 10 -12l-7 -51q-1 -12 -14 -12h-77l-53 -377
q-26 -192 157 -192q94 0 145 49.5t63 136.5zM668 910h24q11 0 10 -11q-3 -51 -28 -82.5t-75 -31.5q-25 0 -45 10t-30.5 21.5t-24.5 21.5t-29 10q-21 0 -33 -12.5t-16 -44.5q-1 -12 -14 -12h-23q-11 0 -11 10q0 45 25.5 77.5t75.5 32.5q23 0 42.5 -10.5t30 -22.5t25.5 -22.5
t31 -10.5q23 0 34.5 14t16.5 51q2 12 14 12z" />
    <glyph glyph-name="utilde" unicode="&#x169;" horiz-adv-x="608" 
d="M557 0h-87q-22 0 -31.5 9.5t-6.5 32.5l15 91h-3q-1 -6 -4.5 -15.5t-17 -33.5t-31.5 -42.5t-51 -33.5t-73 -15q-80 0 -120 47.5t-29 126.5l35 258h-56q-13 0 -11 12l7 43q1 12 13 12h96q22 0 31.5 -9.5t6.5 -32.5l-38 -263q-8 -57 15.5 -89.5t73.5 -32.5q31 0 59 16
t45.5 38t30.5 45.5t18.5 38.5t5.5 17l28 205h-53q-13 0 -11 12l7 43q1 12 13 12h124q12 0 11 -12l-58 -413h56q11 0 10 -12l-6 -43q-1 -12 -14 -12zM508 684h24q11 0 10 -11q-3 -51 -28 -82.5t-75 -31.5q-25 0 -45 10t-30.5 21.5t-24.5 21.5t-29 10q-21 0 -33 -12.5
t-16 -44.5q-1 -12 -14 -12h-23q-11 0 -11 10q0 45 25.5 77.5t75.5 32.5q23 0 42.5 -10.5t30 -22.5t25.5 -22.5t31 -10.5q23 0 34.5 14t16.5 51q2 12 14 12z" />
    <glyph glyph-name="Umacron" unicode="&#x16a;" horiz-adv-x="814" 
d="M626 260l53 383h-76q-13 0 -11 12l7 51q1 12 14 12h241q12 0 11 -12l-7 -51q-2 -12 -14 -12h-77l-53 -374q-19 -136 -99 -206t-208 -70q-129 0 -190 70.5t-42 205.5l52 374h-77q-12 0 -10 12l7 51q1 12 14 12h241q13 0 10 -12l-7 -51q-1 -12 -14 -12h-77l-53 -377
q-26 -192 157 -192q94 0 145 49.5t63 136.5zM659 780h-295q-13 0 -11 13l6 42q2 14 15 14h295q14 0 12 -14l-6 -42q-2 -13 -16 -13z" />
    <glyph glyph-name="umacron" unicode="&#x16b;" horiz-adv-x="608" 
d="M557 0h-87q-22 0 -31.5 9.5t-6.5 32.5l15 91h-3q-1 -6 -4.5 -15.5t-17 -33.5t-31.5 -42.5t-51 -33.5t-73 -15q-80 0 -120 47.5t-29 126.5l35 258h-56q-13 0 -11 12l7 43q1 12 13 12h96q22 0 31.5 -9.5t6.5 -32.5l-38 -263q-8 -57 15.5 -89.5t73.5 -32.5q31 0 59 16
t45.5 38t30.5 45.5t18.5 38.5t5.5 17l28 205h-53q-13 0 -11 12l7 43q1 12 13 12h124q12 0 11 -12l-58 -413h56q11 0 10 -12l-6 -43q-1 -12 -14 -12zM512 554h-295q-13 0 -11 13l6 42q2 14 15 14h295q14 0 12 -14l-6 -42q-2 -13 -16 -13z" />
    <glyph glyph-name="Ubreve" unicode="&#x16c;" horiz-adv-x="814" 
d="M626 260l53 383h-76q-13 0 -11 12l7 51q1 12 14 12h241q12 0 11 -12l-7 -51q-2 -12 -14 -12h-77l-53 -374q-19 -136 -99 -206t-208 -70q-129 0 -190 70.5t-42 205.5l52 374h-77q-12 0 -10 12l7 51q1 12 14 12h241q13 0 10 -12l-7 -51q-1 -12 -14 -12h-77l-53 -377
q-26 -192 157 -192q94 0 145 49.5t63 136.5zM641 941h31q12 0 12 -11q0 -63 -46 -102t-114 -39q-56 0 -89 30t-33 87q0 35 17 35h32q10 0 10 -27q0 -34 19.5 -54t49.5 -20q35 0 62 23.5t33 64.5q2 13 16 13z" />
    <glyph glyph-name="ubreve" unicode="&#x16d;" horiz-adv-x="608" 
d="M557 0h-87q-22 0 -31.5 9.5t-6.5 32.5l15 91h-3q-1 -6 -4.5 -15.5t-17 -33.5t-31.5 -42.5t-51 -33.5t-73 -15q-80 0 -120 47.5t-29 126.5l35 258h-56q-13 0 -11 12l7 43q1 12 13 12h96q22 0 31.5 -9.5t6.5 -32.5l-38 -263q-8 -57 15.5 -89.5t73.5 -32.5q31 0 59 16
t45.5 38t30.5 45.5t18.5 38.5t5.5 17l28 205h-53q-13 0 -11 12l7 43q1 12 13 12h124q12 0 11 -12l-58 -413h56q11 0 10 -12l-6 -43q-1 -12 -14 -12zM481 715h31q12 0 12 -11q0 -63 -46 -102t-114 -39q-56 0 -89 30t-33 87q0 35 17 35h32q10 0 10 -27q0 -34 19.5 -54
t49.5 -20q35 0 62 23.5t33 64.5q2 13 16 13z" />
    <glyph glyph-name="Uring" unicode="&#x16e;" horiz-adv-x="814" 
d="M576 834q-11 -22 -35 -30.5t-47 1.5q-18 13 -20.5 35.5t10.5 41.5q11 22 35.5 30.5t46.5 -1.5q18 -13 20.5 -36t-10.5 -41zM556 852q4 10 0 20t-14 14q-12 4 -23.5 -2.5t-14.5 -19.5q-5 -10 -0.5 -20t14.5 -14q12 -4 23 2.5t15 19.5zM626 260l53 383h-76q-13 0 -11 12
l7 51q1 12 14 12h241q12 0 11 -12l-7 -51q-2 -12 -14 -12h-77l-53 -374q-19 -136 -99 -206t-208 -70q-129 0 -190 70.5t-42 205.5l52 374h-77q-12 0 -10 12l7 51q1 12 14 12h241q13 0 10 -12l-7 -51q-1 -12 -14 -12h-77l-53 -377q-26 -192 157 -192q94 0 145 49.5t63 136.5z
" />
    <glyph glyph-name="uring" unicode="&#x16f;" horiz-adv-x="608" 
d="M425 608q-11 -22 -35 -30.5t-47 1.5q-18 13 -20.5 35.5t10.5 41.5q11 22 35.5 30.5t46.5 -1.5q18 -13 20.5 -36t-10.5 -41zM405 626q4 10 0 20t-14 14q-12 4 -23.5 -2.5t-14.5 -19.5q-5 -10 -0.5 -20t14.5 -14q12 -4 23 2.5t15 19.5zM557 0h-87q-22 0 -31.5 9.5
t-6.5 32.5l15 91h-3q-1 -6 -4.5 -15.5t-17 -33.5t-31.5 -42.5t-51 -33.5t-73 -15q-80 0 -120 47.5t-29 126.5l35 258h-56q-13 0 -11 12l7 43q1 12 13 12h96q22 0 31.5 -9.5t6.5 -32.5l-38 -263q-8 -57 15.5 -89.5t73.5 -32.5q31 0 59 16t45.5 38t30.5 45.5t18.5 38.5t5.5 17
l28 205h-53q-13 0 -11 12l7 43q1 12 13 12h124q12 0 11 -12l-58 -413h56q11 0 10 -12l-6 -43q-1 -12 -14 -12z" />
    <glyph glyph-name="Uhungarumlaut" unicode="&#x170;" horiz-adv-x="814" 
d="M626 260l53 383h-76q-13 0 -11 12l7 51q1 12 14 12h241q12 0 11 -12l-7 -51q-2 -12 -14 -12h-77l-53 -374q-19 -136 -99 -206t-208 -70q-129 0 -190 70.5t-42 205.5l52 374h-77q-12 0 -10 12l7 51q1 12 14 12h241q13 0 10 -12l-7 -51q-1 -12 -14 -12h-77l-53 -377
q-26 -192 157 -192q94 0 145 49.5t63 136.5zM596 941l-186 -134q-12 -7 -19 3l-21 29q-7 9 5 19l181 141q10 10 19 -1l26 -38q6 -11 -5 -19zM769 941l-186 -134q-13 -7 -20 3l-20 29q-8 9 5 19l180 141q10 9 20 -1l25 -38q8 -11 -4 -19z" />
    <glyph glyph-name="uhungarumlaut" unicode="&#x171;" horiz-adv-x="608" 
d="M557 0h-87q-22 0 -31.5 9.5t-6.5 32.5l15 91h-3q-1 -6 -4.5 -15.5t-17 -33.5t-31.5 -42.5t-51 -33.5t-73 -15q-80 0 -120 47.5t-29 126.5l35 258h-56q-13 0 -11 12l7 43q1 12 13 12h96q22 0 31.5 -9.5t6.5 -32.5l-38 -263q-8 -57 15.5 -89.5t73.5 -32.5q31 0 59 16
t45.5 38t30.5 45.5t18.5 38.5t5.5 17l28 205h-53q-13 0 -11 12l7 43q1 12 13 12h124q12 0 11 -12l-58 -413h56q11 0 10 -12l-6 -43q-1 -12 -14 -12zM427 715l-186 -134q-12 -7 -19 3l-21 29q-7 9 5 19l181 141q10 10 19 -1l26 -38q6 -11 -5 -19zM600 715l-186 -134
q-13 -7 -20 3l-20 29q-8 9 5 19l180 141q10 9 20 -1l25 -38q8 -11 -4 -19z" />
    <glyph glyph-name="Uogonek" unicode="&#x172;" horiz-adv-x="814" 
d="M626 260l53 383h-76q-13 0 -11 12l7 51q1 12 14 12h241q12 0 11 -12l-7 -51q-2 -12 -14 -12h-77l-53 -374q-19 -133 -95.5 -202.5t-199.5 -73.5q-69 -38 -69 -80q0 -29 34 -29q21 0 41 11q15 6 18 -2l7 -13q4 -11 -5 -17q-42 -24 -75 -24q-34 0 -53.5 17t-19.5 47
q0 31 21 54.5t49 37.5q-110 10 -160 79.5t-32 194.5l52 374h-77q-12 0 -10 12l7 51q1 12 14 12h241q13 0 10 -12l-7 -51q-1 -12 -14 -12h-77l-53 -377q-26 -192 157 -192q94 0 145 49.5t63 136.5z" />
    <glyph glyph-name="uogonek" unicode="&#x173;" horiz-adv-x="608" 
d="M557 0h-23q-82 -41 -82 -87q0 -29 34 -29q21 0 41 11q15 6 18 -2l7 -13q4 -11 -5 -17q-42 -24 -75 -24q-34 0 -53.5 17t-19.5 47q0 35 26.5 60.5t56.5 36.5h-12q-22 0 -31.5 9.5t-6.5 32.5l15 91h-3q-1 -6 -4.5 -15.5t-17 -33.5t-31.5 -42.5t-51 -33.5t-73 -15
q-80 0 -120 47.5t-29 126.5l35 258h-56q-13 0 -11 12l7 43q1 12 13 12h96q22 0 31.5 -9.5t6.5 -32.5l-38 -263q-8 -57 15.5 -89.5t73.5 -32.5q31 0 59 16t45.5 38t30.5 45.5t18.5 38.5t5.5 17l28 205h-53q-13 0 -11 12l7 43q1 12 13 12h124q12 0 11 -12l-58 -413h56
q11 0 10 -12l-6 -43q-1 -12 -14 -12z" />
    <glyph glyph-name="Wcircumflex" unicode="&#x174;" horiz-adv-x="1093" 
d="M811 830l-29 -29q-10 -10 -19 -2l-109 105l-137 -105q-12 -9 -19 2l-21 29q-7 10 5 19l174 136q5 4 11 4q5 0 9 -5l135 -135q8 -9 0 -19zM748 0h-38q-39 0 -42 40l-45 508h-2l-186 -508q-16 -40 -53 -40h-37q-36 0 -42 40l-99 603h-64q-12 0 -10 12l7 51q1 12 14 12h226
q13 0 10 -12l-7 -51q-2 -12 -14 -12h-70l79 -537h6l225 612h81l53 -612h6l230 537h-70q-12 0 -10 12l7 51q1 12 14 12h225q12 0 11 -12l-7 -51q-2 -12 -14 -12h-64l-268 -603q-18 -40 -52 -40z" />
    <glyph glyph-name="wcircumflex" unicode="&#x175;" horiz-adv-x="812" 
d="M662 604l-29 -29q-10 -10 -19 -2l-109 105l-137 -105q-12 -9 -19 2l-21 29q-7 10 5 19l174 136q5 4 11 4q5 0 9 -5l135 -135q8 -9 0 -19zM576 0h-59q-21 0 -21 21l-37 335h-3l-132 -335q-7 -21 -28 -21h-58q-18 0 -21 21l-75 404h-56q-12 0 -11 12l7 43q2 12 13 12h187
q12 0 10 -12l-6 -43q-2 -12 -14 -12h-46l54 -337h2l135 337h-38q-13 0 -11 12l7 43q1 12 13 12h176q12 0 11 -12l-7 -43q-2 -12 -14 -12h-39l42 -337h2l146 337h-45q-12 0 -10 12l6 43q2 12 14 12h186q12 0 11 -12l-6 -43q-1 -12 -15 -12h-54l-189 -404q-9 -21 -27 -21z" />
    <glyph glyph-name="Ycircumflex" unicode="&#x176;" horiz-adv-x="759" 
d="M500 0h-241q-13 0 -11 12l7 51q1 12 15 12h76l30 214q-1 1 -30 70t-67.5 156.5t-60.5 127.5h-68q-12 0 -10 12l7 51q1 12 14 12h225q12 0 11 -12l-7 -51q-2 -12 -14 -12h-66l118 -278h6l194 278h-65q-13 0 -11 12l7 51q1 12 14 12h226q13 0 11 -12l-7 -51q-1 -12 -15 -12
h-68q-33 -40 -96.5 -127.5t-111.5 -156.5l-49 -69l-30 -215h77q12 0 11 -12l-7 -51q-2 -12 -14 -12zM647 830l-29 -29q-10 -10 -19 -2l-109 105l-137 -105q-12 -9 -19 2l-21 29q-7 10 5 19l174 136q5 4 11 4q5 0 9 -5l135 -135q8 -9 0 -19z" />
    <glyph glyph-name="ycircumflex" unicode="&#x177;" horiz-adv-x="590" 
d="M238 -63l37 74h-12q-10 0 -15 5.5t-8 19.5l-98 389h-55q-13 0 -11 12l6 43q2 12 14 12h181q13 0 10 -12l-5 -43q-2 -12 -15 -12h-40l81 -339h2l167 339h-45q-12 0 -10 12l6 43q2 12 14 12h186q12 0 10 -12l-5 -43q-1 -12 -15 -12h-55l-248 -489q-45 -89 -86 -129.5
t-107 -40.5q-61 0 -95 39q-9 9 -1 18l30 32q6 6 17 2q25 -20 51 -20q37 0 61 22t53 78zM552 604l-29 -29q-10 -10 -19 -2l-109 105l-137 -105q-12 -9 -19 2l-21 29q-7 10 5 19l174 136q5 4 11 4q5 0 9 -5l135 -135q8 -9 0 -19z" />
    <glyph glyph-name="Ydieresis" unicode="&#x178;" horiz-adv-x="759" 
d="M500 0h-241q-13 0 -11 12l7 51q1 12 15 12h76l30 214q-1 1 -30 70t-67.5 156.5t-60.5 127.5h-68q-12 0 -10 12l7 51q1 12 14 12h225q12 0 11 -12l-7 -51q-2 -12 -14 -12h-66l118 -278h6l194 278h-65q-13 0 -11 12l7 51q1 12 14 12h226q13 0 11 -12l-7 -51q-1 -12 -15 -12
h-68q-33 -40 -96.5 -127.5t-111.5 -156.5l-49 -69l-30 -215h77q12 0 11 -12l-7 -51q-2 -12 -14 -12zM458 829q0 -19 -14.5 -33t-34.5 -14q-16 0 -26 10t-10 27q0 19 14.5 33.5t33.5 14.5q16 0 26.5 -11t10.5 -27zM616 829q0 -19 -14.5 -33t-34.5 -14q-16 0 -26 10t-10 27
q0 19 14.5 33.5t33.5 14.5q16 0 26.5 -11t10.5 -27z" />
    <glyph glyph-name="Zacute" unicode="&#x179;" horiz-adv-x="641" 
d="M572 932l-186 -134q-13 -7 -20 3l-20 29q-8 9 5 19l180 141q10 9 20 -1l25 -38q8 -9 -4 -19zM580 0h-518q-14 0 -12 13l7 43q1 11 24 34l484 553h-342l-12 -81q-2 -14 -15 -14h-57q-6 0 -9 4t-2 10l19 143q3 13 16 13h518q14 0 12 -13l-6 -37q-3 -18 -26 -41l-483 -552
h342l12 81q2 14 15 14h57q13 0 11 -14l-20 -143q-2 -13 -15 -13z" />
    <glyph glyph-name="zacute" unicode="&#x17a;" horiz-adv-x="519" 
d="M492 706l-186 -134q-13 -7 -20 3l-20 29q-8 9 5 19l180 141q10 9 20 -1l25 -38q8 -9 -4 -19zM468 0h-417q-13 0 -11 12l6 41q3 20 20 34l371 338h-270l-11 -77q-2 -12 -15 -12h-43q-12 0 -10 12l18 132q2 12 14 12h418q13 0 10 -12l-5 -35q-3 -19 -19 -32l-376 -346h274
l11 79q1 12 14 12h44q13 0 10 -12l-18 -134q-1 -12 -15 -12z" />
    <glyph glyph-name="Zdotaccent" unicode="&#x17b;" horiz-adv-x="641" 
d="M580 0h-518q-14 0 -12 13l7 43q1 11 24 34l484 553h-342l-12 -81q-2 -14 -15 -14h-57q-6 0 -9 4t-2 10l19 143q3 13 16 13h518q14 0 12 -13l-6 -37q-3 -18 -26 -41l-483 -552h342l12 81q2 14 15 14h57q13 0 11 -14l-20 -143q-2 -13 -15 -13zM507 850q0 -23 -18.5 -40.5
t-42.5 -17.5q-19 0 -32 13t-13 33q0 24 18 41.5t42 17.5q20 0 33 -13.5t13 -33.5z" />
    <glyph glyph-name="zdotaccent" unicode="&#x17c;" horiz-adv-x="519" 
d="M468 0h-417q-13 0 -11 12l6 41q3 20 20 34l371 338h-270l-11 -77q-2 -12 -15 -12h-43q-12 0 -10 12l18 132q2 12 14 12h418q13 0 10 -12l-5 -35q-3 -19 -19 -32l-376 -346h274l11 79q1 12 14 12h44q13 0 10 -12l-18 -134q-1 -12 -15 -12zM407 624q0 -23 -18.5 -40.5
t-42.5 -17.5q-19 0 -32 13t-13 33q0 24 18 41.5t42 17.5q20 0 33 -13.5t13 -33.5z" />
    <glyph glyph-name="Zcaron" unicode="&#x17d;" horiz-adv-x="641" 
d="M632 939l-174 -135q-5 -5 -10 -5q-6 0 -10 4l-135 136q-10 8 -1 19l30 28q9 10 19 2l107 -105l139 105q12 8 19 -2l20 -28q5 -10 -4 -19zM580 0h-518q-14 0 -12 13l7 43q1 11 24 34l484 553h-342l-12 -81q-2 -14 -15 -14h-57q-6 0 -9 4t-2 10l19 143q3 13 16 13h518
q14 0 12 -13l-6 -37q-3 -18 -26 -41l-483 -552h342l12 81q2 14 15 14h57q13 0 11 -14l-20 -143q-2 -13 -15 -13z" />
    <glyph glyph-name="zcaron" unicode="&#x17e;" horiz-adv-x="519" 
d="M530 713l-174 -135q-5 -5 -10 -5q-6 0 -10 4l-135 136q-10 8 -1 19l30 28q9 10 19 2l107 -105l139 105q12 8 19 -2l20 -28q5 -10 -4 -19zM468 0h-417q-13 0 -11 12l6 41q3 20 20 34l371 338h-270l-11 -77q-2 -12 -15 -12h-43q-12 0 -10 12l18 132q2 12 14 12h418
q13 0 10 -12l-5 -35q-3 -19 -19 -32l-376 -346h274l11 79q1 12 14 12h44q13 0 10 -12l-18 -134q-1 -12 -15 -12z" />
    <glyph glyph-name="florin" unicode="&#x192;" horiz-adv-x="507" 
d="M215 -62l68 488h-58q-11 0 -10 12l6 43q1 12 14 12h57l9 61q12 83 60.5 126.5t124.5 43.5q60 0 95 -40q10 -8 0 -17l-28 -31q-9 -9 -17 -2q-24 19 -52 19q-41 0 -67 -25.5t-33 -74.5l-8 -60h128q12 0 10 -12l-6 -43q-2 -12 -14 -12h-128l-69 -489q-11 -83 -59.5 -127
t-124.5 -44q-56 0 -96 40q-7 9 0 18l28 30q10 10 18 2q23 -18 52 -18q85 0 100 100z" />
    <glyph glyph-name="AEacute" unicode="&#x1fc;" horiz-adv-x="1044" 
d="M894 932l-186 -134q-13 -7 -20 3l-20 29q-8 9 5 19l180 141q10 9 20 -1l25 -38q8 -9 -4 -19zM984 0h-532q-12 0 -10 12l7 51q1 12 14 12h76l35 245h-208l-140 -245h70q12 0 11 -12l-7 -51q-2 -12 -15 -12h-224q-13 0 -11 12l7 51q1 12 14 12h68l321 568h-54q-12 0 -10 12
l7 51q1 12 13 12h669q13 0 11 -12l-23 -161q-2 -13 -14 -13h-54q-13 0 -11 13l14 98h-302l-35 -248h254q13 0 11 -12l-7 -51q-1 -12 -15 -12h-253l-35 -245h302l13 98q3 12 15 12h54q12 0 11 -12l-23 -161q-2 -12 -14 -12zM584 395l35 248h-71l-142 -248h178z" />
    <glyph glyph-name="aeacute" unicode="&#x1fd;" horiz-adv-x="890" 
d="M703 706l-186 -134q-13 -7 -20 3l-20 29q-8 9 5 19l180 141q10 9 20 -1l25 -38q8 -9 -4 -19zM633 -8q-69 0 -120.5 31t-74.5 88q-37 -45 -97.5 -82t-141.5 -37q-65 0 -105.5 33t-40.5 89q0 90 78.5 133t213.5 43h84l2 13q20 124 -113 124q-30 0 -56.5 -4.5t-44 -11.5
t-30 -14t-19 -11.5t-7.5 -4.5q-11 -4 -15 3l-23 35q-5 8 4 16q9 9 25.5 20.5t67.5 27.5t111 16q142 0 170 -95q36 45 87.5 69.5t105.5 24.5q93 0 143 -53.5t50 -148.5q0 -61 -21 -61h-360q-8 -83 34.5 -128t107.5 -45q57 0 103.5 26t66.5 51q9 11 18 3l23 -27q9 -9 2 -18
q-8 -11 -24.5 -26t-45 -34t-70.5 -32t-88 -13zM419 167q-3 24 2 69h-79q-201 0 -201 -102q0 -31 25 -51t68 -20q27 0 53 7.5t44.5 18.5t35.5 24.5t27 24.5t18 20zM516 290h290q5 64 -25.5 103t-93.5 39q-56 0 -104.5 -36.5t-66.5 -105.5z" />
    <glyph glyph-name="Oslashacute" unicode="&#x1fe;" horiz-adv-x="793" 
d="M301 -51h-60q-13 0 -7 12l26 60q-77 35 -121.5 112t-44.5 179q0 93 35 172.5t92.5 131t129.5 80t147 28.5q33 0 67 -8l25 55q4 12 18 12h59q11 0 7 -12l-34 -78q73 -34 116.5 -107.5t43.5 -172.5q0 -183 -118.5 -301.5t-285.5 -118.5q-31 0 -61 8l-17 -40q-6 -12 -17 -12
zM297 107l234 529q-24 8 -53 8q-50 -2 -99.5 -23.5t-92.5 -60.5t-70 -103t-27 -141q0 -76 29.5 -129.5t78.5 -79.5zM370 81q22 -6 49 -6q51 0 101.5 22t92 62.5t67 104t25.5 139.5q0 72 -28.5 124.5t-74.5 78.5zM697 936l-186 -134q-13 -7 -20 3l-20 29q-8 9 5 19l180 141
q10 9 20 -1l25 -38q8 -9 -4 -19z" />
    <glyph glyph-name="oslashacute" unicode="&#x1ff;" horiz-adv-x="575" 
d="M173 -29h-42q-14 0 -7 12l30 47q-40 26 -62 73.5t-22 107.5q0 130 84.5 209t203.5 79q47 0 89 -17l9 15q5 13 19 13h42q13 0 6 -13l-26 -40q77 -58 77 -174q0 -128 -83 -209t-205 -81q-41 0 -80 13l-15 -23q-9 -12 -18 -12zM201 103l203 313q-28 13 -56 13
q-76 0 -135 -58.5t-59 -150.5q0 -78 47 -117zM249 73q21 -10 49 -10q77 0 134.5 59t57.5 151q0 70 -40 110zM517 706l-186 -134q-13 -7 -20 3l-20 29q-8 9 5 19l180 141q10 9 20 -1l25 -38q8 -9 -4 -19z" />
    <glyph glyph-name="Scommaaccent" unicode="&#x218;" horiz-adv-x="666" 
d="M279 -222l3 17q2 6 7 6q18 0 33.5 15t15.5 43l-1 6q-6 -5 -19 -5q-16 0 -26.5 11t-10.5 29q0 22 16 38t38 16q46 0 46 -58q0 -61 -27 -92.5t-68 -31.5q-7 0 -7 6zM117 0h-56q-13 0 -11 12l33 234q2 13 14 13h63q13 0 11 -13l-3 -21q-1 -6 3.5 -21.5t17.5 -38t33.5 -42.5
t57 -34.5t81.5 -14.5q84 0 133 35.5t49 97.5q0 30 -22 50.5t-57.5 33t-78 23t-85 24.5t-78 33.5t-57.5 54t-22 81.5q0 92 73 154.5t190 62.5q137 0 187 -79l7 62q2 12 14 12h57q11 0 10 -12l-30 -218q-3 -12 -15 -12h-63q-11 0 -10 12l4 28q5 41 -34.5 83t-128.5 42
q-72 0 -118.5 -35.5t-46.5 -88.5q0 -43 42 -69t102 -40.5t120 -32.5t102 -58t42 -102q0 -93 -71.5 -158t-209.5 -65q-92 0 -146.5 37t-75.5 80l-13 -98q-1 -12 -14 -12z" />
    <glyph glyph-name="scommaaccent" unicode="&#x219;" horiz-adv-x="486" 
d="M185 -222l3 17q2 6 7 6q18 0 33.5 15t15.5 43l-1 6q-6 -5 -19 -5q-16 0 -26.5 11t-10.5 29q0 22 16 38t38 16q46 0 46 -58q0 -61 -27 -92.5t-68 -31.5q-7 0 -7 6zM259 -7q-67 0 -103 25t-44 47h-2q-5 -49 -5 -52q-2 -13 -16 -13h-34q-13 0 -11 13l21 150q2 13 15 13h39
q14 0 12 -13l-3 -20q1 -3 2.5 -9t10.5 -20.5t22 -26t38 -20.5t57 -9q57 0 88 23t31 61q0 25 -28 40.5t-68 25t-80 22t-68 40.5t-28 71q0 71 54.5 114.5t134.5 43.5q99 0 133 -58h2q3 32 3 33q1 17 16 17h32q13 0 11 -13l-20 -139q-2 -13 -16 -13h-39q-13 0 -11 13l2 14
q5 27 -23.5 53.5t-89.5 26.5q-43 0 -75 -23t-32 -62q0 -26 28.5 -43t69.5 -27.5t82 -23t69.5 -39t28.5 -67.5q0 -64 -51.5 -109.5t-154.5 -45.5z" />
    <glyph glyph-name="circumflex" unicode="&#x2c6;" horiz-adv-x="410" 
d="M457 604l-29 -29q-10 -10 -19 -2l-109 105l-137 -105q-12 -9 -19 2l-21 29q-7 10 5 19l174 136q5 4 11 4q5 0 9 -5l135 -135q8 -9 0 -19z" />
    <glyph glyph-name="caron" unicode="&#x2c7;" horiz-adv-x="410" 
d="M470 713l-174 -135q-5 -5 -10 -5q-6 0 -10 4l-135 136q-10 8 -1 19l30 28q9 10 19 2l107 -105l139 105q12 8 19 -2l20 -28q5 -10 -4 -19z" />
    <glyph glyph-name="breve" unicode="&#x2d8;" horiz-adv-x="350" 
d="M371 715h31q12 0 12 -11q0 -63 -46 -102t-114 -39q-56 0 -89 30t-33 87q0 35 17 35h32q10 0 10 -27q0 -34 19.5 -54t49.5 -20q35 0 62 23.5t33 64.5q2 13 16 13z" />
    <glyph glyph-name="dotaccent" unicode="&#x2d9;" horiz-adv-x="173" 
d="M227 624q0 -23 -18.5 -40.5t-42.5 -17.5q-19 0 -32 13t-13 33q0 24 18 41.5t42 17.5q20 0 33 -13.5t13 -33.5z" />
    <glyph glyph-name="ring" unicode="&#x2da;" horiz-adv-x="225" 
d="M247 608q-11 -22 -35 -30.5t-47 1.5q-18 13 -20.5 35.5t10.5 41.5q11 22 35.5 30.5t46.5 -1.5q18 -13 20.5 -36t-10.5 -41zM227 626q4 10 0 20t-14 14q-12 4 -23.5 -2.5t-14.5 -19.5q-5 -10 -0.5 -20t14.5 -14q12 -4 23 2.5t15 19.5z" />
    <glyph glyph-name="ogonek" unicode="&#x2db;" horiz-adv-x="229" 
d="M168 -107l7 -13q4 -11 -5 -17q-42 -24 -75 -24q-34 0 -53.5 17t-19.5 47q0 42 38.5 71.5t62.5 29.5h43q-89 -46 -91 -91q0 -29 34 -29q21 0 41 11q15 6 18 -2z" />
    <glyph glyph-name="tilde" unicode="&#x2dc;" horiz-adv-x="384" 
d="M410 684h24q11 0 10 -11q-3 -51 -28 -82.5t-75 -31.5q-25 0 -45 10t-30.5 21.5t-24.5 21.5t-29 10q-21 0 -33 -12.5t-16 -44.5q-1 -12 -14 -12h-23q-11 0 -11 10q0 45 25.5 77.5t75.5 32.5q23 0 42.5 -10.5t30 -22.5t25.5 -22.5t31 -10.5q23 0 34.5 14t16.5 51
q2 12 14 12z" />
    <glyph glyph-name="hungarumlaut" unicode="&#x2dd;" horiz-adv-x="463" 
d="M351 715l-186 -134q-12 -7 -19 3l-21 29q-7 9 5 19l181 141q10 10 19 -1l26 -38q6 -11 -5 -19zM524 715l-186 -134q-13 -7 -20 3l-20 29q-8 9 5 19l180 141q10 9 20 -1l25 -38q8 -11 -4 -19z" />
    <glyph glyph-name="Wgrave" unicode="&#x1e80;" horiz-adv-x="1093" 
d="M748 0h-38q-39 0 -42 40l-45 508h-2l-186 -508q-16 -40 -53 -40h-37q-36 0 -42 40l-99 603h-64q-12 0 -10 12l7 51q1 12 14 12h226q13 0 10 -12l-7 -51q-2 -12 -14 -12h-70l79 -537h6l225 612h81l53 -612h6l230 537h-70q-12 0 -10 12l7 51q1 12 14 12h225q12 0 11 -12
l-7 -51q-2 -12 -14 -12h-64l-268 -603q-18 -40 -52 -40zM734 830l-30 -29q-9 -10 -19 -2l-149 134q-8 8 2 19l36 37q9 11 20 2l140 -142q10 -9 0 -19z" />
    <glyph glyph-name="wgrave" unicode="&#x1e81;" horiz-adv-x="812" 
d="M576 0h-59q-21 0 -21 21l-37 335h-3l-132 -335q-7 -21 -28 -21h-58q-18 0 -21 21l-75 404h-56q-12 0 -11 12l7 43q2 12 13 12h187q12 0 10 -12l-6 -43q-2 -12 -14 -12h-46l54 -337h2l135 337h-38q-13 0 -11 12l7 43q1 12 13 12h176q12 0 11 -12l-7 -43q-2 -12 -14 -12
h-39l42 -337h2l146 337h-45q-12 0 -10 12l6 43q2 12 14 12h186q12 0 11 -12l-6 -43q-1 -12 -15 -12h-54l-189 -404q-9 -21 -27 -21zM569 604l-30 -29q-9 -10 -19 -2l-149 134q-8 8 2 19l36 37q9 11 20 2l140 -142q10 -9 0 -19z" />
    <glyph glyph-name="Wacute" unicode="&#x1e82;" horiz-adv-x="1093" 
d="M840 932l-186 -134q-13 -7 -20 3l-20 29q-8 9 5 19l180 141q10 9 20 -1l25 -38q8 -9 -4 -19zM748 0h-38q-39 0 -42 40l-45 508h-2l-186 -508q-16 -40 -53 -40h-37q-36 0 -42 40l-99 603h-64q-12 0 -10 12l7 51q1 12 14 12h226q13 0 10 -12l-7 -51q-2 -12 -14 -12h-70
l79 -537h6l225 612h81l53 -612h6l230 537h-70q-12 0 -10 12l7 51q1 12 14 12h225q12 0 11 -12l-7 -51q-2 -12 -14 -12h-64l-268 -603q-18 -40 -52 -40z" />
    <glyph glyph-name="wacute" unicode="&#x1e83;" horiz-adv-x="812" 
d="M635 706l-186 -134q-13 -7 -20 3l-20 29q-8 9 5 19l180 141q10 9 20 -1l25 -38q8 -9 -4 -19zM576 0h-59q-21 0 -21 21l-37 335h-3l-132 -335q-7 -21 -28 -21h-58q-18 0 -21 21l-75 404h-56q-12 0 -11 12l7 43q2 12 13 12h187q12 0 10 -12l-6 -43q-2 -12 -14 -12h-46
l54 -337h2l135 337h-38q-13 0 -11 12l7 43q1 12 13 12h176q12 0 11 -12l-7 -43q-2 -12 -14 -12h-39l42 -337h2l146 337h-45q-12 0 -10 12l6 43q2 12 14 12h186q12 0 11 -12l-6 -43q-1 -12 -15 -12h-54l-189 -404q-9 -21 -27 -21z" />
    <glyph glyph-name="Wdieresis" unicode="&#x1e84;" horiz-adv-x="1093" 
d="M624 829q0 -19 -14.5 -33t-34.5 -14q-16 0 -26 10t-10 27q0 19 14.5 33.5t33.5 14.5q16 0 26.5 -11t10.5 -27zM782 829q0 -19 -14.5 -33t-34.5 -14q-16 0 -26 10t-10 27q0 19 14.5 33.5t33.5 14.5q16 0 26.5 -11t10.5 -27zM748 0h-38q-39 0 -42 40l-45 508h-2l-186 -508
q-16 -40 -53 -40h-37q-36 0 -42 40l-99 603h-64q-12 0 -10 12l7 51q1 12 14 12h226q13 0 10 -12l-7 -51q-2 -12 -14 -12h-70l79 -537h6l225 612h81l53 -612h6l230 537h-70q-12 0 -10 12l7 51q1 12 14 12h225q12 0 11 -12l-7 -51q-2 -12 -14 -12h-64l-268 -603
q-18 -40 -52 -40z" />
    <glyph glyph-name="wdieresis" unicode="&#x1e85;" horiz-adv-x="812" 
d="M459 603q0 -19 -14.5 -33t-34.5 -14q-16 0 -26 10t-10 27q0 19 14 33.5t34 14.5q16 0 26.5 -11t10.5 -27zM617 603q0 -19 -14.5 -33t-34.5 -14q-16 0 -26 10t-10 27q0 19 14 33.5t34 14.5q16 0 26.5 -11t10.5 -27zM576 0h-59q-21 0 -21 21l-37 335h-3l-132 -335
q-7 -21 -28 -21h-58q-18 0 -21 21l-75 404h-56q-12 0 -11 12l7 43q2 12 13 12h187q12 0 10 -12l-6 -43q-2 -12 -14 -12h-46l54 -337h2l135 337h-38q-13 0 -11 12l7 43q1 12 13 12h176q12 0 11 -12l-7 -43q-2 -12 -14 -12h-39l42 -337h2l146 337h-45q-12 0 -10 12l6 43
q2 12 14 12h186q12 0 11 -12l-6 -43q-1 -12 -15 -12h-54l-189 -404q-9 -21 -27 -21z" />
    <glyph glyph-name="Ygrave" unicode="&#x1ef2;" horiz-adv-x="759" 
d="M500 0h-241q-13 0 -11 12l7 51q1 12 15 12h76l30 214q-1 1 -30 70t-67.5 156.5t-60.5 127.5h-68q-12 0 -10 12l7 51q1 12 14 12h225q12 0 11 -12l-7 -51q-2 -12 -14 -12h-66l118 -278h6l194 278h-65q-13 0 -11 12l7 51q1 12 14 12h226q13 0 11 -12l-7 -51q-1 -12 -15 -12
h-68q-33 -40 -96.5 -127.5t-111.5 -156.5l-49 -69l-30 -215h77q12 0 11 -12l-7 -51q-2 -12 -14 -12zM606 830l-30 -29q-9 -10 -19 -2l-149 134q-8 8 2 19l36 37q9 11 20 2l140 -142q10 -9 0 -19z" />
    <glyph glyph-name="ygrave" unicode="&#x1ef3;" horiz-adv-x="590" 
d="M238 -63l37 74h-12q-10 0 -15 5.5t-8 19.5l-98 389h-55q-13 0 -11 12l6 43q2 12 14 12h181q13 0 10 -12l-5 -43q-2 -12 -15 -12h-40l81 -339h2l167 339h-45q-12 0 -10 12l6 43q2 12 14 12h186q12 0 10 -12l-5 -43q-1 -12 -15 -12h-55l-248 -489q-45 -89 -86 -129.5
t-107 -40.5q-61 0 -95 39q-9 9 -1 18l30 32q6 6 17 2q25 -20 51 -20q37 0 61 22t53 78zM474 604l-30 -29q-9 -10 -19 -2l-149 134q-8 8 2 19l36 37q9 11 20 2l140 -142q10 -9 0 -19z" />
    <glyph glyph-name="endash" unicode="&#x2013;" horiz-adv-x="554" 
d="M533 222h-451q-13 0 -11 13l7 51q2 13 15 13h451q14 0 12 -13l-7 -51q-2 -13 -16 -13z" />
    <glyph glyph-name="emdash" unicode="&#x2014;" horiz-adv-x="879" 
d="M858 222h-776q-13 0 -11 13l7 51q2 13 15 13h776q14 0 12 -13l-7 -51q-2 -13 -16 -13z" />
    <glyph glyph-name="quoteleft" unicode="&#x2018;" horiz-adv-x="179" 
d="M232 770l-3 -17q-1 -6 -7 -6q-18 0 -33.5 -15.5t-15.5 -42.5l1 -7q6 5 20 5q16 0 26.5 -11t10.5 -29q0 -22 -16 -37.5t-39 -15.5q-46 0 -46 58q0 60 27.5 92t68.5 32q8 0 6 -6z" />
    <glyph glyph-name="quoteright" unicode="&#x2019;" horiz-adv-x="179" 
d="M134 567l3 17q1 6 7 6q18 0 33.5 15t15.5 43l-1 7q-6 -5 -19 -5q-16 0 -26.5 11t-10.5 29q0 22 16 37.5t38 15.5q46 0 46 -58q0 -60 -27 -92t-68 -32q-7 0 -7 6z" />
    <glyph glyph-name="quotesinglbase" unicode="&#x201a;" horiz-adv-x="179" 
d="M42 -90l3 17q1 6 7 6q18 0 33.5 15.5t15.5 42.5l-1 7q-6 -5 -20 -5q-15 0 -25.5 11t-10.5 29q0 22 16 37.5t38 15.5q46 0 46 -58q0 -60 -27.5 -91.5t-68.5 -31.5q-6 0 -6 5z" />
    <glyph glyph-name="quotedblleft" unicode="&#x201c;" horiz-adv-x="341" 
d="M394 770l-2 -17q-2 -6 -7 -6q-18 0 -33.5 -15t-15.5 -43l1 -7q6 5 20 5q15 0 25.5 -11t10.5 -29q0 -22 -16 -37.5t-38 -15.5q-46 0 -46 58q0 60 27 92t68 32q8 0 6 -6zM232 770l-3 -17q-1 -6 -7 -6q-18 0 -33.5 -15.5t-15.5 -42.5l1 -7q6 5 20 5q16 0 26.5 -11t10.5 -29
q0 -22 -16 -37.5t-39 -15.5q-46 0 -46 58q0 60 27.5 92t68.5 32q8 0 6 -6z" />
    <glyph glyph-name="quotedblright" unicode="&#x201d;" horiz-adv-x="341" 
d="M134 567l3 17q1 6 7 6q18 0 33.5 15t15.5 43l-1 7q-6 -5 -19 -5q-16 0 -26.5 11t-10.5 29q0 22 16 37.5t38 15.5q46 0 46 -58q0 -60 -27 -92t-68 -32q-7 0 -7 6zM297 567l3 17q2 6 7 6q18 0 33.5 15.5t15.5 42.5l-1 7q-6 -5 -20 -5q-15 0 -26 11t-11 29q0 22 16.5 37.5
t38.5 15.5q46 0 46 -58q0 -60 -27.5 -92t-68.5 -32q-6 0 -6 6z" />
    <glyph glyph-name="quotedblbase" unicode="&#x201e;" horiz-adv-x="330" 
d="M42 -90l3 17q1 6 7 6q18 0 33.5 15.5t15.5 42.5l-1 7q-6 -5 -20 -5q-15 0 -25.5 11t-10.5 29q0 22 16 37.5t38 15.5q46 0 46 -58q0 -60 -27.5 -91.5t-68.5 -31.5q-6 0 -6 5zM193 -90l2 17q1 6 7 6q18 0 34 15t16 43l-1 7q-6 -5 -20 -5q-16 0 -26.5 11t-10.5 29
q0 22 16 37.5t38 15.5q47 0 47 -58q0 -60 -27.5 -91.5t-68.5 -31.5q-3 0 -5 1.5t-1 3.5z" />
    <glyph glyph-name="dagger" unicode="&#x2020;" horiz-adv-x="425" 
d="M227 -131h-60q-13 0 -11 12l87 615h-122q-14 0 -12 13l8 51q2 13 15 13h121l25 175q2 12 14 12h60q12 0 10 -12l-25 -175h116q14 0 12 -13l-7 -51q-2 -13 -16 -13h-115l-87 -615q-2 -12 -13 -12z" />
    <glyph glyph-name="daggerdbl" unicode="&#x2021;" horiz-adv-x="425" 
d="M227 -131h-60q-11 0 -10 12l27 190h-122q-14 0 -12 14l8 50q2 14 14 14h122l49 347h-121q-15 0 -12 13l7 51q2 13 15 13h122l25 175q1 12 14 12h59q12 0 11 -12l-25 -175h116q13 0 11 -13l-7 -51q-2 -13 -15 -13h-116l-49 -347h116q14 0 12 -14l-8 -50q-2 -14 -15 -14
h-115l-27 -190q-1 -12 -14 -12z" />
    <glyph glyph-name="bullet" unicode="&#x2022;" horiz-adv-x="263" 
d="M165 239q-39 0 -60 21.5t-21 58.5q0 50 29 81.5t79 31.5q38 0 60 -23t22 -60q0 -49 -30.5 -79.5t-78.5 -30.5z" />
    <glyph glyph-name="ellipsis" unicode="&#x2026;" horiz-adv-x="397" 
d="M129 46q0 -22 -16.5 -37.5t-37.5 -15.5q-19 0 -30.5 11.5t-11.5 29.5q0 22 16 37.5t38 15.5q18 0 30 -12t12 -29zM253 46q0 -22 -16.5 -37.5t-38.5 -15.5q-18 0 -29.5 12t-11.5 29q0 22 16 37.5t38 15.5q18 0 30 -12t12 -29zM375 46q0 -22 -16.5 -37.5t-38.5 -15.5
q-18 0 -29.5 12t-11.5 29q0 22 16 37.5t38 15.5q18 0 30 -12t12 -29z" />
    <glyph glyph-name="perthousand" unicode="&#x2030;" horiz-adv-x="1085" 
d="M233 359q-58 0 -90 40.5t-32 109.5q0 93 48.5 154t124.5 61q58 0 90 -40.5t32 -107.5q0 -94 -47 -155.5t-126 -61.5zM241 414q48 0 76.5 43.5t28.5 115.5q0 96 -69 96q-49 0 -77.5 -42.5t-28.5 -113.5q0 -47 18 -73t52 -26zM570 -7q-58 0 -90 40.5t-32 109.5q0 93 48 154
t125 61q57 0 89.5 -40.5t32.5 -107.5q0 -93 -47.5 -155t-125.5 -62zM577 48q48 0 76.5 43.5t28.5 115.5q0 96 -69 96q-49 0 -77.5 -42.5t-28.5 -113.5q0 -47 18 -73t52 -26zM902 -7q-58 0 -90 40.5t-32 109.5q0 93 48 154t125 61q57 0 89.5 -40.5t32.5 -107.5
q0 -93 -47.5 -155t-125.5 -62zM909 48q48 0 76.5 43.5t28.5 115.5q0 96 -69 96q-49 0 -77.5 -42.5t-28.5 -113.5q0 -47 18 -73t52 -26zM265 -74h-60q-11 0 -7 12l356 810q4 12 19 12h59q12 0 6 -12l-356 -810q-4 -12 -17 -12z" />
    <glyph glyph-name="fraction" unicode="&#x2044;" horiz-adv-x="405" 
d="M97 -74h-60q-11 0 -7 12l356 810q4 12 19 12h59q12 0 6 -12l-356 -810q-4 -12 -17 -12z" />
    <glyph glyph-name="Euro" unicode="&#x20ac;" horiz-adv-x="716" 
d="M655 121l29 -43q7 -10 -2 -18q-92 -67 -228 -67q-117 0 -195 68t-93 186h-81q-11 0 -10 12l5 37q2 12 14 12h69q0 1 0.5 10t0.5 11q0 29 11 72h-67q-12 0 -11 12l5 36q2 13 14 13h77q44 122 143 192t215 70q101 0 190 -63q8 -8 0 -17l-40 -42q-9 -9 -17 -2
q-54 42 -140 42q-76 0 -148 -46.5t-107 -133.5h265q12 0 10 -13l-5 -36q-1 -12 -14 -12h-277q-12 -45 -12 -77v-16h218q12 0 11 -12l-6 -37q-1 -12 -14 -12h-199q14 -83 71 -126.5t132 -43.5q100 0 169 44q12 7 17 0z" />
    <glyph glyph-name="trademark" unicode="&#x2122;" horiz-adv-x="1035" 
d="M353 288h-155q-9 0 -7 8l6 38q0 8 9 8h46l46 322h-111l-8 -54q-2 -8 -10 -8h-38q-9 0 -7 8l14 101q0 7 10 7h376q9 0 7 -7l-14 -101q-2 -8 -9 -8h-39q-9 0 -7 8l8 54h-109l-45 -322h45q9 0 7 -8l-6 -38q0 -8 -9 -8zM1030 288h-145q-8 0 -6 7l6 40q0 7 8 7h38l41 287h-1
l-152 -280q-9 -19 -29 -19t-23 19l-73 280h-1l-41 -287h39q8 0 6 -7l-6 -40q0 -7 -7 -7h-144q-9 0 -7 7l6 40q0 7 9 7h43l46 322h-44q-9 0 -7 7l5 40q1 7 9 7h103q20 0 26 -20l57 -214l15 -72h2q20 44 34 72l117 214q11 20 32 20h104q7 0 6 -7l-5 -40q-2 -7 -8 -7h-44
l-46 -322h44q9 0 7 -7l-6 -40q0 -7 -8 -7z" />
    <glyph glyph-name="onethird" unicode="&#x2153;" horiz-adv-x="698" 
d="M227 -74h-59q-12 0 -7 12l356 810q6 12 18 12h59q13 0 7 -12l-356 -810q-5 -12 -18 -12zM526 -4q-15 0 -28.5 2t-23.5 5.5t-19 8.5t-15 9.5t-11.5 10.5t-8 9.5t-5.5 8.5l-3 4q-3 5 1 8l29 24q5 4 9 0q32 -40 82 -40q85 0 85 66q0 52 -68 52h-17q-7 0 -7 7l4 29q1 7 8 7
h14q29 0 53 15t24 46q0 42 -57 42q-26 0 -44.5 -13.5t-20.5 -31.5q-2 -8 -8 -8h-38q-6 0 -6 6q0 40 35 69t89 29t80 -25.5t26 -60.5q0 -37 -25.5 -61t-43.5 -26q10 -2 22 -8.5t24 -24.5t12 -43q0 -52 -41.5 -84t-106.5 -32zM312 362h-190q-9 0 -8 10l3 29q1 9 12 9h72
l35 250l-80 -55q-6 -4 -10 1l-17 28q-3 4 4 10l108 74q5 3 13 3h39q9 0 7 -9l-42 -302h61q9 0 8 -9l-3 -29q-1 -10 -12 -10z" />
    <glyph glyph-name="minus" unicode="&#x2212;" horiz-adv-x="414" 
d="M393 222h-311q-13 0 -11 13l7 51q2 13 15 13h311q14 0 12 -13l-7 -51q-2 -13 -16 -13z" />
    <glyph glyph-name="approxequal" unicode="&#x2248;" horiz-adv-x="391" 
d="M379 441h23q11 0 11 -11q-9 -114 -104 -114q-25 0 -44.5 10.5t-29.5 22.5t-24 22.5t-29 10.5q-42 0 -50 -60q-2 -12 -14 -12h-24q-10 0 -10 10q0 45 25.5 77.5t75.5 32.5q29 0 51 -17t40 -33.5t37 -16.5q23 0 34.5 14.5t16.5 51.5q2 12 15 12zM357 285h23q11 0 11 -11
q-3 -51 -28 -82.5t-75 -31.5q-25 0 -45 10.5t-30.5 22.5t-24.5 22.5t-29 10.5q-41 0 -49 -60q-2 -12 -14 -12h-24q-11 0 -11 10q0 45 26 77.5t76 32.5q23 0 42 -10.5t30 -23t25.5 -23t30.5 -10.5q23 0 34.5 14.5t17.5 51.5q1 12 14 12z" />
    <glyph glyph-name="notequal" unicode="&#x2260;" horiz-adv-x="423" 
d="M385 100h-180l-20 -47q-6 -12 -18 -12h-40q-13 0 -7 12l20 47h-75q-13 0 -11 13l7 51q2 13 15 13h98l70 158h-145q-14 0 -12 14l7 50q2 14 16 14h168l30 66q4 12 17 12h41q12 0 7 -12l-30 -66h87q13 0 11 -14l-7 -50q-2 -14 -15 -14h-110l-70 -158h157q14 0 12 -13
l-7 -51q-2 -13 -16 -13z" />
    <glyph glyph-name="commaaccent" horiz-adv-x="172" 
d="M20 -222l3 17q1 6 7 6q18 0 33.5 15t15.5 43l-1 6q-6 -5 -19 -5q-16 0 -26.5 11t-10.5 29q0 22 16 38t38 16q46 0 46 -58q0 -61 -27 -92.5t-68 -31.5q-7 0 -7 6z" />
    <glyph glyph-name="a.alt" 
d="M562 0h-87q-22 0 -31 9.5t-6 32.5l8 58h-1q-64 -107 -183 -107q-89 0 -140.5 59t-51.5 155q0 129 75.5 210.5t188.5 81.5q65 0 102.5 -26.5t49.5 -64.5h2l10 71q2 13 14 13h51q13 0 11 -13l-58 -412h56q12 0 11 -12l-6 -43q-3 -12 -15 -12zM284 63q72 0 126.5 60
t54.5 154q0 71 -36 111.5t-94 40.5q-76 0 -129 -59.5t-53 -153.5q0 -69 36 -111t95 -42z" />
    <glyph glyph-name="Imacron" horiz-adv-x="350" 
d="M301 0h-240q-13 0 -11 12l7 51q1 12 14 12h77l80 568h-77q-11 0 -10 12l7 51q2 12 14 12h240q14 0 11 -12l-7 -51q-2 -12 -14 -12h-77l-80 -568h77q12 0 11 -12l-7 -51q-2 -12 -15 -12zM438 780h-295q-13 0 -11 13l6 42q2 14 15 14h295q14 0 12 -14l-6 -42
q-2 -13 -16 -13z" />
    <glyph glyph-name="k.alt" horiz-adv-x="642" 
d="M321 233h37q51 0 100 31.5t49 83.5q0 35 -25.5 60t-63.5 25q-50 0 -94.5 -35t-67.5 -76t-32 -77l-25 -178h53q12 0 11 -12l-6 -43q-1 -12 -15 -12h-191q-13 0 -11 12l7 43q1 12 13 12h56l82 584h-55q-14 0 -11 12l6 43q2 12 14 12h126q12 0 11 -12l-46 -322
q73 115 189 115q76 0 116 -40.5t40 -104.5q0 -49 -31 -87t-71.5 -56t-82.5 -22l133 -122h44q12 0 11 -12l-7 -43q-2 -12 -14 -12h-54q-25 0 -51 31l-159 153q-4 4 -3 10l4 27q1 12 14 12z" />
    <glyph glyph-name="y.alt" horiz-adv-x="560" 
d="M424 -20l23 153h-3q-1 -6 -4.5 -15.5t-17 -33.5t-31.5 -42.5t-51 -33.5t-73 -15q-80 0 -120 47.5t-29 126.5l35 258h-56q-13 0 -11 12l7 43q1 12 13 12h96q22 0 31.5 -9.5t6.5 -32.5l-38 -263q-8 -57 15.5 -89.5t73.5 -32.5q31 0 59 16t45.5 38t30.5 45.5t18.5 38.5
t5.5 17l28 205h-53q-13 0 -11 12l7 43q1 12 13 12h124q12 0 11 -12l-71 -499q-15 -107 -85.5 -161t-176.5 -54q-24 0 -45.5 2.5t-38 7t-31 10t-24.5 11t-18.5 12t-13 10.5t-9.5 9l-4 4q-10 10 -1 18l31 37q7 9 17 1q57 -50 146 -50q71 0 119.5 34t59.5 108z" />
    <glyph glyph-name="kcommaaccent.alt" horiz-adv-x="642" 
d="M321 233h37q51 0 100 31.5t49 83.5q0 35 -25.5 60t-63.5 25q-50 0 -94.5 -35t-67.5 -76t-32 -77l-25 -178h53q12 0 11 -12l-6 -43q-1 -12 -15 -12h-191q-13 0 -11 12l7 43q1 12 13 12h56l82 584h-55q-14 0 -11 12l6 43q2 12 14 12h126q12 0 11 -12l-46 -322
q73 115 189 115q76 0 116 -40.5t40 -104.5q0 -49 -31 -87t-71.5 -56t-82.5 -22l133 -122h44q12 0 11 -12l-7 -43q-2 -12 -14 -12h-54q-22 0 -51 31l-159 153q-4 4 -3 10l4 27q1 12 14 12zM242 -222l3 17q1 6 7 6q18 0 33.5 15t15.5 43l-1 6q-6 -5 -19 -5q-16 0 -26.5 11
t-10.5 29q0 22 16 38t38 16q46 0 46 -58q0 -61 -27 -92.5t-68 -31.5q-7 0 -7 6z" />
    <glyph glyph-name="yacute.alt" horiz-adv-x="560" 
d="M424 -20l23 153h-3q-1 -6 -4.5 -15.5t-17 -33.5t-31.5 -42.5t-51 -33.5t-73 -15q-80 0 -120 47.5t-29 126.5l35 258h-56q-13 0 -11 12l7 43q1 12 13 12h96q22 0 31.5 -9.5t6.5 -32.5l-38 -263q-8 -57 15.5 -89.5t73.5 -32.5q31 0 59 16t45.5 38t30.5 45.5t18.5 38.5
t5.5 17l28 205h-53q-13 0 -11 12l7 43q1 12 13 12h124q12 0 11 -12l-71 -499q-15 -107 -85.5 -161t-176.5 -54q-24 0 -45.5 2.5t-38 7t-31 10t-24.5 11t-18.5 12t-13 10.5t-9.5 9l-4 4q-10 10 -1 18l31 37q7 9 17 1q57 -50 146 -50q71 0 119.5 34t59.5 108zM499 706
l-186 -134q-13 -7 -20 3l-20 29q-8 9 5 19l180 141q10 9 20 -1l25 -38q8 -9 -4 -19z" />
    <glyph glyph-name="ycircumflex.alt" horiz-adv-x="560" 
d="M424 -20l23 153h-3q-1 -6 -4.5 -15.5t-17 -33.5t-31.5 -42.5t-51 -33.5t-73 -15q-80 0 -120 47.5t-29 126.5l35 258h-56q-13 0 -11 12l7 43q1 12 13 12h96q22 0 31.5 -9.5t6.5 -32.5l-38 -263q-8 -57 15.5 -89.5t73.5 -32.5q31 0 59 16t45.5 38t30.5 45.5t18.5 38.5
t5.5 17l28 205h-53q-13 0 -11 12l7 43q1 12 13 12h124q12 0 11 -12l-71 -499q-15 -107 -85.5 -161t-176.5 -54q-24 0 -45.5 2.5t-38 7t-31 10t-24.5 11t-18.5 12t-13 10.5t-9.5 9l-4 4q-10 10 -1 18l31 37q7 9 17 1q57 -50 146 -50q71 0 119.5 34t59.5 108zM542 604l-29 -29
q-10 -10 -19 -2l-109 105l-137 -105q-12 -9 -19 2l-21 29q-7 10 5 19l174 136q5 4 11 4q5 0 9 -5l135 -135q8 -9 0 -19z" />
    <glyph glyph-name="ydieresis.alt" horiz-adv-x="560" 
d="M424 -20l23 153h-3q-1 -6 -4.5 -15.5t-17 -33.5t-31.5 -42.5t-51 -33.5t-73 -15q-80 0 -120 47.5t-29 126.5l35 258h-56q-13 0 -11 12l7 43q1 12 13 12h96q22 0 31.5 -9.5t6.5 -32.5l-38 -263q-8 -57 15.5 -89.5t73.5 -32.5q31 0 59 16t45.5 38t30.5 45.5t18.5 38.5
t5.5 17l28 205h-53q-13 0 -11 12l7 43q1 12 13 12h124q12 0 11 -12l-71 -499q-15 -107 -85.5 -161t-176.5 -54q-24 0 -45.5 2.5t-38 7t-31 10t-24.5 11t-18.5 12t-13 10.5t-9.5 9l-4 4q-10 10 -1 18l31 37q7 9 17 1q57 -50 146 -50q71 0 119.5 34t59.5 108zM339 603
q0 -19 -14.5 -33t-34.5 -14q-16 0 -26 10t-10 27q0 19 14 33.5t34 14.5q16 0 26.5 -11t10.5 -27zM497 603q0 -19 -14.5 -33t-34.5 -14q-16 0 -26 10t-10 27q0 19 14 33.5t34 14.5q16 0 26.5 -11t10.5 -27z" />
    <glyph glyph-name="ygrave.alt" horiz-adv-x="560" 
d="M424 -20l23 153h-3q-1 -6 -4.5 -15.5t-17 -33.5t-31.5 -42.5t-51 -33.5t-73 -15q-80 0 -120 47.5t-29 126.5l35 258h-56q-13 0 -11 12l7 43q1 12 13 12h96q22 0 31.5 -9.5t6.5 -32.5l-38 -263q-8 -57 15.5 -89.5t73.5 -32.5q31 0 59 16t45.5 38t30.5 45.5t18.5 38.5
t5.5 17l28 205h-53q-13 0 -11 12l7 43q1 12 13 12h124q12 0 11 -12l-71 -499q-15 -107 -85.5 -161t-176.5 -54q-24 0 -45.5 2.5t-38 7t-31 10t-24.5 11t-18.5 12t-13 10.5t-9.5 9l-4 4q-10 10 -1 18l31 37q7 9 17 1q57 -50 146 -50q71 0 119.5 34t59.5 108zM464 604l-30 -29
q-9 -10 -19 -2l-149 134q-8 8 2 19l36 37q9 11 20 2l140 -142q10 -9 0 -19z" />
    <glyph glyph-name="aacute.alt" 
d="M562 0h-87q-22 0 -31 9.5t-6 32.5l8 58h-1q-64 -107 -183 -107q-89 0 -140.5 59t-51.5 155q0 129 75.5 210.5t188.5 81.5q65 0 102.5 -26.5t49.5 -64.5h2l10 71q2 13 14 13h51q13 0 11 -13l-58 -412h56q12 0 11 -12l-6 -43q-3 -12 -15 -12zM284 63q72 0 126.5 60
t54.5 154q0 71 -36 111.5t-94 40.5q-76 0 -129 -59.5t-53 -153.5q0 -69 36 -111t95 -42zM505 706l-186 -134q-13 -7 -20 3l-20 29q-8 9 5 19l180 141q10 9 20 -1l25 -38q8 -9 -4 -19z" />
    <glyph glyph-name="abreve.alt" 
d="M562 0h-87q-22 0 -31 9.5t-6 32.5l8 58h-1q-64 -107 -183 -107q-89 0 -140.5 59t-51.5 155q0 129 75.5 210.5t188.5 81.5q65 0 102.5 -26.5t49.5 -64.5h2l10 71q2 13 14 13h51q13 0 11 -13l-58 -412h56q12 0 11 -12l-6 -43q-3 -12 -15 -12zM284 63q72 0 126.5 60
t54.5 154q0 71 -36 111.5t-94 40.5q-76 0 -129 -59.5t-53 -153.5q0 -69 36 -111t95 -42zM478 715h31q12 0 12 -11q0 -63 -46 -102t-114 -39q-56 0 -89 30t-33 87q0 35 17 35h32q10 0 10 -27q0 -34 19.5 -54t49.5 -20q35 0 62 23.5t33 64.5q2 13 16 13z" />
    <glyph glyph-name="acircumflex.alt" 
d="M562 0h-87q-22 0 -31 9.5t-6 32.5l8 58h-1q-64 -107 -183 -107q-89 0 -140.5 59t-51.5 155q0 129 75.5 210.5t188.5 81.5q65 0 102.5 -26.5t49.5 -64.5h2l10 71q2 13 14 13h51q13 0 11 -13l-58 -412h56q12 0 11 -12l-6 -43q-3 -12 -15 -12zM284 63q72 0 126.5 60
t54.5 154q0 71 -36 111.5t-94 40.5q-76 0 -129 -59.5t-53 -153.5q0 -69 36 -111t95 -42zM533 604l-29 -29q-10 -10 -19 -2l-109 105l-137 -105q-12 -9 -19 2l-21 29q-7 10 5 19l174 136q5 4 11 4q5 0 9 -5l135 -135q8 -9 0 -19z" />
    <glyph glyph-name="adieresis.alt" 
d="M562 0h-87q-22 0 -31 9.5t-6 32.5l8 58h-1q-64 -107 -183 -107q-89 0 -140.5 59t-51.5 155q0 129 75.5 210.5t188.5 81.5q65 0 102.5 -26.5t49.5 -64.5h2l10 71q2 13 14 13h51q13 0 11 -13l-58 -412h56q12 0 11 -12l-6 -43q-3 -12 -15 -12zM284 63q72 0 126.5 60
t54.5 154q0 71 -36 111.5t-94 40.5q-76 0 -129 -59.5t-53 -153.5q0 -69 36 -111t95 -42zM338 603q0 -19 -14.5 -33t-34.5 -14q-16 0 -26 10t-10 27q0 19 14.5 33.5t33.5 14.5q16 0 26.5 -11t10.5 -27zM496 603q0 -19 -14.5 -33t-34.5 -14q-16 0 -26 10t-10 27
q0 19 14.5 33.5t33.5 14.5q16 0 26.5 -11t10.5 -27z" />
    <glyph glyph-name="agrave.alt" 
d="M562 0h-87q-22 0 -31 9.5t-6 32.5l8 58h-1q-64 -107 -183 -107q-89 0 -140.5 59t-51.5 155q0 129 75.5 210.5t188.5 81.5q65 0 102.5 -26.5t49.5 -64.5h2l10 71q2 13 14 13h51q13 0 11 -13l-58 -412h56q12 0 11 -12l-6 -43q-3 -12 -15 -12zM284 63q72 0 126.5 60
t54.5 154q0 71 -36 111.5t-94 40.5q-76 0 -129 -59.5t-53 -153.5q0 -69 36 -111t95 -42zM454 604l-30 -29q-9 -10 -19 -2l-149 134q-8 8 2 19l36 37q9 11 20 2l140 -142q10 -9 0 -19z" />
    <glyph glyph-name="amacron.alt" 
d="M562 0h-87q-22 0 -31 9.5t-6 32.5l8 58h-1q-64 -107 -183 -107q-89 0 -140.5 59t-51.5 155q0 129 75.5 210.5t188.5 81.5q65 0 102.5 -26.5t49.5 -64.5h2l10 71q2 13 14 13h51q13 0 11 -13l-58 -412h56q12 0 11 -12l-6 -43q-3 -12 -15 -12zM284 63q72 0 126.5 60
t54.5 154q0 71 -36 111.5t-94 40.5q-76 0 -129 -59.5t-53 -153.5q0 -69 36 -111t95 -42zM500 554h-295q-13 0 -11 13l6 42q2 14 15 14h295q14 0 12 -14l-6 -42q-2 -13 -16 -13z" />
    <glyph glyph-name="aogonek.alt" 
d="M562 0h-87q-22 0 -31 9.5t-6 32.5l8 58h-1q-64 -107 -183 -107q-89 0 -140.5 59t-51.5 155q0 129 75.5 210.5t188.5 81.5q65 0 102.5 -26.5t49.5 -64.5h2l10 71q2 13 14 13h51q13 0 11 -13l-58 -412h56q12 0 11 -12l-6 -43q-3 -12 -15 -12zM284 63q72 0 126.5 60
t54.5 154q0 71 -36 111.5t-94 40.5q-76 0 -129 -59.5t-53 -153.5q0 -69 36 -111t95 -42zM550 -107l7 -13q4 -11 -5 -17q-42 -24 -75 -24q-34 0 -53.5 17t-19.5 47q0 42 38.5 71.5t62.5 29.5h43q-89 -46 -91 -91q0 -29 34 -29q21 0 41 11q15 6 18 -2z" />
    <glyph glyph-name="aring.alt" 
d="M562 0h-87q-22 0 -31 9.5t-6 32.5l8 58h-1q-64 -107 -183 -107q-89 0 -140.5 59t-51.5 155q0 129 75.5 210.5t188.5 81.5q65 0 102.5 -26.5t49.5 -64.5h2l10 71q2 13 14 13h51q13 0 11 -13l-58 -412h56q12 0 11 -12l-6 -43q-3 -12 -15 -12zM284 63q72 0 126.5 60
t54.5 154q0 71 -36 111.5t-94 40.5q-76 0 -129 -59.5t-53 -153.5q0 -69 36 -111t95 -42zM424 608q-11 -22 -35 -30.5t-47 1.5q-18 13 -20.5 35.5t10.5 41.5q11 22 35.5 30.5t46.5 -1.5q18 -13 20.5 -36t-10.5 -41zM404 626q4 10 0 20t-14 14q-12 4 -23.5 -2.5t-14.5 -19.5
q-5 -10 -0.5 -20t14.5 -14q12 -4 23 2.5t15 19.5z" />
    <glyph glyph-name="atilde.alt" 
d="M562 0h-87q-22 0 -31 9.5t-6 32.5l8 58h-1q-64 -107 -183 -107q-89 0 -140.5 59t-51.5 155q0 129 75.5 210.5t188.5 81.5q65 0 102.5 -26.5t49.5 -64.5h2l10 71q2 13 14 13h51q13 0 11 -13l-58 -412h56q12 0 11 -12l-6 -43q-3 -12 -15 -12zM284 63q72 0 126.5 60
t54.5 154q0 71 -36 111.5t-94 40.5q-76 0 -129 -59.5t-53 -153.5q0 -69 36 -111t95 -42zM498 684h24q11 0 10 -11q-3 -51 -28 -82.5t-75 -31.5q-25 0 -45 10t-30.5 21.5t-24.5 21.5t-29 10q-21 0 -33 -12.5t-16 -44.5q-1 -12 -14 -12h-23q-11 0 -11 10q0 45 25.5 77.5
t75.5 32.5q23 0 42.5 -10.5t30 -22.5t25.5 -22.5t31 -10.5q23 0 34.5 14t16.5 51q2 12 14 12z" />
    </font>
</defs>
</svg>
